<svg xmlns="http://www.w3.org/2000/svg" xmlns:xlink="http://www.w3.org/1999/xlink" width="512" zoomAndPan="magnify" viewBox="0 0 384 383.999986" height="512" preserveAspectRatio="xMidYMid meet" version="1.2"><defs><clipPath id="5f2275087e"><path d="M 227.125 93.332031 L 239.125 93.332031 L 239.125 97.832031 L 227.125 97.832031 Z M 227.125 93.332031 "/></clipPath><clipPath id="abb18b1f3c"><path d="M 156 168 L 311.855469 168 L 311.855469 372.222656 L 156 372.222656 Z M 156 168 "/></clipPath></defs><g id="9a851ae358"><g clip-rule="nonzero" clip-path="url(#5f2275087e)"><path style=" stroke:none;fill-rule:nonzero;fill:#000000;fill-opacity:1;" d="M 229.898438 96.609375 C 229.886719 96.578125 229.878906 96.542969 229.871094 96.515625 C 229.847656 96.445312 229.820312 96.375 229.796875 96.304688 C 229.789062 96.28125 229.78125 96.257812 229.769531 96.234375 C 229.75 96.195312 229.742188 96.152344 229.742188 96.113281 C 229.734375 96.0625 229.734375 96.007812 229.730469 95.957031 C 229.730469 95.917969 229.734375 95.875 229.742188 95.835938 C 229.75 95.785156 229.757812 95.730469 229.773438 95.679688 C 229.792969 95.628906 229.808594 95.582031 229.828125 95.53125 C 229.832031 95.523438 229.835938 95.515625 229.84375 95.507812 C 229.882812 95.457031 229.917969 95.410156 229.960938 95.359375 C 229.941406 95.351562 229.917969 95.339844 229.898438 95.332031 C 229.835938 95.308594 229.777344 95.285156 229.71875 95.257812 C 229.664062 95.234375 229.613281 95.199219 229.570312 95.15625 C 229.546875 95.128906 229.519531 95.101562 229.496094 95.078125 C 229.464844 95.042969 229.421875 95.023438 229.378906 95.003906 C 229.320312 94.976562 229.257812 94.949219 229.199219 94.925781 C 229.1875 94.921875 229.171875 94.914062 229.160156 94.914062 C 229.152344 94.914062 229.136719 94.914062 229.128906 94.917969 C 229.105469 94.929688 229.085938 94.941406 229.066406 94.953125 C 229.050781 94.960938 229.035156 94.964844 229.015625 94.964844 C 229.003906 94.964844 228.992188 94.96875 228.980469 94.976562 C 228.949219 94.988281 228.921875 95.003906 228.894531 95.015625 C 228.882812 95.023438 228.871094 95.023438 228.863281 95.023438 C 228.847656 95.027344 228.839844 95.019531 228.835938 95.011719 C 228.828125 95.003906 228.832031 94.992188 228.835938 94.984375 C 228.851562 94.964844 228.871094 94.953125 228.894531 94.945312 C 228.914062 94.9375 228.929688 94.929688 228.945312 94.921875 C 228.929688 94.882812 228.898438 94.863281 228.855469 94.863281 C 228.816406 94.867188 228.773438 94.875 228.730469 94.878906 C 228.707031 94.882812 228.683594 94.878906 228.660156 94.867188 C 228.644531 94.859375 228.636719 94.851562 228.640625 94.832031 C 228.699219 94.824219 228.757812 94.828125 228.820312 94.8125 C 228.800781 94.800781 228.785156 94.792969 228.769531 94.785156 C 228.753906 94.773438 228.734375 94.765625 228.71875 94.753906 C 228.703125 94.742188 228.691406 94.730469 228.679688 94.71875 C 228.667969 94.707031 228.667969 94.695312 228.675781 94.679688 C 228.695312 94.683594 228.710938 94.691406 228.726562 94.703125 C 228.773438 94.738281 228.824219 94.757812 228.875 94.785156 C 228.890625 94.792969 228.90625 94.792969 228.921875 94.789062 C 228.9375 94.78125 228.953125 94.777344 228.972656 94.769531 C 228.960938 94.765625 228.957031 94.761719 228.949219 94.757812 C 228.9375 94.75 228.921875 94.742188 228.90625 94.734375 C 228.882812 94.722656 228.871094 94.707031 228.878906 94.679688 C 228.894531 94.683594 228.910156 94.6875 228.925781 94.691406 C 228.949219 94.699219 228.972656 94.703125 228.988281 94.71875 C 229.007812 94.734375 229.027344 94.746094 229.050781 94.757812 C 229.066406 94.765625 229.089844 94.765625 229.109375 94.769531 C 229.144531 94.773438 229.183594 94.773438 229.21875 94.777344 C 229.234375 94.777344 229.246094 94.785156 229.257812 94.789062 C 229.34375 94.8125 229.425781 94.847656 229.507812 94.886719 C 229.582031 94.921875 229.660156 94.960938 229.738281 94.996094 C 229.796875 95.027344 229.859375 95.054688 229.921875 95.082031 C 229.992188 95.113281 230.0625 95.140625 230.136719 95.167969 C 230.144531 95.171875 230.15625 95.171875 230.164062 95.175781 C 230.1875 95.175781 230.203125 95.171875 230.214844 95.148438 C 230.226562 95.128906 230.246094 95.109375 230.261719 95.089844 C 230.292969 95.054688 230.320312 95.023438 230.351562 94.992188 C 230.378906 94.960938 230.394531 94.925781 230.398438 94.886719 C 230.402344 94.871094 230.402344 94.851562 230.402344 94.835938 C 230.40625 94.816406 230.40625 94.796875 230.410156 94.777344 C 230.417969 94.757812 230.441406 94.742188 230.464844 94.746094 C 230.480469 94.746094 230.496094 94.746094 230.507812 94.734375 C 230.507812 94.730469 230.511719 94.730469 230.515625 94.730469 C 230.542969 94.730469 230.566406 94.707031 230.59375 94.714844 C 230.597656 94.714844 230.601562 94.714844 230.605469 94.710938 C 230.613281 94.703125 230.617188 94.691406 230.625 94.683594 C 230.640625 94.664062 230.652344 94.664062 230.671875 94.679688 C 230.703125 94.699219 230.734375 94.722656 230.765625 94.742188 C 230.785156 94.757812 230.804688 94.765625 230.828125 94.75 C 230.839844 94.742188 230.847656 94.746094 230.859375 94.75 C 230.90625 94.773438 230.953125 94.796875 230.992188 94.828125 C 231.015625 94.847656 231.03125 94.875 231.050781 94.898438 C 231.054688 94.902344 231.058594 94.910156 231.0625 94.917969 C 231.148438 94.882812 231.234375 94.847656 231.3125 94.800781 C 231.410156 94.742188 231.503906 94.6875 231.597656 94.632812 C 231.628906 94.613281 231.664062 94.597656 231.695312 94.578125 C 231.699219 94.578125 231.703125 94.574219 231.710938 94.570312 C 231.730469 94.566406 231.738281 94.566406 231.746094 94.585938 C 231.898438 94.5 232.050781 94.414062 232.199219 94.328125 C 232.183594 94.308594 232.167969 94.292969 232.152344 94.273438 C 232.1875 94.21875 232.246094 94.1875 232.304688 94.164062 C 232.367188 94.140625 232.433594 94.125 232.503906 94.117188 C 232.554688 94.109375 232.601562 94.105469 232.652344 94.101562 C 232.691406 94.097656 232.734375 94.09375 232.773438 94.09375 C 232.851562 94.089844 232.929688 94.085938 233.007812 94.085938 C 233.019531 94.085938 233.027344 94.078125 233.03125 94.074219 C 233.058594 94.03125 233.082031 93.992188 233.109375 93.953125 C 233.148438 93.898438 233.195312 93.847656 233.246094 93.800781 C 233.296875 93.746094 233.355469 93.699219 233.414062 93.65625 C 233.523438 93.578125 233.636719 93.515625 233.757812 93.464844 C 233.859375 93.421875 233.960938 93.390625 234.066406 93.367188 C 234.164062 93.34375 234.265625 93.332031 234.367188 93.34375 C 234.460938 93.351562 234.554688 93.371094 234.640625 93.414062 C 234.683594 93.4375 234.722656 93.464844 234.75 93.5 C 234.777344 93.53125 234.789062 93.566406 234.785156 93.601562 C 234.785156 93.640625 234.792969 93.675781 234.796875 93.714844 C 234.800781 93.746094 234.800781 93.777344 234.800781 93.808594 C 234.800781 93.847656 234.785156 93.878906 234.761719 93.90625 C 234.71875 93.960938 234.664062 94.007812 234.597656 94.042969 C 234.546875 94.070312 234.488281 94.085938 234.429688 94.097656 C 234.375 94.109375 234.316406 94.121094 234.261719 94.132812 C 234.210938 94.140625 234.160156 94.144531 234.109375 94.148438 C 234.0625 94.15625 234.019531 94.15625 233.976562 94.160156 C 233.910156 94.164062 233.847656 94.167969 233.78125 94.171875 C 233.757812 94.175781 233.738281 94.175781 233.71875 94.175781 C 233.597656 94.175781 233.480469 94.179688 233.359375 94.179688 C 233.296875 94.183594 233.230469 94.183594 233.167969 94.1875 C 233.164062 94.1875 233.160156 94.1875 233.152344 94.1875 C 233.171875 94.199219 233.1875 94.207031 233.203125 94.214844 C 233.285156 94.257812 233.375 94.285156 233.464844 94.308594 C 233.546875 94.328125 233.628906 94.347656 233.707031 94.367188 C 233.777344 94.382812 233.851562 94.394531 233.921875 94.410156 C 233.976562 94.421875 234.03125 94.429688 234.089844 94.441406 C 234.136719 94.453125 234.1875 94.460938 234.238281 94.46875 C 234.3125 94.484375 234.390625 94.5 234.46875 94.515625 C 234.546875 94.53125 234.625 94.546875 234.699219 94.566406 C 234.863281 94.605469 235.023438 94.648438 235.175781 94.714844 C 235.238281 94.742188 235.296875 94.773438 235.347656 94.820312 C 235.351562 94.820312 235.351562 94.824219 235.359375 94.828125 C 235.394531 94.804688 235.429688 94.78125 235.464844 94.757812 C 235.550781 94.699219 235.636719 94.640625 235.71875 94.578125 C 235.828125 94.5 235.929688 94.417969 236.035156 94.339844 C 236.113281 94.28125 236.1875 94.222656 236.261719 94.164062 C 236.339844 94.101562 236.417969 94.039062 236.5 93.980469 C 236.585938 93.917969 236.671875 93.855469 236.757812 93.792969 C 236.851562 93.730469 236.945312 93.667969 237.042969 93.613281 C 237.109375 93.574219 237.179688 93.539062 237.25 93.5 C 237.304688 93.472656 237.363281 93.449219 237.421875 93.433594 C 237.492188 93.414062 237.566406 93.40625 237.640625 93.414062 C 237.667969 93.417969 237.699219 93.417969 237.730469 93.421875 C 237.800781 93.429688 237.863281 93.457031 237.910156 93.511719 C 237.9375 93.539062 237.960938 93.570312 237.984375 93.601562 C 238 93.625 238.015625 93.644531 238.035156 93.667969 C 238.082031 93.714844 238.113281 93.769531 238.125 93.835938 C 238.132812 93.867188 238.128906 93.894531 238.125 93.925781 C 238.113281 93.984375 238.097656 94.039062 238.078125 94.089844 C 238.046875 94.183594 237.996094 94.265625 237.9375 94.34375 C 237.886719 94.410156 237.828125 94.476562 237.761719 94.535156 C 237.6875 94.601562 237.605469 94.65625 237.511719 94.703125 C 237.460938 94.726562 237.414062 94.742188 237.363281 94.765625 C 237.359375 94.765625 237.355469 94.769531 237.347656 94.773438 C 237.375 94.777344 237.394531 94.785156 237.417969 94.789062 C 237.453125 94.792969 237.492188 94.800781 237.527344 94.808594 C 237.542969 94.8125 237.554688 94.808594 237.566406 94.800781 C 237.589844 94.777344 237.617188 94.761719 237.640625 94.742188 C 237.695312 94.699219 237.75 94.65625 237.804688 94.613281 C 237.867188 94.566406 237.929688 94.519531 237.996094 94.472656 C 238.058594 94.425781 238.125 94.378906 238.191406 94.332031 C 238.265625 94.28125 238.347656 94.234375 238.425781 94.191406 C 238.496094 94.15625 238.566406 94.121094 238.644531 94.101562 C 238.664062 94.097656 238.683594 94.09375 238.703125 94.089844 C 238.757812 94.085938 238.8125 94.089844 238.867188 94.097656 C 238.929688 94.105469 238.980469 94.132812 239.015625 94.179688 C 239.046875 94.21875 239.078125 94.257812 239.097656 94.308594 C 239.109375 94.339844 239.113281 94.371094 239.117188 94.402344 C 239.125 94.484375 239.085938 94.550781 239.035156 94.613281 C 239 94.652344 238.964844 94.691406 238.921875 94.726562 C 238.855469 94.785156 238.78125 94.832031 238.703125 94.871094 C 238.617188 94.914062 238.53125 94.945312 238.4375 94.964844 C 238.363281 94.980469 238.289062 94.996094 238.214844 94.996094 C 238.144531 95 238.078125 95 238.011719 95 C 237.96875 95 237.925781 94.992188 237.886719 94.988281 C 237.832031 94.984375 237.78125 94.976562 237.726562 94.96875 C 237.675781 94.957031 237.625 94.945312 237.566406 94.933594 C 237.5625 94.9375 237.554688 94.941406 237.550781 94.945312 C 237.488281 94.992188 237.425781 95.042969 237.363281 95.089844 C 237.292969 95.140625 237.222656 95.191406 237.152344 95.242188 C 237.082031 95.289062 237.007812 95.335938 236.925781 95.371094 C 236.867188 95.394531 236.808594 95.414062 236.742188 95.414062 C 236.71875 95.414062 236.695312 95.410156 236.671875 95.40625 C 236.660156 95.371094 236.664062 95.339844 236.671875 95.308594 C 236.699219 95.304688 236.722656 95.304688 236.75 95.300781 C 236.816406 95.289062 236.875 95.265625 236.9375 95.238281 C 237.039062 95.183594 237.136719 95.117188 237.230469 95.050781 C 237.292969 95.003906 237.355469 94.957031 237.421875 94.910156 C 237.425781 94.90625 237.429688 94.902344 237.433594 94.898438 C 237.425781 94.898438 237.425781 94.894531 237.417969 94.894531 C 237.355469 94.871094 237.289062 94.851562 237.226562 94.828125 C 237.203125 94.820312 237.179688 94.820312 237.15625 94.824219 C 237.089844 94.839844 237.019531 94.855469 236.953125 94.867188 C 236.878906 94.875 236.808594 94.878906 236.738281 94.886719 C 236.609375 94.898438 236.480469 94.898438 236.351562 94.898438 C 236.328125 94.898438 236.308594 94.894531 236.285156 94.882812 C 236.25 94.871094 236.214844 94.859375 236.183594 94.84375 C 236.148438 94.828125 236.117188 94.804688 236.097656 94.773438 C 236.074219 94.742188 236.078125 94.703125 236.105469 94.675781 C 236.121094 94.65625 236.144531 94.640625 236.167969 94.632812 C 236.222656 94.609375 236.277344 94.597656 236.339844 94.59375 C 236.371094 94.589844 236.40625 94.589844 236.4375 94.589844 C 236.503906 94.585938 236.566406 94.59375 236.628906 94.601562 C 236.695312 94.605469 236.761719 94.617188 236.828125 94.632812 C 236.894531 94.648438 236.960938 94.675781 237.023438 94.703125 C 237.050781 94.710938 237.082031 94.71875 237.113281 94.722656 C 237.117188 94.726562 237.128906 94.722656 237.132812 94.71875 C 237.257812 94.675781 237.375 94.621094 237.488281 94.550781 C 237.578125 94.492188 237.664062 94.425781 237.742188 94.347656 C 237.816406 94.273438 237.886719 94.199219 237.9375 94.109375 C 237.980469 94.039062 238.007812 93.96875 238.019531 93.890625 C 238.03125 93.824219 238.03125 93.753906 238.015625 93.6875 C 238.011719 93.671875 238.003906 93.65625 237.988281 93.648438 C 237.933594 93.613281 237.871094 93.589844 237.804688 93.578125 C 237.726562 93.566406 237.644531 93.574219 237.566406 93.589844 C 237.453125 93.613281 237.34375 93.652344 237.242188 93.703125 C 237.082031 93.773438 236.9375 93.859375 236.792969 93.953125 C 236.707031 94.011719 236.621094 94.070312 236.539062 94.128906 C 236.464844 94.179688 236.394531 94.234375 236.324219 94.285156 C 236.273438 94.328125 236.21875 94.367188 236.164062 94.410156 C 236.105469 94.457031 236.046875 94.503906 235.988281 94.546875 C 235.890625 94.625 235.789062 94.703125 235.691406 94.777344 C 235.613281 94.832031 235.535156 94.882812 235.457031 94.9375 C 235.453125 94.941406 235.449219 94.941406 235.445312 94.945312 C 235.464844 94.980469 235.472656 95.015625 235.472656 95.054688 C 235.46875 95.085938 235.460938 95.121094 235.449219 95.148438 C 235.429688 95.191406 235.417969 95.230469 235.40625 95.273438 C 235.40625 95.28125 235.402344 95.285156 235.398438 95.292969 C 235.390625 95.324219 235.367188 95.347656 235.328125 95.359375 C 235.253906 95.378906 235.183594 95.394531 235.105469 95.386719 C 235 95.378906 234.914062 95.339844 234.863281 95.25 C 234.835938 95.207031 234.832031 95.15625 234.839844 95.105469 C 234.847656 95.070312 234.859375 95.035156 234.878906 95.003906 C 234.886719 94.988281 234.894531 94.984375 234.910156 94.984375 C 235.019531 94.984375 235.117188 94.953125 235.210938 94.90625 C 235.210938 94.90625 235.210938 94.902344 235.210938 94.902344 C 235.191406 94.890625 235.171875 94.875 235.152344 94.863281 C 235.054688 94.808594 234.949219 94.769531 234.839844 94.730469 C 234.734375 94.695312 234.625 94.664062 234.515625 94.636719 C 234.441406 94.621094 234.367188 94.605469 234.292969 94.585938 C 234.21875 94.574219 234.148438 94.558594 234.074219 94.542969 C 234.007812 94.53125 233.941406 94.519531 233.878906 94.507812 C 233.828125 94.5 233.773438 94.488281 233.722656 94.476562 C 233.632812 94.457031 233.542969 94.441406 233.453125 94.417969 C 233.347656 94.394531 233.246094 94.367188 233.148438 94.320312 C 233.082031 94.289062 233.023438 94.257812 232.984375 94.199219 C 232.976562 94.191406 232.96875 94.191406 232.960938 94.191406 C 232.898438 94.195312 232.832031 94.199219 232.769531 94.203125 C 232.695312 94.207031 232.621094 94.214844 232.550781 94.222656 C 232.492188 94.234375 232.433594 94.246094 232.378906 94.265625 C 232.355469 94.273438 232.335938 94.289062 232.3125 94.300781 C 232.179688 94.378906 232.042969 94.460938 231.910156 94.539062 C 231.816406 94.59375 231.726562 94.648438 231.632812 94.703125 C 231.628906 94.707031 231.625 94.710938 231.621094 94.714844 C 231.640625 94.726562 231.660156 94.730469 231.679688 94.742188 C 231.707031 94.753906 231.738281 94.761719 231.765625 94.777344 C 231.800781 94.792969 231.800781 94.8125 231.769531 94.832031 C 231.75 94.84375 231.730469 94.839844 231.710938 94.835938 C 231.675781 94.832031 231.648438 94.839844 231.621094 94.851562 C 231.589844 94.867188 231.554688 94.878906 231.523438 94.890625 C 231.511719 94.894531 231.5 94.894531 231.488281 94.890625 C 231.46875 94.890625 231.453125 94.894531 231.4375 94.90625 C 231.398438 94.933594 231.359375 94.960938 231.316406 94.992188 C 231.257812 95.03125 231.199219 95.074219 231.136719 95.117188 C 231.132812 95.121094 231.121094 95.121094 231.113281 95.128906 C 231.109375 95.132812 231.101562 95.140625 231.101562 95.148438 C 231.097656 95.175781 231.085938 95.199219 231.078125 95.222656 C 231.085938 95.242188 231.09375 95.261719 231.101562 95.28125 C 231.109375 95.304688 231.105469 95.324219 231.097656 95.347656 C 231.085938 95.378906 231.0625 95.398438 231.023438 95.40625 C 230.984375 95.414062 230.945312 95.410156 230.910156 95.386719 C 230.898438 95.382812 230.890625 95.382812 230.878906 95.382812 C 230.824219 95.398438 230.773438 95.398438 230.722656 95.378906 C 230.707031 95.375 230.6875 95.371094 230.671875 95.367188 C 230.65625 95.359375 230.636719 95.359375 230.636719 95.335938 C 230.636719 95.335938 230.632812 95.332031 230.628906 95.328125 C 230.621094 95.320312 230.617188 95.316406 230.609375 95.304688 C 230.601562 95.308594 230.597656 95.3125 230.601562 95.320312 C 230.605469 95.332031 230.609375 95.34375 230.613281 95.351562 C 230.625 95.398438 230.621094 95.441406 230.617188 95.484375 C 230.601562 95.589844 230.570312 95.6875 230.539062 95.785156 C 230.527344 95.828125 230.511719 95.871094 230.5 95.914062 C 230.488281 95.957031 230.484375 96 230.484375 96.042969 C 230.488281 96.058594 230.488281 96.070312 230.484375 96.085938 C 230.480469 96.109375 230.492188 96.132812 230.507812 96.15625 C 230.511719 96.160156 230.515625 96.164062 230.515625 96.171875 C 230.527344 96.195312 230.546875 96.203125 230.574219 96.203125 C 230.625 96.207031 230.667969 96.226562 230.714844 96.25 C 230.765625 96.273438 230.808594 96.308594 230.851562 96.34375 C 230.875 96.359375 230.894531 96.378906 230.917969 96.398438 C 230.9375 96.410156 230.960938 96.414062 230.984375 96.414062 C 231.011719 96.417969 231.042969 96.421875 231.070312 96.421875 C 231.101562 96.421875 231.136719 96.417969 231.167969 96.414062 C 231.238281 96.40625 231.304688 96.394531 231.371094 96.386719 C 231.378906 96.382812 231.382812 96.382812 231.390625 96.382812 C 231.441406 96.378906 231.492188 96.378906 231.542969 96.371094 C 231.582031 96.371094 231.621094 96.367188 231.660156 96.359375 C 231.71875 96.351562 231.777344 96.339844 231.832031 96.320312 C 231.863281 96.3125 231.882812 96.292969 231.894531 96.265625 C 231.914062 96.226562 231.929688 96.191406 231.949219 96.152344 C 231.980469 96.089844 232.03125 96.039062 232.089844 95.996094 C 232.160156 95.945312 232.230469 95.894531 232.300781 95.84375 C 232.339844 95.816406 232.382812 95.789062 232.421875 95.761719 C 232.484375 95.71875 232.542969 95.675781 232.589844 95.617188 C 232.601562 95.601562 232.617188 95.582031 232.632812 95.566406 C 232.636719 95.558594 232.640625 95.550781 232.640625 95.539062 C 232.640625 95.519531 232.636719 95.496094 232.632812 95.472656 C 232.621094 95.410156 232.664062 95.363281 232.730469 95.363281 C 232.78125 95.363281 232.828125 95.367188 232.878906 95.363281 C 232.894531 95.363281 232.910156 95.359375 232.925781 95.355469 C 232.960938 95.347656 232.992188 95.328125 233.019531 95.304688 C 233.027344 95.296875 233.03125 95.289062 233.039062 95.28125 C 233.054688 95.257812 233.070312 95.234375 233.082031 95.210938 C 233.089844 95.195312 233.097656 95.179688 233.105469 95.167969 C 233.117188 95.148438 233.132812 95.136719 233.152344 95.125 C 233.164062 95.121094 233.175781 95.121094 233.183594 95.132812 C 233.210938 95.160156 233.226562 95.195312 233.222656 95.230469 C 233.21875 95.253906 233.214844 95.273438 233.214844 95.296875 C 233.214844 95.3125 233.207031 95.324219 233.195312 95.335938 C 233.167969 95.375 233.136719 95.414062 233.109375 95.449219 C 233.097656 95.464844 233.089844 95.480469 233.082031 95.492188 C 233.058594 95.539062 233.019531 95.570312 232.980469 95.601562 C 232.933594 95.644531 232.882812 95.683594 232.835938 95.722656 C 232.789062 95.765625 232.738281 95.804688 232.691406 95.847656 C 232.65625 95.882812 232.628906 95.917969 232.59375 95.949219 C 232.550781 95.992188 232.519531 96.039062 232.480469 96.085938 C 232.453125 96.117188 232.421875 96.148438 232.394531 96.183594 C 232.328125 96.261719 232.261719 96.339844 232.203125 96.425781 C 232.164062 96.484375 232.117188 96.542969 232.070312 96.601562 C 232.058594 96.621094 232.039062 96.632812 232.019531 96.636719 C 231.953125 96.648438 231.894531 96.671875 231.832031 96.691406 C 231.765625 96.710938 231.703125 96.730469 231.632812 96.742188 C 231.589844 96.75 231.546875 96.757812 231.5 96.765625 C 231.46875 96.769531 231.4375 96.773438 231.40625 96.773438 C 231.382812 96.777344 231.355469 96.78125 231.328125 96.785156 C 231.269531 96.789062 231.210938 96.796875 231.152344 96.804688 C 231.105469 96.808594 231.0625 96.816406 231.015625 96.824219 C 230.933594 96.839844 230.851562 96.859375 230.769531 96.863281 C 230.742188 96.863281 230.714844 96.859375 230.691406 96.859375 C 230.667969 96.859375 230.644531 96.859375 230.625 96.867188 C 230.582031 96.890625 230.535156 96.902344 230.488281 96.917969 C 230.453125 96.925781 230.417969 96.941406 230.386719 96.957031 C 230.34375 96.976562 230.304688 96.996094 230.261719 97.019531 C 230.234375 97.03125 230.207031 97.039062 230.183594 97.050781 C 230.109375 97.078125 230.039062 97.105469 229.964844 97.132812 C 229.867188 97.167969 229.769531 97.203125 229.671875 97.230469 C 229.570312 97.261719 229.472656 97.296875 229.375 97.335938 C 229.289062 97.371094 229.203125 97.398438 229.117188 97.429688 C 229.089844 97.4375 229.066406 97.449219 229.042969 97.460938 C 228.949219 97.507812 228.863281 97.554688 228.769531 97.597656 C 228.738281 97.613281 228.703125 97.621094 228.667969 97.628906 C 228.660156 97.632812 228.652344 97.628906 228.644531 97.628906 C 228.558594 97.628906 228.472656 97.632812 228.386719 97.640625 C 228.335938 97.648438 228.285156 97.652344 228.234375 97.648438 C 228.144531 97.648438 228.054688 97.660156 227.96875 97.6875 C 227.953125 97.691406 227.941406 97.695312 227.929688 97.699219 C 227.886719 97.710938 227.855469 97.734375 227.839844 97.769531 C 227.816406 97.816406 227.78125 97.828125 227.730469 97.824219 C 227.699219 97.820312 227.671875 97.804688 227.644531 97.789062 C 227.617188 97.777344 227.59375 97.765625 227.570312 97.75 C 227.542969 97.738281 227.519531 97.734375 227.492188 97.738281 C 227.417969 97.753906 227.347656 97.769531 227.277344 97.789062 C 227.265625 97.792969 227.25 97.800781 227.242188 97.808594 C 227.214844 97.832031 227.179688 97.832031 227.144531 97.832031 C 227.136719 97.832031 227.128906 97.824219 227.128906 97.816406 C 227.128906 97.800781 227.128906 97.785156 227.136719 97.773438 C 227.152344 97.746094 227.167969 97.722656 227.183594 97.695312 C 227.203125 97.671875 227.230469 97.652344 227.265625 97.636719 C 227.359375 97.59375 227.457031 97.550781 227.554688 97.511719 C 227.597656 97.492188 227.640625 97.484375 227.6875 97.476562 C 227.738281 97.46875 227.789062 97.460938 227.839844 97.457031 C 227.890625 97.453125 227.9375 97.453125 227.988281 97.453125 C 228.011719 97.449219 228.035156 97.449219 228.058594 97.449219 C 228.136719 97.4375 228.210938 97.414062 228.28125 97.386719 C 228.351562 97.359375 228.425781 97.335938 228.496094 97.3125 C 228.546875 97.296875 228.597656 97.289062 228.648438 97.277344 C 228.664062 97.273438 228.679688 97.269531 228.691406 97.265625 C 228.730469 97.253906 228.765625 97.246094 228.800781 97.234375 C 228.839844 97.21875 228.878906 97.199219 228.917969 97.183594 C 228.964844 97.160156 229.011719 97.140625 229.058594 97.117188 C 229.085938 97.105469 229.113281 97.089844 229.140625 97.078125 C 229.152344 97.070312 229.164062 97.0625 229.179688 97.058594 C 229.222656 97.050781 229.253906 97.027344 229.28125 97 C 229.339844 96.9375 229.402344 96.875 229.46875 96.820312 C 229.539062 96.757812 229.625 96.710938 229.710938 96.671875 C 229.769531 96.648438 229.828125 96.625 229.898438 96.609375 Z M 233.066406 94.085938 C 233.078125 94.085938 233.085938 94.085938 233.089844 94.085938 C 233.125 94.085938 233.15625 94.082031 233.1875 94.082031 C 233.261719 94.082031 233.335938 94.078125 233.410156 94.078125 C 233.484375 94.074219 233.558594 94.074219 233.636719 94.070312 C 233.679688 94.070312 233.722656 94.070312 233.765625 94.066406 C 233.816406 94.0625 233.867188 94.054688 233.917969 94.050781 C 233.988281 94.042969 234.0625 94.035156 234.132812 94.023438 C 234.21875 94.011719 234.300781 93.992188 234.378906 93.96875 C 234.484375 93.9375 234.582031 93.898438 234.664062 93.835938 C 234.707031 93.800781 234.738281 93.757812 234.757812 93.710938 C 234.761719 93.703125 234.761719 93.691406 234.757812 93.679688 C 234.738281 93.625 234.703125 93.578125 234.65625 93.535156 C 234.609375 93.496094 234.554688 93.46875 234.492188 93.453125 C 234.4375 93.441406 234.382812 93.4375 234.324219 93.441406 C 234.265625 93.445312 234.203125 93.453125 234.144531 93.464844 C 234.03125 93.484375 233.925781 93.511719 233.820312 93.550781 C 233.730469 93.585938 233.640625 93.625 233.554688 93.671875 C 233.421875 93.746094 233.296875 93.828125 233.191406 93.9375 C 233.148438 93.980469 233.105469 94.027344 233.066406 94.085938 Z M 237.695312 94.832031 C 237.71875 94.835938 237.742188 94.839844 237.765625 94.84375 C 237.820312 94.851562 237.875 94.855469 237.933594 94.859375 C 237.980469 94.863281 238.027344 94.867188 238.078125 94.867188 C 238.144531 94.867188 238.214844 94.867188 238.28125 94.859375 C 238.347656 94.851562 238.410156 94.839844 238.472656 94.820312 C 238.546875 94.796875 238.613281 94.765625 238.679688 94.734375 C 238.777344 94.6875 238.867188 94.628906 238.933594 94.550781 C 239 94.46875 239.039062 94.378906 239.050781 94.28125 C 239.054688 94.269531 239.050781 94.261719 239.042969 94.253906 C 239.027344 94.246094 239.007812 94.234375 238.992188 94.226562 C 238.9375 94.199219 238.878906 94.203125 238.820312 94.210938 C 238.757812 94.21875 238.695312 94.238281 238.636719 94.261719 C 238.527344 94.300781 238.425781 94.351562 238.328125 94.40625 C 238.222656 94.464844 238.121094 94.527344 238.027344 94.59375 C 237.945312 94.652344 237.863281 94.707031 237.78125 94.765625 C 237.753906 94.785156 237.726562 94.808594 237.695312 94.832031 Z M 237.027344 94.753906 C 236.992188 94.738281 236.957031 94.722656 236.925781 94.707031 C 236.890625 94.691406 236.855469 94.679688 236.8125 94.675781 C 236.753906 94.667969 236.695312 94.667969 236.636719 94.667969 C 236.605469 94.667969 236.578125 94.671875 236.546875 94.679688 C 236.488281 94.6875 236.429688 94.707031 236.375 94.738281 C 236.347656 94.753906 236.320312 94.769531 236.296875 94.796875 C 236.285156 94.808594 236.277344 94.816406 236.277344 94.835938 C 236.285156 94.839844 236.289062 94.84375 236.296875 94.84375 C 236.316406 94.84375 236.335938 94.847656 236.359375 94.847656 C 236.390625 94.847656 236.421875 94.847656 236.453125 94.84375 C 236.496094 94.84375 236.542969 94.839844 236.589844 94.835938 C 236.652344 94.828125 236.714844 94.820312 236.78125 94.808594 C 236.863281 94.796875 236.945312 94.777344 237.027344 94.753906 Z M 234.941406 95.125 C 234.945312 95.128906 234.945312 95.136719 234.949219 95.136719 C 234.988281 95.1875 235.039062 95.222656 235.101562 95.246094 C 235.152344 95.265625 235.203125 95.269531 235.257812 95.257812 C 235.300781 95.246094 235.339844 95.226562 235.378906 95.203125 C 235.402344 95.1875 235.414062 95.171875 235.40625 95.140625 C 235.394531 95.089844 235.371094 95.050781 235.335938 95.011719 C 235.292969 95.03125 235.25 95.050781 235.207031 95.070312 C 235.128906 95.105469 235.050781 95.128906 234.96875 95.125 C 234.960938 95.125 234.953125 95.125 234.941406 95.125 Z M 234.941406 95.125 "/></g><g clip-rule="nonzero" clip-path="url(#abb18b1f3c)"><path style=" stroke:none;fill-rule:nonzero;fill:#366db3;fill-opacity:1;" d="M 308.234375 207.898438 C 307.96875 213.355469 306.40625 218.742188 304.121094 223.808594 C 299.480469 233.984375 292.257812 242.910156 284.632812 251.320312 C 276.949219 259.757812 268.910156 267.878906 260.421875 275.484375 C 258.054688 277.589844 255.65625 279.660156 253.222656 281.691406 C 252.734375 278.683594 252.070312 275.703125 251.292969 272.769531 C 249.769531 267.148438 247.796875 261.726562 245.867188 256.335938 C 243.925781 250.941406 241.988281 245.566406 240.246094 240.144531 C 238.507812 234.722656 236.957031 229.25 235.816406 223.71875 C 234.6875 218.191406 233.988281 212.585938 234.117188 207.035156 C 234.257812 201.503906 235.289062 195.992188 237.746094 191.148438 C 240.164062 186.292969 243.988281 182.238281 248.570312 179.234375 C 250.859375 177.726562 253.320312 176.457031 255.875 175.382812 C 258.429688 174.328125 261.101562 173.375 263.730469 172.769531 C 269.046875 171.542969 274.660156 171.601562 280.003906 172.789062 C 285.355469 173.96875 290.449219 176.304688 294.816406 179.589844 C 296.988281 181.242188 298.976562 183.128906 300.71875 185.21875 C 302.445312 187.320312 303.910156 189.628906 305.078125 192.074219 C 307.40625 196.988281 308.527344 202.457031 308.234375 207.898438 Z M 308.355469 190.519531 C 307.054688 187.796875 305.417969 185.238281 303.503906 182.914062 C 301.570312 180.605469 299.375 178.527344 296.984375 176.714844 C 292.179688 173.117188 286.613281 170.589844 280.769531 169.308594 C 274.933594 168.027344 268.796875 167.96875 262.941406 169.328125 C 259.988281 170.019531 257.246094 171.015625 254.511719 172.148438 C 251.785156 173.300781 249.136719 174.671875 246.636719 176.320312 C 241.648438 179.597656 237.34375 184.164062 234.652344 189.597656 C 231.917969 195.019531 230.828125 201.0625 230.6875 206.957031 C 230.578125 212.875 231.394531 218.707031 232.597656 224.394531 C 233.828125 230.082031 235.457031 235.640625 237.277344 241.113281 C 239.089844 246.585938 241.089844 251.980469 243.078125 257.351562 C 245.058594 262.730469 247.058594 268.074219 248.585938 273.507812 C 249.511719 276.863281 250.277344 280.269531 250.796875 283.699219 C 245.238281 288.230469 239.484375 292.519531 233.492188 296.457031 C 223.996094 302.703125 213.910156 308.101562 203.253906 312.019531 C 192.613281 315.9375 181.371094 318.328125 170.027344 318.507812 C 165.695312 318.570312 161.355469 318.441406 157.035156 318.089844 L 156.320312 319.941406 C 160.886719 320.378906 165.472656 320.574219 170.050781 320.550781 C 181.65625 320.5 193.175781 318.171875 204.078125 314.296875 C 214.988281 310.421875 225.3125 305.042969 235.023438 298.804688 C 240.609375 295.203125 246.007812 291.324219 251.230469 287.226562 C 251.320312 288.1875 251.402344 289.152344 251.445312 290.117188 C 251.703125 295.703125 251.15625 301.335938 249.351562 306.597656 C 247.570312 311.863281 244.539062 316.664062 240.726562 320.773438 C 236.910156 324.894531 232.378906 328.355469 227.640625 331.484375 C 222.886719 334.609375 217.898438 337.40625 212.890625 340.183594 C 207.890625 342.972656 202.851562 345.738281 197.960938 348.761719 C 193.070312 351.78125 188.304688 355.0625 183.984375 358.878906 C 179.667969 362.679688 175.800781 367.058594 172.867188 372.011719 L 173.160156 372.1875 C 176.191406 367.339844 180.109375 363.105469 184.472656 359.441406 C 188.839844 355.773438 193.628906 352.632812 198.550781 349.75 C 208.417969 343.984375 218.871094 339.214844 228.636719 333.027344 C 233.5 329.925781 238.210938 326.460938 242.265625 322.222656 C 246.316406 318.007812 249.632812 312.964844 251.613281 307.390625 C 253.628906 301.820312 254.304688 295.851562 254.078125 290.003906 C 254.019531 288.414062 253.890625 286.828125 253.714844 285.246094 C 256.699219 282.839844 259.632812 280.363281 262.5 277.816406 C 271.128906 270.171875 279.28125 262.019531 287.070312 253.550781 C 294.828125 245.058594 302.320312 235.976562 307.285156 225.246094 C 309.734375 219.902344 311.46875 214.097656 311.792969 208.082031 C 312.144531 202.078125 310.960938 195.957031 308.355469 190.519531 "/></g><path style=" stroke:none;fill-rule:nonzero;fill:#366db3;fill-opacity:1;" d="M 146.863281 318.648438 L 147.453125 316.90625 C 143.6875 316.285156 139.953125 315.484375 136.273438 314.445312 C 125.34375 311.382812 114.914062 306.351562 106.011719 299.261719 C 97.089844 292.207031 89.820312 283.125 84.652344 272.988281 C 74.328125 252.6875 72.070312 228.390625 78.03125 206.484375 C 79.722656 201.082031 82.363281 195.988281 85.714844 191.417969 C 89.042969 186.824219 93.046875 182.738281 97.390625 179.082031 C 106.105469 171.757812 116.0625 166.035156 126.320312 161.085938 C 136.601562 156.152344 147.265625 152.003906 158.042969 148.207031 C 168.820312 144.398438 179.707031 140.878906 190.644531 137.476562 L 207.066406 132.394531 C 212.535156 130.667969 218 128.917969 223.453125 127.113281 C 234.339844 123.480469 245.214844 119.679688 255.75 114.9375 C 261.007812 112.554688 266.191406 109.929688 271.082031 106.753906 C 275.945312 103.585938 280.628906 99.832031 284.023438 94.863281 C 285.699219 92.386719 287 89.597656 287.617188 86.621094 C 288.273438 83.65625 288.191406 80.570312 287.625 77.640625 C 287.019531 74.710938 285.957031 71.921875 284.601562 69.320312 C 283.226562 66.738281 281.78125 64.214844 280.019531 61.867188 C 276.574219 57.167969 272.066406 53.03125 266.59375 50.6875 C 264.921875 49.953125 263.191406 49.421875 261.429688 49.03125 L 260.789062 50.675781 C 262.539062 51.0625 264.242188 51.59375 265.878906 52.332031 C 270.980469 54.558594 275.191406 58.464844 278.46875 63 C 281.675781 67.578125 284.527344 72.640625 285.523438 78.042969 C 286 80.738281 286.019531 83.5 285.390625 86.132812 C 284.796875 88.769531 283.597656 91.253906 282.027344 93.492188 C 278.839844 97.96875 274.375 101.515625 269.660156 104.554688 C 264.914062 107.59375 259.824219 110.128906 254.632812 112.441406 C 244.222656 117.039062 233.398438 120.75 222.523438 124.289062 L 189.75 134.632812 C 167.90625 141.566406 146.007812 148.851562 125.371094 159.160156 C 115.097656 164.335938 105.113281 170.3125 96.390625 177.917969 C 92.042969 181.722656 88.035156 185.945312 84.648438 190.648438 C 81.257812 195.34375 78.585938 200.582031 76.890625 206.132812 C 76.03125 208.90625 75.480469 211.757812 75.015625 214.59375 C 74.558594 217.441406 74.222656 220.304688 74.007812 223.179688 C 73.5625 228.925781 73.671875 234.707031 74.203125 240.441406 C 75.277344 251.90625 78.398438 263.214844 83.605469 273.519531 C 86.21875 278.660156 89.335938 283.558594 92.960938 288.058594 C 96.585938 292.550781 100.679688 296.675781 105.171875 300.308594 C 114.148438 307.613281 124.71875 312.851562 135.804688 316.082031 C 139.441406 317.152344 143.136719 317.984375 146.863281 318.648438 "/><path style=" stroke:none;fill-rule:nonzero;fill:#366db3;fill-opacity:1;" d="M 166.390625 55.136719 C 171.0625 58.527344 176.5 60.886719 182.191406 61.949219 C 187.890625 63.039062 193.75 62.90625 199.460938 62.113281 C 205.179688 61.320312 210.777344 59.90625 216.296875 58.324219 C 221.820312 56.742188 227.277344 54.984375 232.777344 53.441406 C 238.273438 51.902344 243.828125 50.566406 249.457031 50.070312 C 249.628906 50.054688 249.800781 50.050781 249.972656 50.039062 C 250.195312 49.464844 250.421875 48.894531 250.640625 48.324219 C 250.195312 48.355469 249.75 48.378906 249.308594 48.421875 C 248.777344 48.46875 248.246094 48.535156 247.71875 48.601562 L 247.625 48.613281 C 247.042969 48.683594 246.460938 48.765625 245.867188 48.859375 C 245.839844 48.863281 245.816406 48.867188 245.792969 48.867188 C 245.191406 48.964844 244.578125 49.066406 243.941406 49.183594 L 242.847656 49.382812 C 239.300781 50.082031 235.816406 51.027344 232.371094 52.027344 C 226.855469 53.648438 221.417969 55.472656 215.941406 57.113281 C 210.46875 58.753906 204.941406 60.21875 199.308594 61.066406 C 193.691406 61.914062 187.941406 62.117188 182.347656 61.113281 C 176.761719 60.132812 171.410156 57.898438 166.742188 54.636719 C 164.410156 53.003906 162.242188 51.140625 160.21875 49.132812 C 158.195312 47.117188 156.371094 44.914062 154.617188 42.65625 L 154.34375 42.859375 C 156.070312 45.15625 157.867188 47.40625 159.875 49.464844 C 161.890625 51.523438 164.050781 53.441406 166.390625 55.136719 "/><path style=" stroke:none;fill-rule:nonzero;fill:#366db3;fill-opacity:1;" d="M 249.347656 39.160156 C 256.09375 20.625 258.652344 18.734375 260.695312 19.476562 C 262.730469 20.21875 263.476562 23.3125 256.734375 41.847656 C 249.984375 60.382812 238.304688 87.335938 236.265625 86.59375 C 234.734375 86.035156 239.070312 70.039062 244.179688 54.253906 C 242.820312 54.5 241.484375 54.777344 240.175781 55.074219 L 217.277344 122.359375 L 221.492188 121.027344 C 224.628906 120.007812 227.835938 118.941406 231.0625 117.835938 L 268.664062 20.917969 C 270.285156 16.746094 268.15625 12.054688 263.953125 10.523438 C 259.742188 8.996094 255.101562 11.21875 253.660156 15.457031 L 243.328125 45.816406 C 244.605469 45.582031 245.894531 45.378906 247.203125 45.214844 C 247.925781 43.125 248.648438 41.085938 249.347656 39.160156 "/><path style=" stroke:none;fill-rule:nonzero;fill:#366db3;fill-opacity:1;" d="M 224.53125 130.359375 C 221.03125 131.519531 217.375 132.707031 213.316406 134.003906 L 131.382812 374.753906 L 226.453125 129.714844 C 225.8125 129.929688 225.167969 130.148438 224.53125 130.359375 "/></g></svg>