<svg width="60" height="60" viewBox="0 0 60 60" fill="none" xmlns="http://www.w3.org/2000/svg">
<g clip-path="url(#clip0_63_51)">
<path d="M50.3214 60.0232H23.187C23.0521 60.0226 22.9178 60.0159 22.7836 60.0024C22.6499 59.9896 22.5168 59.9695 22.3844 59.9432C22.2526 59.9164 22.1219 59.884 21.9932 59.8444C21.8644 59.8053 21.738 59.7601 21.6135 59.7083C21.489 59.657 21.3676 59.599 21.2491 59.5355C21.1301 59.472 21.0148 59.4031 20.9031 59.328C20.7908 59.2535 20.6827 59.173 20.579 59.0875C20.4746 59.0021 20.3751 58.9117 20.2799 58.8165C20.1847 58.7213 20.0944 58.6218 20.0089 58.5175C19.9235 58.4137 19.8429 58.3057 19.7684 58.1934C19.6934 58.0817 19.6244 57.9663 19.5609 57.8479C19.4974 57.7289 19.4395 57.6074 19.3882 57.4829C19.3363 57.3584 19.2911 57.2321 19.2521 57.1033C19.2124 56.9745 19.1801 56.8439 19.1532 56.712C19.127 56.5796 19.1068 56.4465 19.094 56.3129C19.0806 56.1786 19.0739 56.0443 19.0732 55.9094V12.7527C19.0739 12.6178 19.0806 12.4835 19.094 12.3492C19.1068 12.2156 19.127 12.0825 19.1532 11.9501C19.1801 11.8182 19.2124 11.6876 19.2521 11.5588C19.2911 11.4301 19.3363 11.3037 19.3882 11.1792C19.4395 11.0547 19.4974 10.9332 19.5609 10.8148C19.6244 10.6958 19.6934 10.5804 19.7684 10.4688C19.8429 10.3564 19.9235 10.2484 20.0089 10.1447C20.0944 10.0403 20.1847 9.9408 20.2799 9.84558C20.3751 9.75037 20.4746 9.66003 20.579 9.57459C20.6827 9.48914 20.7908 9.40918 20.9031 9.33411C21.0148 9.25903 21.1301 9.19006 21.2491 9.12659C21.3676 9.06311 21.489 9.00513 21.6135 8.95386C21.738 8.90198 21.8644 8.85681 21.9932 8.81775C22.1219 8.77808 22.2526 8.74573 22.3844 8.71887C22.5168 8.69263 22.6499 8.67249 22.7836 8.65967C22.9178 8.64624 23.0521 8.63953 23.187 8.63892H50.3214C50.4563 8.63953 50.5906 8.64624 50.7249 8.65967C50.8585 8.67249 50.9916 8.69263 51.124 8.71887C51.2559 8.74573 51.3865 8.77808 51.5153 8.81775C51.644 8.85681 51.7704 8.90198 51.8949 8.95386C52.0194 9.00513 52.1409 9.06311 52.2599 9.12659C52.3783 9.19006 52.4937 9.25903 52.606 9.33411C52.7177 9.40918 52.8257 9.48914 52.9294 9.57459C53.0338 9.66003 53.1333 9.75037 53.2285 9.84558C53.3237 9.9408 53.4141 10.0403 53.4995 10.1447C53.585 10.2484 53.6655 10.3564 53.74 10.4688C53.8151 10.5804 53.884 10.6958 53.9475 10.8148C54.011 10.9332 54.069 11.0547 54.1202 11.1792C54.1721 11.3037 54.2173 11.4301 54.257 11.5588C54.296 11.6876 54.329 11.8182 54.3552 11.9501C54.3815 12.0825 54.4016 12.2156 54.415 12.3492C54.4279 12.4835 54.4346 12.6178 54.4352 12.7527V55.9094C54.4346 56.0443 54.4279 56.1786 54.415 56.3129C54.4016 56.4465 54.3815 56.5796 54.3552 56.712C54.329 56.8439 54.296 56.9745 54.257 57.1033C54.2173 57.2321 54.1721 57.3584 54.1202 57.4829C54.069 57.6074 54.011 57.7289 53.9475 57.8479C53.884 57.9663 53.8151 58.0817 53.74 58.1934C53.6655 58.3057 53.585 58.4137 53.4995 58.5175C53.4141 58.6218 53.3237 58.7213 53.2285 58.8165C53.1333 58.9117 53.0338 59.0021 52.9294 59.0875C52.8257 59.173 52.7177 59.2535 52.606 59.328C52.4937 59.4031 52.3783 59.472 52.2599 59.5355C52.1409 59.599 52.0194 59.657 51.8949 59.7083C51.7704 59.7601 51.644 59.8053 51.5153 59.8444C51.3865 59.884 51.2559 59.9164 51.124 59.9432C50.9916 59.9695 50.8585 59.9896 50.7249 60.0024C50.5906 60.0159 50.4563 60.0226 50.3214 60.0232ZM23.187 10.4657C23.0369 10.4657 22.8879 10.4803 22.7408 10.5096C22.5937 10.5396 22.4509 10.5829 22.3124 10.6403C22.1732 10.6982 22.042 10.7684 21.9169 10.8521C21.7924 10.9351 21.677 11.0303 21.5708 11.1365C21.4646 11.2427 21.3694 11.358 21.2864 11.4825C21.2028 11.6077 21.1326 11.7389 21.0746 11.8781C21.0172 12.0166 20.9739 12.1594 20.944 12.3065C20.9147 12.4536 20.9 12.6025 20.9 12.7527V55.9094C20.9 56.0596 20.9147 56.2085 20.944 56.3556C20.9739 56.5027 21.0172 56.6455 21.0746 56.7847C21.1326 56.9232 21.2028 57.0544 21.2864 57.1796C21.3694 57.3041 21.4646 57.42 21.5708 57.5256C21.677 57.6318 21.7924 57.7271 21.9169 57.8101C22.042 57.8937 22.1732 57.9645 22.3124 58.0219C22.4509 58.0792 22.5937 58.1226 22.7408 58.1525C22.8879 58.1818 23.0369 58.1964 23.187 58.1964H50.3214C50.4716 58.1964 50.6205 58.1818 50.7676 58.1525C50.9147 58.1226 51.0575 58.0792 51.1967 58.0219C51.3352 57.9645 51.467 57.8937 51.5916 57.8101C51.7161 57.7271 51.832 57.6318 51.9376 57.5256C52.0438 57.42 52.139 57.3041 52.222 57.1796C52.3057 57.0544 52.3765 56.9232 52.4338 56.7847C52.4912 56.6455 52.5345 56.5027 52.5645 56.3556C52.5938 56.2085 52.6084 56.0596 52.609 55.9094V12.7527C52.6084 12.6025 52.5938 12.4536 52.5645 12.3065C52.5345 12.1594 52.4912 12.0166 52.4338 11.8781C52.3765 11.7389 52.3057 11.6077 52.222 11.4825C52.139 11.358 52.0438 11.2427 51.9376 11.1365C51.832 11.0303 51.7161 10.9351 51.5916 10.8521C51.467 10.7684 51.3352 10.6982 51.1967 10.6403C51.0575 10.5829 50.9147 10.5396 50.7676 10.5096C50.6205 10.4803 50.4716 10.4657 50.3214 10.4657H23.187Z" fill="#366DB3"/>
<path d="M36.7549 42.1876C36.5999 42.1882 36.4546 42.1522 36.3185 42.079C36.1824 42.0057 36.0719 41.9044 35.9871 41.775L31.4369 34.8286C31.3887 34.7542 31.3514 34.6748 31.3264 34.59C31.3008 34.5051 31.2886 34.4185 31.2886 34.3293C31.2886 34.2408 31.3008 34.1542 31.3264 34.0693C31.3514 33.9845 31.3887 33.9045 31.4369 33.8307L35.9913 26.8226C36.0115 26.7903 36.0341 26.7598 36.0585 26.7305C36.0829 26.7012 36.1091 26.6737 36.1372 26.6481C36.1647 26.6218 36.194 26.598 36.2251 26.5754C36.2562 26.5535 36.288 26.5327 36.3215 26.515C36.3551 26.4967 36.3893 26.4802 36.4247 26.4662C36.4601 26.4528 36.4961 26.4406 36.5333 26.4314C36.5699 26.4222 36.6072 26.4149 36.645 26.41C36.6829 26.4052 36.7207 26.4033 36.7592 26.4033C36.797 26.4033 36.8348 26.4052 36.8727 26.41C36.9105 26.4149 36.9478 26.4222 36.985 26.4314C37.0216 26.4406 37.0576 26.4528 37.093 26.4662C37.1284 26.4802 37.1632 26.4967 37.1962 26.515C37.2297 26.5327 37.2621 26.5535 37.2926 26.5754C37.3237 26.598 37.353 26.6218 37.3811 26.6481C37.4086 26.6737 37.4348 26.7012 37.4592 26.7305C37.4836 26.7598 37.5062 26.7903 37.527 26.8226L42.0814 33.8307C42.1296 33.9045 42.1663 33.9845 42.1919 34.0693C42.2169 34.1542 42.2297 34.2408 42.2297 34.3293C42.2297 34.4185 42.2169 34.5051 42.1919 34.59C42.1663 34.6748 42.1296 34.7542 42.0814 34.8286L37.5135 41.775C37.4299 41.9032 37.3207 42.0039 37.1858 42.0772C37.0515 42.1498 36.9075 42.187 36.7549 42.1876ZM33.2905 34.3251L36.7549 39.6089L40.2186 34.3251L36.7549 28.9943L33.2905 34.3251Z" fill="#366DB3"/>
<path d="M47.7321 21.0132C47.5776 21.0138 47.4324 20.9778 47.2963 20.9045C47.1595 20.8313 47.0491 20.73 46.9642 20.6006L44.4569 16.7767C44.4087 16.7029 44.3715 16.6229 44.3464 16.5381C44.3208 16.4532 44.3086 16.3666 44.3086 16.2781C44.3086 16.189 44.3208 16.1023 44.3464 16.0175C44.3715 15.9326 44.4087 15.8533 44.4569 15.7788L46.9642 11.9208C46.985 11.889 47.0076 11.8585 47.032 11.8292C47.0564 11.7999 47.0826 11.7725 47.1101 11.7462C47.1382 11.7206 47.1675 11.6962 47.1986 11.6742C47.2291 11.6516 47.2615 11.6315 47.295 11.6132C47.328 11.5948 47.3628 11.579 47.3982 11.5649C47.4336 11.5509 47.4696 11.5393 47.5068 11.5302C47.5435 11.5204 47.5807 11.5137 47.6185 11.5088C47.6564 11.5039 47.6942 11.5015 47.7321 11.5015C47.7705 11.5015 47.8083 11.5039 47.8462 11.5088C47.884 11.5137 47.9213 11.5204 47.9579 11.5302C47.9951 11.5393 48.0311 11.5509 48.0665 11.5649C48.1019 11.579 48.1361 11.5948 48.1697 11.6132C48.2032 11.6315 48.2356 11.6516 48.2661 11.6742C48.2972 11.6962 48.3265 11.7206 48.354 11.7462C48.3821 11.7725 48.4083 11.7999 48.4327 11.8292C48.4572 11.8585 48.4797 11.889 48.4999 11.9208L51.0054 15.7776C51.0542 15.8521 51.0908 15.9314 51.1158 16.0162C51.1415 16.1011 51.1537 16.1884 51.1537 16.2769C51.1537 16.3654 51.1415 16.452 51.1158 16.5369C51.0908 16.6223 51.0542 16.7017 51.0054 16.7761L48.498 20.5994C48.4132 20.7288 48.3033 20.8301 48.1672 20.9033C48.0317 20.9766 47.8865 21.0132 47.7321 21.0132ZM46.3154 16.2732L47.7321 18.4344L49.1493 16.2732L47.7321 14.0942L46.3154 16.2732Z" fill="#366DB3"/>
<path d="M25.7771 57.1582C25.6221 57.1588 25.4768 57.1222 25.3407 57.049C25.2046 56.9763 25.0941 56.875 25.0093 56.7456L22.5013 52.9218C22.4531 52.8473 22.4165 52.7679 22.3909 52.6831C22.3658 52.5983 22.353 52.5116 22.353 52.4225C22.353 52.334 22.3658 52.2473 22.3909 52.1625C22.4165 52.0776 22.4531 51.9977 22.5013 51.9238L25.0093 48.0646C25.0294 48.0328 25.052 48.0023 25.0764 47.973C25.1008 47.9437 25.1271 47.9163 25.1552 47.89C25.1826 47.8644 25.2119 47.84 25.243 47.818C25.2742 47.7954 25.3059 47.7753 25.3395 47.757C25.373 47.7386 25.4072 47.7228 25.4426 47.7087C25.478 47.6947 25.514 47.6831 25.5513 47.674C25.5879 47.6642 25.6251 47.6575 25.663 47.6526C25.7008 47.6477 25.7386 47.6453 25.7771 47.6453C25.8149 47.6453 25.8528 47.6477 25.8906 47.6526C25.9285 47.6575 25.9657 47.6642 26.0029 47.674C26.0396 47.6831 26.0756 47.6947 26.111 47.7087C26.1464 47.7228 26.1812 47.7386 26.2141 47.757C26.2477 47.7753 26.28 47.7954 26.3105 47.818C26.3417 47.84 26.371 47.8644 26.399 47.89C26.4265 47.9163 26.4528 47.9437 26.4772 47.973C26.5016 48.0023 26.5242 48.0328 26.5449 48.0646L29.0522 51.9226C29.1005 51.9965 29.1377 52.0764 29.1627 52.1613C29.1884 52.2461 29.2006 52.3328 29.2006 52.4219C29.2006 52.5104 29.1884 52.597 29.1627 52.6819C29.1377 52.7667 29.1005 52.8467 29.0522 52.9205L26.5449 56.7456C26.4601 56.875 26.3496 56.9763 26.2129 57.049C26.0768 57.1222 25.9315 57.1588 25.7771 57.1582ZM24.3599 52.4182L25.7771 54.5789L27.1943 52.4182L25.7771 50.2374L24.3599 52.4182Z" fill="#366DB3"/>
<path d="M18.0492 56.0454C17.8039 56.0454 17.5603 56.0235 17.318 55.9814C17.0763 55.9386 16.8401 55.8758 16.6094 55.7921C16.3787 55.7091 16.1565 55.6066 15.9435 55.4851C15.7299 55.3631 15.5291 55.2239 15.3399 55.0677C15.1507 54.9114 14.9761 54.7399 14.8168 54.5531C14.6569 54.367 14.5147 54.168 14.3896 53.9568C14.2638 53.7456 14.1576 53.5253 14.0703 53.2958C13.9837 53.0669 13.9165 52.8313 13.8701 52.5902L5.79215 10.4876C5.7659 10.3503 5.74637 10.2123 5.73416 10.0738C5.72134 9.9346 5.71524 9.79544 5.71646 9.65628C5.71707 9.51651 5.72501 9.37735 5.73965 9.2388C5.7543 9.10025 5.77567 8.96292 5.80374 8.8262C5.83182 8.68948 5.86661 8.5546 5.90811 8.42154C5.94962 8.28848 5.99722 8.15726 6.05154 8.02908C6.10587 7.9003 6.16629 7.77518 6.23282 7.6525C6.29935 7.52982 6.37198 7.4108 6.4501 7.29544C6.52823 7.18008 6.61185 7.069 6.70096 6.96158C6.79068 6.85477 6.88467 6.75223 6.98416 6.65396C7.08304 6.55631 7.1868 6.46353 7.29544 6.37564C7.40408 6.28775 7.51639 6.20596 7.63297 6.12906C7.74954 6.05277 7.86917 5.98196 7.99246 5.91666C8.11636 5.85196 8.2421 5.79337 8.37149 5.74088C8.50089 5.68839 8.63211 5.64261 8.76578 5.60294C8.89944 5.56326 9.03494 5.5303 9.17166 5.50406L35.5388 0.446076C35.6762 0.420441 35.8141 0.40091 35.9527 0.388093C36.0912 0.375886 36.2304 0.369782 36.3701 0.371003C36.5093 0.372224 36.6485 0.380158 36.787 0.394807C36.9256 0.409455 37.0635 0.430817 37.1996 0.459504C37.3363 0.48758 37.4712 0.52237 37.6043 0.563874C37.7373 0.605378 37.868 0.652985 37.9961 0.707307C38.1249 0.761628 38.25 0.822053 38.3727 0.888581C38.4954 0.955109 38.6138 1.02774 38.7292 1.10587C38.8445 1.18399 38.9562 1.26761 39.063 1.35672C39.1704 1.44583 39.273 1.54044 39.3706 1.63931C39.4689 1.7388 39.5617 1.84256 39.6496 1.95059C39.7368 2.05924 39.8192 2.17154 39.8961 2.28751C39.9724 2.40408 40.0432 2.52432 40.1086 2.64761C40.1732 2.77091 40.2318 2.89664 40.2849 3.02603C40.3374 3.15543 40.3832 3.28665 40.4229 3.42032C40.4626 3.55399 40.4955 3.68887 40.5224 3.82559L41.5887 9.3804C41.6009 9.44632 41.6064 9.51346 41.6045 9.5806C41.6021 9.64774 41.5929 9.71365 41.5764 9.77896C41.5594 9.84427 41.5362 9.90653 41.5056 9.96695C41.4751 10.0268 41.4385 10.0823 41.3952 10.1342C41.3524 10.1861 41.3048 10.2325 41.2511 10.274C41.198 10.3155 41.1413 10.3503 41.0802 10.3789C41.0192 10.407 40.9563 10.429 40.8904 10.4436C40.8251 10.4583 40.7586 10.4656 40.6914 10.4656H23.3306C23.1713 10.4656 23.0132 10.4815 22.8564 10.5126C22.7001 10.5437 22.5481 10.5901 22.401 10.6512C22.2533 10.7122 22.1136 10.7873 21.9811 10.8758C21.8481 10.9649 21.7254 11.0656 21.6131 11.1785C21.5002 11.2908 21.3994 11.4135 21.3103 11.5465C21.2218 11.679 21.1468 11.8188 21.0857 11.9665C21.0247 12.1136 20.9783 12.2655 20.9472 12.4218C20.916 12.5786 20.9002 12.7367 20.9002 12.896V54.8217C20.9002 54.9279 20.8819 55.031 20.8465 55.1311C20.8105 55.2306 20.7586 55.3216 20.6908 55.404C20.6231 55.4857 20.5437 55.5535 20.4522 55.6078C20.3606 55.6615 20.263 55.6988 20.1586 55.7189L18.8531 55.9685C18.5876 56.0198 18.3196 56.0454 18.0492 56.0454ZM36.3409 2.19351C36.1864 2.19351 36.0338 2.20816 35.8825 2.23746L9.51651 7.29727C9.35965 7.32779 9.20706 7.37296 9.05936 7.43277C8.91165 7.49258 8.77066 7.56644 8.6376 7.65433C8.50455 7.74222 8.38065 7.84232 8.26712 7.95401C8.1536 8.06632 8.05167 8.18839 7.96256 8.32083C7.87283 8.45267 7.79715 8.59244 7.73489 8.73953C7.67264 8.88663 7.62564 9.038 7.59329 9.19425C7.56094 9.3505 7.54446 9.50858 7.54324 9.66849C7.54263 9.82779 7.55667 9.98587 7.58719 10.1427L15.6634 52.246C15.6939 52.4029 15.739 52.5548 15.7989 52.7025C15.8593 52.8503 15.9331 52.9906 16.021 53.1243C16.1089 53.2574 16.209 53.3806 16.3207 53.4942C16.433 53.6077 16.5551 53.7096 16.6869 53.7987C16.8194 53.8885 16.9585 53.9641 17.1056 54.0264C17.2527 54.0887 17.4041 54.1357 17.5603 54.168C17.7166 54.2003 17.8747 54.2168 18.034 54.218C18.1939 54.2199 18.352 54.2052 18.5088 54.1753L19.0734 54.0655V12.896C19.074 12.7569 19.0807 12.6177 19.0948 12.4792C19.1082 12.34 19.1289 12.2027 19.1564 12.0659C19.1839 11.9292 19.2174 11.7943 19.2583 11.6607C19.2986 11.5276 19.3456 11.3964 19.3993 11.2676C19.4524 11.1388 19.5122 11.0131 19.5782 10.8904C19.6435 10.7677 19.7155 10.6481 19.793 10.5321C19.8699 10.4162 19.9529 10.3045 20.0414 10.1971C20.1299 10.089 20.2233 9.98587 20.3222 9.8876C20.4204 9.78873 20.5236 9.69534 20.6316 9.60684C20.739 9.51834 20.8507 9.43533 20.9667 9.35843C21.0827 9.28092 21.2023 9.20889 21.325 9.14359C21.4477 9.07767 21.5734 9.01785 21.7022 8.96475C21.831 8.91104 21.9622 8.86405 22.0952 8.82376C22.2289 8.78287 22.3638 8.7493 22.5005 8.72183C22.6372 8.69437 22.7746 8.67362 22.9137 8.66019C23.0523 8.64615 23.1914 8.63944 23.3306 8.63883H39.5855L38.7279 4.168C38.7011 4.03067 38.6632 3.89578 38.6132 3.76517C38.5638 3.63394 38.5027 3.5076 38.4313 3.38736C38.3599 3.26651 38.2787 3.15299 38.1878 3.04617C38.0962 2.93997 37.9967 2.84171 37.8887 2.75259C37.7807 2.66287 37.6659 2.58353 37.5439 2.51395C37.4224 2.44437 37.2954 2.38577 37.1636 2.33817C37.0318 2.29056 36.8963 2.25455 36.7583 2.23074C36.6204 2.20633 36.4812 2.19412 36.3409 2.19351Z" fill="#366DB3"/>
</g>
<defs>
<clipPath id="clip0_63_51">
<rect width="60" height="60" fill="white"/>
</clipPath>
</defs>
</svg>
