<svg xmlns="http://www.w3.org/2000/svg" xmlns:xlink="http://www.w3.org/1999/xlink" width="512" zoomAndPan="magnify" viewBox="0 0 384 383.999986" height="512" preserveAspectRatio="xMidYMid meet" version="1.2"><defs><clipPath id="eb8c7d8602"><path d="M 200.335938 174.894531 L 212.335938 174.894531 L 212.335938 179.394531 L 200.335938 179.394531 Z M 200.335938 174.894531 "/></clipPath></defs><g id="98d4c9f073"><g clip-rule="nonzero" clip-path="url(#eb8c7d8602)"><path style=" stroke:none;fill-rule:nonzero;fill:#000000;fill-opacity:1;" d="M 203.105469 178.171875 C 203.097656 178.140625 203.089844 178.109375 203.078125 178.078125 C 203.054688 178.007812 203.03125 177.9375 203.007812 177.867188 C 203 177.84375 202.988281 177.820312 202.980469 177.796875 C 202.960938 177.757812 202.953125 177.71875 202.949219 177.675781 C 202.945312 177.625 202.941406 177.570312 202.941406 177.519531 C 202.941406 177.480469 202.945312 177.441406 202.949219 177.398438 C 202.957031 177.347656 202.964844 177.292969 202.984375 177.242188 C 203 177.191406 203.019531 177.144531 203.039062 177.09375 C 203.042969 177.085938 203.046875 177.078125 203.050781 177.070312 C 203.089844 177.019531 203.128906 176.972656 203.167969 176.921875 C 203.148438 176.914062 203.128906 176.902344 203.105469 176.894531 C 203.046875 176.871094 202.988281 176.847656 202.929688 176.820312 C 202.871094 176.796875 202.824219 176.761719 202.78125 176.71875 C 202.757812 176.691406 202.730469 176.664062 202.707031 176.640625 C 202.671875 176.605469 202.628906 176.585938 202.585938 176.566406 C 202.527344 176.539062 202.46875 176.511719 202.410156 176.488281 C 202.394531 176.484375 202.382812 176.480469 202.371094 176.476562 C 202.359375 176.476562 202.347656 176.476562 202.339844 176.480469 C 202.316406 176.492188 202.296875 176.503906 202.273438 176.515625 C 202.257812 176.523438 202.242188 176.527344 202.226562 176.527344 C 202.214844 176.527344 202.199219 176.535156 202.1875 176.539062 C 202.160156 176.550781 202.132812 176.566406 202.101562 176.582031 C 202.09375 176.585938 202.082031 176.585938 202.070312 176.589844 C 202.058594 176.589844 202.050781 176.582031 202.042969 176.574219 C 202.039062 176.566406 202.039062 176.554688 202.046875 176.546875 C 202.0625 176.527344 202.082031 176.515625 202.105469 176.507812 C 202.121094 176.5 202.140625 176.492188 202.15625 176.484375 C 202.140625 176.445312 202.109375 176.425781 202.066406 176.429688 C 202.023438 176.429688 201.980469 176.4375 201.9375 176.441406 C 201.914062 176.445312 201.890625 176.441406 201.871094 176.429688 C 201.855469 176.421875 201.847656 176.414062 201.851562 176.394531 C 201.90625 176.390625 201.964844 176.390625 202.027344 176.375 C 202.007812 176.367188 201.996094 176.355469 201.980469 176.347656 C 201.960938 176.335938 201.945312 176.328125 201.929688 176.316406 C 201.914062 176.304688 201.902344 176.292969 201.890625 176.28125 C 201.878906 176.269531 201.878906 176.257812 201.886719 176.242188 C 201.90625 176.246094 201.921875 176.257812 201.9375 176.265625 C 201.980469 176.300781 202.035156 176.320312 202.085938 176.347656 C 202.101562 176.355469 202.117188 176.355469 202.132812 176.351562 C 202.148438 176.34375 202.160156 176.339844 202.179688 176.332031 C 202.171875 176.328125 202.167969 176.324219 202.160156 176.320312 C 202.144531 176.3125 202.128906 176.304688 202.117188 176.296875 C 202.089844 176.285156 202.082031 176.269531 202.089844 176.242188 C 202.105469 176.246094 202.121094 176.25 202.136719 176.253906 C 202.160156 176.261719 202.179688 176.265625 202.199219 176.28125 C 202.214844 176.296875 202.238281 176.3125 202.257812 176.320312 C 202.277344 176.328125 202.296875 176.328125 202.316406 176.332031 C 202.355469 176.335938 202.390625 176.335938 202.429688 176.339844 C 202.441406 176.339844 202.453125 176.347656 202.46875 176.351562 C 202.554688 176.375 202.636719 176.410156 202.714844 176.449219 C 202.792969 176.484375 202.871094 176.523438 202.945312 176.558594 C 203.007812 176.589844 203.066406 176.621094 203.128906 176.644531 C 203.199219 176.675781 203.273438 176.703125 203.34375 176.730469 C 203.355469 176.734375 203.363281 176.734375 203.375 176.738281 C 203.398438 176.738281 203.414062 176.734375 203.425781 176.710938 C 203.4375 176.691406 203.453125 176.671875 203.472656 176.652344 C 203.5 176.617188 203.53125 176.585938 203.5625 176.554688 C 203.589844 176.523438 203.605469 176.488281 203.609375 176.449219 C 203.613281 176.433594 203.609375 176.414062 203.613281 176.398438 C 203.613281 176.378906 203.617188 176.359375 203.621094 176.339844 C 203.625 176.320312 203.648438 176.304688 203.671875 176.308594 C 203.691406 176.308594 203.707031 176.308594 203.714844 176.296875 C 203.71875 176.292969 203.722656 176.292969 203.722656 176.292969 C 203.75 176.292969 203.773438 176.269531 203.804688 176.277344 C 203.808594 176.277344 203.8125 176.277344 203.8125 176.277344 C 203.820312 176.265625 203.828125 176.253906 203.835938 176.246094 C 203.851562 176.226562 203.859375 176.226562 203.882812 176.242188 C 203.914062 176.261719 203.941406 176.285156 203.972656 176.308594 C 203.992188 176.320312 204.015625 176.328125 204.039062 176.3125 C 204.046875 176.308594 204.058594 176.308594 204.070312 176.3125 C 204.113281 176.335938 204.164062 176.359375 204.199219 176.390625 C 204.222656 176.410156 204.238281 176.4375 204.257812 176.460938 C 204.265625 176.464844 204.269531 176.472656 204.273438 176.480469 C 204.359375 176.445312 204.445312 176.410156 204.523438 176.363281 C 204.617188 176.308594 204.714844 176.25 204.808594 176.195312 C 204.839844 176.175781 204.871094 176.160156 204.902344 176.140625 C 204.910156 176.140625 204.914062 176.136719 204.917969 176.132812 C 204.941406 176.128906 204.945312 176.128906 204.957031 176.148438 C 205.109375 176.0625 205.257812 175.976562 205.410156 175.890625 C 205.394531 175.871094 205.378906 175.855469 205.363281 175.839844 C 205.398438 175.78125 205.453125 175.75 205.515625 175.726562 C 205.578125 175.703125 205.644531 175.6875 205.710938 175.679688 C 205.761719 175.675781 205.8125 175.667969 205.863281 175.664062 C 205.902344 175.660156 205.941406 175.65625 205.984375 175.65625 C 206.0625 175.652344 206.140625 175.648438 206.21875 175.648438 C 206.230469 175.648438 206.234375 175.644531 206.238281 175.636719 C 206.265625 175.59375 206.292969 175.554688 206.320312 175.515625 C 206.359375 175.460938 206.40625 175.410156 206.453125 175.363281 C 206.507812 175.308594 206.5625 175.261719 206.625 175.21875 C 206.730469 175.140625 206.84375 175.078125 206.96875 175.027344 C 207.066406 174.984375 207.171875 174.953125 207.277344 174.929688 C 207.375 174.90625 207.476562 174.894531 207.578125 174.90625 C 207.671875 174.914062 207.765625 174.933594 207.847656 174.976562 C 207.890625 175 207.929688 175.027344 207.960938 175.0625 C 207.988281 175.09375 207.996094 175.128906 207.996094 175.164062 C 207.992188 175.203125 208.003906 175.242188 208.007812 175.277344 C 208.011719 175.308594 208.011719 175.339844 208.011719 175.371094 C 208.011719 175.410156 207.996094 175.441406 207.972656 175.46875 C 207.925781 175.523438 207.875 175.570312 207.808594 175.605469 C 207.757812 175.632812 207.699219 175.648438 207.640625 175.664062 C 207.582031 175.675781 207.527344 175.683594 207.46875 175.695312 C 207.417969 175.703125 207.367188 175.707031 207.316406 175.710938 C 207.273438 175.71875 207.230469 175.71875 207.1875 175.722656 C 207.121094 175.726562 207.054688 175.730469 206.988281 175.734375 C 206.96875 175.738281 206.949219 175.738281 206.925781 175.738281 C 206.808594 175.738281 206.6875 175.742188 206.570312 175.742188 C 206.503906 175.746094 206.441406 175.746094 206.378906 175.75 C 206.375 175.75 206.371094 175.75 206.363281 175.75 C 206.382812 175.761719 206.398438 175.769531 206.414062 175.78125 C 206.496094 175.820312 206.582031 175.847656 206.671875 175.871094 C 206.753906 175.890625 206.835938 175.910156 206.917969 175.929688 C 206.988281 175.945312 207.058594 175.957031 207.128906 175.972656 C 207.1875 175.984375 207.242188 175.996094 207.296875 176.003906 C 207.347656 176.015625 207.398438 176.023438 207.445312 176.03125 C 207.523438 176.046875 207.601562 176.0625 207.675781 176.078125 C 207.753906 176.09375 207.832031 176.109375 207.910156 176.128906 C 208.070312 176.167969 208.230469 176.210938 208.382812 176.277344 C 208.445312 176.304688 208.507812 176.335938 208.558594 176.382812 C 208.558594 176.382812 208.5625 176.386719 208.566406 176.390625 C 208.601562 176.367188 208.636719 176.34375 208.671875 176.320312 C 208.757812 176.261719 208.84375 176.203125 208.929688 176.140625 C 209.035156 176.0625 209.140625 175.980469 209.246094 175.902344 C 209.320312 175.84375 209.394531 175.785156 209.472656 175.726562 C 209.550781 175.664062 209.628906 175.605469 209.707031 175.542969 C 209.792969 175.480469 209.882812 175.417969 209.96875 175.355469 C 210.058594 175.292969 210.15625 175.230469 210.253906 175.175781 C 210.320312 175.136719 210.390625 175.101562 210.460938 175.0625 C 210.515625 175.035156 210.570312 175.015625 210.632812 174.996094 C 210.703125 174.976562 210.773438 174.96875 210.847656 174.976562 C 210.878906 174.980469 210.910156 174.980469 210.9375 174.984375 C 211.011719 174.992188 211.074219 175.019531 211.121094 175.074219 C 211.144531 175.101562 211.171875 175.132812 211.191406 175.164062 C 211.207031 175.1875 211.226562 175.207031 211.246094 175.230469 C 211.292969 175.277344 211.324219 175.332031 211.335938 175.398438 C 211.34375 175.429688 211.339844 175.460938 211.332031 175.488281 C 211.320312 175.546875 211.308594 175.601562 211.289062 175.652344 C 211.257812 175.746094 211.207031 175.828125 211.148438 175.90625 C 211.097656 175.972656 211.039062 176.039062 210.972656 176.097656 C 210.898438 176.164062 210.8125 176.21875 210.71875 176.265625 C 210.671875 176.289062 210.621094 176.308594 210.574219 176.328125 C 210.570312 176.328125 210.566406 176.332031 210.554688 176.335938 C 210.582031 176.339844 210.605469 176.347656 210.628906 176.351562 C 210.664062 176.355469 210.699219 176.363281 210.734375 176.371094 C 210.75 176.375 210.761719 176.371094 210.773438 176.363281 C 210.800781 176.34375 210.824219 176.324219 210.851562 176.304688 C 210.902344 176.261719 210.957031 176.21875 211.011719 176.179688 C 211.074219 176.128906 211.140625 176.082031 211.203125 176.035156 C 211.269531 175.988281 211.335938 175.941406 211.402344 175.894531 C 211.476562 175.84375 211.554688 175.796875 211.636719 175.757812 C 211.707031 175.71875 211.773438 175.683594 211.851562 175.664062 C 211.871094 175.660156 211.894531 175.65625 211.914062 175.652344 C 211.96875 175.648438 212.023438 175.652344 212.078125 175.660156 C 212.140625 175.667969 212.1875 175.695312 212.222656 175.742188 C 212.257812 175.78125 212.289062 175.824219 212.304688 175.871094 C 212.316406 175.902344 212.324219 175.933594 212.328125 175.964844 C 212.332031 176.046875 212.296875 176.113281 212.242188 176.175781 C 212.210938 176.214844 212.171875 176.253906 212.132812 176.289062 C 212.066406 176.347656 211.992188 176.394531 211.910156 176.433594 C 211.828125 176.476562 211.738281 176.507812 211.648438 176.527344 C 211.574219 176.542969 211.5 176.558594 211.421875 176.558594 C 211.355469 176.5625 211.289062 176.5625 211.21875 176.5625 C 211.179688 176.5625 211.136719 176.558594 211.09375 176.550781 C 211.042969 176.546875 210.988281 176.539062 210.9375 176.53125 C 210.882812 176.519531 210.832031 176.507812 210.777344 176.496094 C 210.773438 176.5 210.765625 176.503906 210.757812 176.507812 C 210.695312 176.554688 210.636719 176.605469 210.570312 176.652344 C 210.503906 176.703125 210.433594 176.753906 210.363281 176.804688 C 210.292969 176.851562 210.214844 176.898438 210.136719 176.933594 C 210.078125 176.957031 210.015625 176.976562 209.949219 176.976562 C 209.925781 176.976562 209.902344 176.972656 209.878906 176.96875 C 209.871094 176.933594 209.875 176.902344 209.882812 176.871094 C 209.910156 176.867188 209.933594 176.867188 209.957031 176.863281 C 210.023438 176.851562 210.085938 176.828125 210.144531 176.800781 C 210.25 176.746094 210.34375 176.683594 210.4375 176.613281 C 210.503906 176.566406 210.566406 176.519531 210.628906 176.472656 C 210.632812 176.46875 210.636719 176.46875 210.640625 176.460938 C 210.636719 176.460938 210.632812 176.457031 210.628906 176.457031 C 210.566406 176.433594 210.5 176.414062 210.4375 176.390625 C 210.410156 176.382812 210.390625 176.382812 210.367188 176.390625 C 210.296875 176.402344 210.230469 176.417969 210.160156 176.429688 C 210.089844 176.4375 210.019531 176.441406 209.945312 176.449219 C 209.820312 176.460938 209.691406 176.460938 209.5625 176.460938 C 209.539062 176.460938 209.515625 176.457031 209.492188 176.445312 C 209.460938 176.433594 209.425781 176.421875 209.390625 176.40625 C 209.359375 176.390625 209.328125 176.367188 209.304688 176.335938 C 209.285156 176.304688 209.289062 176.265625 209.3125 176.238281 C 209.332031 176.21875 209.351562 176.203125 209.375 176.195312 C 209.429688 176.171875 209.488281 176.160156 209.546875 176.15625 C 209.582031 176.152344 209.613281 176.152344 209.648438 176.152344 C 209.710938 176.148438 209.773438 176.15625 209.835938 176.164062 C 209.902344 176.171875 209.96875 176.179688 210.035156 176.195312 C 210.105469 176.210938 210.167969 176.238281 210.234375 176.265625 C 210.261719 176.273438 210.292969 176.28125 210.320312 176.285156 C 210.328125 176.289062 210.335938 176.285156 210.34375 176.28125 C 210.46875 176.238281 210.585938 176.183594 210.695312 176.113281 C 210.789062 176.054688 210.875 175.988281 210.953125 175.910156 C 211.027344 175.839844 211.097656 175.761719 211.148438 175.671875 C 211.1875 175.601562 211.21875 175.53125 211.230469 175.453125 C 211.242188 175.386719 211.238281 175.316406 211.226562 175.25 C 211.222656 175.234375 211.214844 175.21875 211.199219 175.210938 C 211.140625 175.175781 211.082031 175.152344 211.015625 175.140625 C 210.933594 175.128906 210.855469 175.136719 210.777344 175.152344 C 210.660156 175.175781 210.554688 175.214844 210.449219 175.265625 C 210.292969 175.335938 210.144531 175.421875 210.003906 175.515625 C 209.917969 175.574219 209.832031 175.632812 209.746094 175.691406 C 209.675781 175.742188 209.605469 175.796875 209.535156 175.847656 C 209.480469 175.890625 209.425781 175.929688 209.375 175.972656 C 209.3125 176.019531 209.257812 176.066406 209.195312 176.113281 C 209.097656 176.1875 209 176.265625 208.898438 176.339844 C 208.824219 176.394531 208.742188 176.445312 208.664062 176.5 C 208.660156 176.503906 208.660156 176.503906 208.65625 176.507812 C 208.671875 176.542969 208.683594 176.578125 208.679688 176.617188 C 208.679688 176.648438 208.671875 176.683594 208.65625 176.714844 C 208.640625 176.753906 208.628906 176.792969 208.617188 176.835938 C 208.613281 176.84375 208.613281 176.847656 208.609375 176.855469 C 208.597656 176.890625 208.574219 176.910156 208.535156 176.921875 C 208.464844 176.941406 208.390625 176.957031 208.316406 176.949219 C 208.210938 176.941406 208.125 176.902344 208.074219 176.8125 C 208.046875 176.769531 208.039062 176.71875 208.050781 176.667969 C 208.058594 176.632812 208.070312 176.597656 208.089844 176.566406 C 208.097656 176.550781 208.105469 176.546875 208.121094 176.546875 C 208.226562 176.546875 208.324219 176.515625 208.417969 176.46875 C 208.417969 176.46875 208.417969 176.464844 208.421875 176.464844 C 208.402344 176.453125 208.382812 176.4375 208.363281 176.425781 C 208.261719 176.371094 208.160156 176.332031 208.050781 176.292969 C 207.945312 176.257812 207.835938 176.226562 207.726562 176.199219 C 207.652344 176.183594 207.578125 176.167969 207.503906 176.152344 C 207.429688 176.136719 207.355469 176.121094 207.28125 176.105469 C 207.21875 176.09375 207.152344 176.082031 207.085938 176.070312 C 207.035156 176.0625 206.984375 176.050781 206.933594 176.039062 C 206.84375 176.023438 206.753906 176.003906 206.664062 175.984375 C 206.558594 175.957031 206.453125 175.929688 206.355469 175.882812 C 206.292969 175.851562 206.234375 175.820312 206.191406 175.761719 C 206.1875 175.753906 206.179688 175.753906 206.171875 175.753906 C 206.105469 175.757812 206.042969 175.761719 205.976562 175.765625 C 205.902344 175.769531 205.832031 175.777344 205.757812 175.785156 C 205.699219 175.796875 205.644531 175.808594 205.589844 175.828125 C 205.566406 175.835938 205.542969 175.851562 205.523438 175.863281 C 205.386719 175.941406 205.253906 176.023438 205.121094 176.101562 C 205.027344 176.15625 204.933594 176.210938 204.839844 176.269531 C 204.839844 176.269531 204.835938 176.273438 204.828125 176.277344 C 204.847656 176.289062 204.867188 176.296875 204.886719 176.304688 C 204.917969 176.316406 204.945312 176.324219 204.976562 176.339844 C 205.007812 176.355469 205.007812 176.375 204.976562 176.394531 C 204.957031 176.40625 204.9375 176.40625 204.917969 176.398438 C 204.886719 176.394531 204.859375 176.402344 204.828125 176.414062 C 204.796875 176.429688 204.765625 176.441406 204.730469 176.453125 C 204.722656 176.457031 204.710938 176.457031 204.699219 176.453125 C 204.679688 176.453125 204.664062 176.457031 204.648438 176.46875 C 204.605469 176.496094 204.566406 176.523438 204.527344 176.554688 C 204.46875 176.59375 204.40625 176.636719 204.347656 176.679688 C 204.339844 176.683594 204.332031 176.6875 204.324219 176.691406 C 204.316406 176.695312 204.308594 176.703125 204.308594 176.710938 C 204.308594 176.738281 204.296875 176.761719 204.285156 176.785156 C 204.292969 176.808594 204.304688 176.824219 204.3125 176.84375 C 204.316406 176.867188 204.3125 176.890625 204.308594 176.910156 C 204.296875 176.941406 204.269531 176.960938 204.234375 176.96875 C 204.191406 176.976562 204.152344 176.972656 204.117188 176.949219 C 204.109375 176.945312 204.097656 176.945312 204.085938 176.949219 C 204.035156 176.960938 203.984375 176.960938 203.929688 176.941406 C 203.914062 176.9375 203.898438 176.933594 203.878906 176.929688 C 203.867188 176.921875 203.847656 176.921875 203.847656 176.898438 C 203.847656 176.898438 203.839844 176.894531 203.839844 176.890625 C 203.832031 176.882812 203.824219 176.878906 203.816406 176.867188 C 203.808594 176.871094 203.804688 176.875 203.808594 176.886719 C 203.8125 176.894531 203.816406 176.90625 203.820312 176.914062 C 203.835938 176.960938 203.832031 177.003906 203.824219 177.050781 C 203.8125 177.152344 203.78125 177.25 203.75 177.347656 C 203.738281 177.390625 203.722656 177.433594 203.710938 177.476562 C 203.699219 177.519531 203.691406 177.5625 203.695312 177.605469 C 203.695312 177.621094 203.695312 177.632812 203.695312 177.648438 C 203.691406 177.675781 203.703125 177.695312 203.71875 177.71875 C 203.71875 177.722656 203.722656 177.726562 203.726562 177.734375 C 203.738281 177.757812 203.757812 177.765625 203.78125 177.765625 C 203.832031 177.773438 203.878906 177.789062 203.921875 177.8125 C 203.972656 177.835938 204.015625 177.871094 204.0625 177.90625 C 204.082031 177.921875 204.105469 177.941406 204.128906 177.960938 C 204.148438 177.976562 204.171875 177.976562 204.195312 177.980469 C 204.222656 177.980469 204.25 177.984375 204.28125 177.984375 C 204.3125 177.984375 204.34375 177.980469 204.378906 177.976562 C 204.445312 177.96875 204.515625 177.957031 204.582031 177.949219 C 204.589844 177.945312 204.59375 177.945312 204.601562 177.945312 C 204.652344 177.941406 204.703125 177.941406 204.753906 177.9375 C 204.792969 177.933594 204.832031 177.929688 204.867188 177.921875 C 204.929688 177.914062 204.984375 177.902344 205.042969 177.886719 C 205.074219 177.875 205.09375 177.855469 205.105469 177.828125 C 205.121094 177.789062 205.140625 177.753906 205.160156 177.714844 C 205.191406 177.652344 205.238281 177.601562 205.300781 177.558594 C 205.371094 177.507812 205.4375 177.457031 205.507812 177.40625 C 205.550781 177.378906 205.589844 177.351562 205.632812 177.324219 C 205.695312 177.28125 205.753906 177.238281 205.796875 177.179688 C 205.8125 177.164062 205.828125 177.148438 205.84375 177.128906 C 205.847656 177.121094 205.851562 177.113281 205.851562 177.101562 C 205.847656 177.082031 205.847656 177.058594 205.84375 177.035156 C 205.832031 176.972656 205.871094 176.929688 205.941406 176.929688 C 205.988281 176.925781 206.039062 176.929688 206.085938 176.925781 C 206.101562 176.925781 206.121094 176.925781 206.132812 176.917969 C 206.171875 176.910156 206.199219 176.890625 206.230469 176.867188 C 206.234375 176.859375 206.242188 176.851562 206.246094 176.84375 C 206.261719 176.820312 206.277344 176.796875 206.292969 176.773438 C 206.300781 176.757812 206.308594 176.742188 206.316406 176.730469 C 206.324219 176.710938 206.339844 176.699219 206.359375 176.6875 C 206.375 176.683594 206.382812 176.683594 206.394531 176.695312 C 206.421875 176.722656 206.433594 176.757812 206.429688 176.796875 C 206.429688 176.816406 206.425781 176.839844 206.425781 176.859375 C 206.421875 176.875 206.417969 176.886719 206.40625 176.898438 C 206.378906 176.9375 206.347656 176.976562 206.320312 177.011719 C 206.308594 177.027344 206.296875 177.042969 206.289062 177.058594 C 206.265625 177.101562 206.230469 177.132812 206.191406 177.164062 C 206.144531 177.207031 206.09375 177.246094 206.046875 177.285156 C 205.996094 177.328125 205.949219 177.367188 205.902344 177.410156 C 205.867188 177.445312 205.835938 177.480469 205.800781 177.511719 C 205.757812 177.554688 205.726562 177.601562 205.691406 177.648438 C 205.664062 177.679688 205.632812 177.710938 205.605469 177.746094 C 205.535156 177.824219 205.472656 177.902344 205.414062 177.988281 C 205.371094 178.046875 205.324219 178.105469 205.28125 178.164062 C 205.269531 178.183594 205.25 178.195312 205.226562 178.199219 C 205.164062 178.210938 205.101562 178.234375 205.039062 178.253906 C 204.976562 178.273438 204.910156 178.292969 204.84375 178.304688 C 204.800781 178.3125 204.753906 178.320312 204.710938 178.328125 C 204.679688 178.332031 204.648438 178.335938 204.617188 178.339844 C 204.589844 178.339844 204.566406 178.34375 204.539062 178.347656 C 204.480469 178.351562 204.421875 178.359375 204.359375 178.367188 C 204.316406 178.371094 204.269531 178.378906 204.222656 178.386719 C 204.140625 178.402344 204.0625 178.421875 203.976562 178.425781 C 203.953125 178.425781 203.925781 178.425781 203.898438 178.421875 C 203.878906 178.421875 203.855469 178.421875 203.835938 178.433594 C 203.792969 178.453125 203.746094 178.464844 203.695312 178.480469 C 203.664062 178.488281 203.628906 178.503906 203.597656 178.519531 C 203.554688 178.539062 203.511719 178.558594 203.46875 178.582031 C 203.445312 178.59375 203.417969 178.601562 203.390625 178.613281 C 203.320312 178.640625 203.246094 178.667969 203.171875 178.695312 C 203.078125 178.730469 202.980469 178.765625 202.882812 178.792969 C 202.78125 178.824219 202.679688 178.859375 202.582031 178.898438 C 202.5 178.933594 202.410156 178.960938 202.324219 178.992188 C 202.300781 179 202.273438 179.011719 202.25 179.023438 C 202.160156 179.070312 202.070312 179.117188 201.980469 179.160156 C 201.949219 179.175781 201.910156 179.183594 201.878906 179.191406 C 201.871094 179.195312 201.863281 179.195312 201.855469 179.195312 C 201.769531 179.191406 201.683594 179.195312 201.597656 179.203125 C 201.546875 179.210938 201.496094 179.214844 201.445312 179.210938 C 201.351562 179.210938 201.265625 179.222656 201.175781 179.25 C 201.164062 179.253906 201.152344 179.257812 201.136719 179.261719 C 201.097656 179.273438 201.066406 179.296875 201.046875 179.335938 C 201.027344 179.378906 200.988281 179.390625 200.9375 179.386719 C 200.90625 179.382812 200.878906 179.367188 200.851562 179.351562 C 200.828125 179.339844 200.800781 179.328125 200.777344 179.3125 C 200.753906 179.300781 200.726562 179.296875 200.699219 179.300781 C 200.628906 179.316406 200.558594 179.332031 200.488281 179.351562 C 200.472656 179.355469 200.460938 179.363281 200.449219 179.371094 C 200.421875 179.394531 200.390625 179.394531 200.355469 179.394531 C 200.34375 179.394531 200.339844 179.386719 200.339844 179.378906 C 200.339844 179.363281 200.335938 179.347656 200.347656 179.335938 C 200.363281 179.308594 200.375 179.285156 200.394531 179.257812 C 200.414062 179.234375 200.441406 179.214844 200.472656 179.199219 C 200.570312 179.15625 200.667969 179.113281 200.765625 179.074219 C 200.804688 179.054688 200.851562 179.046875 200.898438 179.039062 C 200.949219 179.03125 201 179.023438 201.050781 179.019531 C 201.097656 179.015625 201.148438 179.015625 201.195312 179.015625 C 201.222656 179.011719 201.246094 179.015625 201.269531 179.011719 C 201.34375 179 201.417969 178.976562 201.488281 178.949219 C 201.5625 178.921875 201.632812 178.898438 201.707031 178.875 C 201.753906 178.859375 201.808594 178.851562 201.859375 178.839844 C 201.871094 178.835938 201.886719 178.832031 201.902344 178.828125 C 201.9375 178.816406 201.976562 178.808594 202.007812 178.796875 C 202.050781 178.78125 202.089844 178.761719 202.128906 178.746094 C 202.175781 178.722656 202.222656 178.703125 202.269531 178.679688 C 202.296875 178.667969 202.320312 178.652344 202.347656 178.640625 C 202.363281 178.632812 202.375 178.625 202.390625 178.621094 C 202.429688 178.613281 202.460938 178.589844 202.488281 178.5625 C 202.550781 178.5 202.613281 178.4375 202.679688 178.382812 C 202.75 178.320312 202.832031 178.273438 202.921875 178.234375 C 202.980469 178.210938 203.039062 178.1875 203.105469 178.171875 Z M 206.277344 175.648438 C 206.289062 175.648438 206.292969 175.648438 206.300781 175.648438 C 206.332031 175.648438 206.363281 175.644531 206.398438 175.644531 C 206.472656 175.644531 206.546875 175.640625 206.621094 175.640625 C 206.695312 175.636719 206.769531 175.636719 206.84375 175.636719 C 206.886719 175.632812 206.933594 175.632812 206.976562 175.628906 C 207.027344 175.625 207.078125 175.617188 207.125 175.613281 C 207.199219 175.605469 207.273438 175.597656 207.34375 175.585938 C 207.425781 175.574219 207.507812 175.554688 207.589844 175.53125 C 207.691406 175.5 207.789062 175.460938 207.871094 175.398438 C 207.914062 175.363281 207.945312 175.320312 207.96875 175.273438 C 207.96875 175.265625 207.96875 175.253906 207.96875 175.242188 C 207.945312 175.1875 207.910156 175.140625 207.867188 175.097656 C 207.820312 175.058594 207.765625 175.03125 207.703125 175.015625 C 207.648438 175.003906 207.589844 175 207.535156 175.003906 C 207.472656 175.007812 207.414062 175.015625 207.351562 175.027344 C 207.242188 175.046875 207.136719 175.078125 207.03125 175.113281 C 206.9375 175.148438 206.851562 175.1875 206.765625 175.234375 C 206.632812 175.308594 206.507812 175.394531 206.402344 175.5 C 206.355469 175.542969 206.316406 175.589844 206.277344 175.648438 Z M 210.90625 176.394531 C 210.929688 176.398438 210.953125 176.40625 210.972656 176.40625 C 211.03125 176.414062 211.085938 176.417969 211.140625 176.421875 C 211.191406 176.425781 211.238281 176.429688 211.285156 176.429688 C 211.355469 176.429688 211.421875 176.429688 211.492188 176.421875 C 211.554688 176.414062 211.621094 176.402344 211.683594 176.382812 C 211.753906 176.359375 211.824219 176.328125 211.890625 176.296875 C 211.988281 176.25 212.074219 176.191406 212.140625 176.113281 C 212.207031 176.03125 212.25 175.941406 212.261719 175.84375 C 212.261719 175.832031 212.261719 175.824219 212.25 175.816406 C 212.234375 175.808594 212.21875 175.796875 212.199219 175.789062 C 212.144531 175.761719 212.089844 175.765625 212.03125 175.773438 C 211.964844 175.785156 211.90625 175.800781 211.847656 175.824219 C 211.738281 175.863281 211.636719 175.914062 211.535156 175.96875 C 211.433594 176.027344 211.332031 176.089844 211.234375 176.15625 C 211.152344 176.214844 211.074219 176.269531 210.992188 176.328125 C 210.964844 176.347656 210.9375 176.371094 210.90625 176.394531 Z M 210.238281 176.316406 C 210.199219 176.300781 210.167969 176.285156 210.136719 176.269531 C 210.101562 176.253906 210.0625 176.242188 210.023438 176.238281 C 209.964844 176.230469 209.90625 176.230469 209.84375 176.230469 C 209.816406 176.230469 209.785156 176.238281 209.757812 176.242188 C 209.695312 176.25 209.640625 176.273438 209.585938 176.300781 C 209.554688 176.316406 209.527344 176.335938 209.503906 176.359375 C 209.496094 176.371094 209.484375 176.382812 209.484375 176.398438 C 209.492188 176.402344 209.5 176.40625 209.503906 176.40625 C 209.527344 176.40625 209.546875 176.410156 209.566406 176.410156 C 209.597656 176.410156 209.628906 176.410156 209.660156 176.40625 C 209.707031 176.40625 209.753906 176.402344 209.800781 176.398438 C 209.863281 176.390625 209.925781 176.382812 209.988281 176.371094 C 210.070312 176.359375 210.152344 176.339844 210.238281 176.316406 Z M 208.148438 176.6875 C 208.152344 176.695312 208.15625 176.699219 208.15625 176.703125 C 208.199219 176.75 208.25 176.785156 208.308594 176.808594 C 208.363281 176.828125 208.414062 176.832031 208.464844 176.820312 C 208.511719 176.808594 208.550781 176.789062 208.585938 176.765625 C 208.613281 176.75 208.625 176.734375 208.617188 176.703125 C 208.601562 176.652344 208.578125 176.613281 208.546875 176.574219 C 208.503906 176.59375 208.460938 176.617188 208.414062 176.632812 C 208.339844 176.667969 208.261719 176.691406 208.175781 176.6875 C 208.167969 176.6875 208.160156 176.6875 208.148438 176.6875 Z M 208.148438 176.6875 "/></g><path style=" stroke:none;fill-rule:nonzero;fill:#366db3;fill-opacity:1;" d="M 319.472656 63.863281 L 317.835938 62.277344 C 318.03125 62.007812 318.175781 61.675781 318.175781 61.265625 C 318.175781 59.96875 318.246094 58.09375 317.886719 57.589844 C 317.527344 57.085938 308.585938 44.683594 304.90625 40.355469 C 301.230469 36.03125 291.496094 26.875 273.472656 16.492188 C 255.445312 6.109375 243.839844 8.261719 227.183594 12.953125 C 210.527344 17.644531 195.386719 28.53125 190.84375 35.453125 C 186.300781 42.375 177.578125 54.128906 175.917969 58.886719 C 174.261719 63.644531 172.746094 66.53125 172.746094 66.53125 C 172.746094 66.53125 170.078125 66.890625 167.914062 67.105469 C 165.753906 67.324219 162.652344 66.386719 161.859375 66.820312 C 161.066406 67.25 161.785156 68.835938 163.445312 69.269531 C 165.105469 69.703125 169.070312 70.351562 170.726562 69.917969 C 170.726562 69.917969 169.71875 72.226562 167.769531 74.605469 C 165.824219 76.984375 164.671875 77.777344 165.246094 78.28125 C 165.824219 78.789062 167.339844 79.074219 168.132812 78.28125 C 168.132812 78.28125 165.175781 86.429688 164.3125 90.324219 C 164.3125 90.324219 158.324219 89.746094 149.457031 92.847656 C 140.589844 95.949219 130.566406 100.34375 126.457031 103.804688 C 122.347656 107.265625 114.273438 117.21875 110.738281 129.835938 C 107.207031 142.453125 105.910156 158.097656 107.496094 174.105469 C 107.496094 174.105469 96.03125 175.621094 89.828125 179.152344 C 83.628906 182.683594 75.316406 188.316406 69.714844 198.042969 C 67.722656 201.496094 63.695312 213.1875 64.148438 223.832031 C 64.757812 238.109375 70.34375 251.992188 73.320312 257.816406 C 78.511719 267.980469 93.796875 284.78125 99.996094 287.59375 C 106.195312 290.40625 104.828125 286.582031 108.359375 284.707031 C 111.894531 282.832031 113.046875 283.050781 112.613281 277.355469 C 112.179688 271.65625 109.296875 254.640625 103.527344 237.625 C 97.761719 220.609375 94.011719 217.222656 93.507812 212.679688 C 93.003906 208.136719 95.957031 202.511719 95.957031 202.511719 C 95.957031 202.511719 90.335938 201.792969 87.667969 209.144531 C 85 216.5 89.109375 220.609375 91.273438 225.371094 C 93.433594 230.128906 93.867188 227.171875 97.761719 245.628906 C 101.65625 264.085938 104.394531 277.640625 104.539062 280.960938 C 104.539062 280.960938 94.34375 272.742188 86.152344 263.148438 C 80.695312 256.757812 76.390625 248.320312 75.625 246.566406 C 72.144531 238.578125 70.589844 231.722656 70.21875 227.53125 C 69.640625 221.042969 67.046875 207.34375 72.667969 198.691406 C 78.292969 190.039062 82.460938 187.410156 92.28125 184.921875 C 106.734375 181.253906 108.125 182.429688 108.125 182.429688 C 108.125 182.429688 109.007812 191.480469 113.695312 204.675781 C 118.382812 217.871094 121.699219 223.277344 131.863281 222.558594 C 142.03125 221.835938 143.691406 225.441406 153.496094 212.464844 C 163.300781 199.484375 158.039062 191.480469 153.207031 183.40625 C 148.375 175.332031 141.597656 172.445312 129.269531 172.375 C 116.941406 172.300781 114.632812 172.878906 114.632812 172.878906 C 114.632812 172.878906 112.253906 155.503906 117.085938 131.347656 C 121.914062 107.195312 136.695312 99.191406 140.300781 97.820312 C 143.90625 96.453125 152.484375 94.867188 163.011719 95.226562 C 163.011719 95.226562 160.777344 103.300781 162.003906 115.558594 C 163.230469 127.816406 167.769531 132.863281 171.230469 134.738281 C 174.691406 136.613281 179.308594 140.792969 185.652344 139.785156 C 191.996094 138.777344 196.179688 136.109375 197.910156 134.449219 C 197.910156 134.449219 199.351562 139.207031 201.226562 143.171875 C 203.101562 147.140625 204.472656 148.726562 203.101562 150.382812 C 201.730469 152.042969 197.117188 153.410156 194.375 155.71875 C 191.636719 158.027344 190.339844 160.332031 189.761719 163.578125 C 189.183594 166.824219 188.464844 170.066406 187.167969 173.527344 C 185.867188 176.988281 183.632812 179.875 183.273438 185.570312 C 182.914062 191.265625 184.644531 200.132812 184.859375 202.945312 C 185.074219 205.757812 183.921875 212.535156 183.921875 216.71875 C 183.921875 220.898438 181.542969 223.710938 179.164062 225.371094 C 176.785156 227.027344 175.558594 227.894531 174.691406 229.695312 C 173.828125 231.496094 174.980469 233.949219 174.980469 233.949219 C 174.980469 233.949219 175.34375 233.515625 178.296875 233.300781 C 181.253906 233.085938 181.6875 234.238281 183.921875 235.246094 C 186.15625 236.257812 189.761719 236.761719 189.761719 236.761719 C 189.761719 236.761719 187.960938 244.1875 193.726562 259.546875 C 199.496094 274.902344 199.855469 272.234375 201.515625 276.488281 C 203.171875 280.742188 202.742188 282.257812 204.183594 284.636719 C 205.625 287.015625 205.410156 288.242188 206.273438 290.910156 C 207.140625 293.578125 210.238281 299.488281 210.238281 299.488281 C 210.238281 299.488281 210.671875 322.488281 208.507812 335.46875 C 206.34375 348.445312 204.398438 346.789062 203.246094 354.214844 C 202.089844 361.640625 201.875 366.472656 202.019531 368.417969 C 202.164062 370.363281 200.074219 374.402344 197.40625 375.484375 C 194.738281 376.566406 196.613281 377.792969 202.957031 377.429688 C 209.300781 377.070312 212.835938 372.382812 213.484375 370.148438 C 214.132812 367.914062 213.84375 364.957031 215.070312 362.722656 C 216.296875 360.488281 217.953125 359.765625 217.738281 356.664062 C 217.519531 353.566406 214.636719 350.679688 214.996094 348.804688 C 215.359375 346.933594 219.25 334.601562 219.25 334.601562 C 219.25 334.601562 220.765625 340.296875 220.839844 344.121094 C 220.910156 347.941406 220.332031 355.007812 221.125 359.042969 C 221.917969 363.082031 224.515625 369.355469 223.433594 370.796875 C 222.351562 372.238281 215.285156 376.277344 218.3125 377 C 221.34375 377.71875 229.273438 377.070312 230.644531 375.410156 C 232.011719 373.753906 233.382812 370.363281 233.382812 368.417969 C 233.382812 366.472656 232.949219 363.300781 234.824219 360.847656 C 236.699219 358.394531 239.726562 355.441406 239.296875 352.917969 C 238.863281 350.394531 234.679688 346.644531 233.167969 343.617188 C 231.652344 340.585938 230.285156 333.304688 230.644531 327.464844 C 231.003906 321.625 232.230469 315.566406 231.148438 308.863281 C 230.066406 302.15625 228.914062 302.660156 226.894531 295.957031 C 224.875 289.25 223.144531 286.292969 223.144531 286.292969 C 223.144531 286.292969 221.917969 278.148438 223.792969 268.484375 C 225.667969 258.824219 223.503906 250.964844 224.875 246.0625 C 226.246094 241.160156 226.75 237.480469 226.75 237.480469 C 226.75 237.480469 230.425781 237.699219 233.023438 237.265625 C 235.617188 236.832031 238.070312 234.453125 238.648438 234.382812 C 238.648438 234.382812 236.917969 231.570312 234.25 228.179688 C 231.582031 224.792969 227.328125 216.5 224.441406 213.832031 C 221.558594 211.164062 219.394531 207.34375 217.519531 204.890625 C 215.648438 202.441406 214.566406 199.988281 215.140625 195.734375 C 215.71875 191.480469 218.820312 185.496094 221.269531 182.253906 C 223.722656 179.007812 226.171875 176.414062 229.128906 174.320312 C 232.085938 172.230469 236.84375 169.921875 238.648438 168.410156 C 240.449219 166.894531 245.136719 162.785156 249.171875 159.179688 C 253.210938 155.574219 255.90625 154.054688 255.90625 154.054688 C 255.90625 154.054688 259.820312 157.964844 263.355469 154.792969 C 266.886719 151.621094 268.148438 148.957031 264.503906 145.839844 C 264.503906 145.839844 273.039062 137.332031 277.292969 135.097656 C 281.546875 132.863281 289.191406 125.292969 294.453125 119.019531 C 299.714844 112.746094 303.683594 106.980469 306.351562 104.960938 C 309.019531 102.941406 312.984375 101.570312 313.414062 100.058594 C 313.847656 98.542969 312.621094 97.390625 312.765625 95.875 C 312.910156 94.359375 313.34375 93.207031 312.765625 91.621094 C 312.488281 90.855469 312.054688 89.800781 311.53125 88.828125 C 313.792969 82.300781 318.914062 67.542969 319.472656 65.808594 C 320.195312 63.574219 319.472656 63.863281 319.472656 63.863281 Z M 141.257812 180.59375 C 151.285156 184.074219 155.53125 191.339844 155.683594 193.898438 C 155.839844 196.453125 152.105469 203.308594 147.5 209.296875 C 142.894531 215.28125 135.171875 220.296875 133.585938 220.859375 C 131.996094 221.421875 124.324219 212.878906 120.230469 200.855469 C 116.136719 188.832031 115.984375 180.59375 115.984375 180.59375 C 115.984375 180.59375 131.230469 177.117188 141.257812 180.59375 Z M 172.710938 81.207031 C 173.664062 81 175.113281 78.972656 175.984375 78.144531 C 176.851562 77.316406 177.804688 76.902344 178.550781 76.777344 C 179.296875 76.652344 180.910156 76.488281 182.027344 75.699219 C 183.148438 74.914062 183.519531 74.953125 184.390625 74.996094 C 185.257812 75.039062 185.09375 76.15625 185.09375 76.15625 C 185.09375 76.15625 185.546875 79.71875 185.507812 81.871094 C 185.464844 84.023438 186.167969 92.84375 186.167969 92.84375 C 181.53125 91.105469 170.433594 90.359375 170.433594 90.359375 C 171.097656 87.253906 172.710938 81.207031 172.710938 81.207031 Z M 188.03125 136.242188 C 182.441406 138.230469 177.597656 136.613281 176.480469 136.242188 C 175.363281 135.867188 171.632812 132.308594 170.144531 125.515625 C 168.652344 118.726562 168.199219 105.679688 169.398438 95.496094 C 169.398438 95.496094 179.917969 96.324219 188.117188 101.332031 C 188.117188 101.332031 188.945312 105.847656 189.8125 107.917969 C 190.683594 109.988281 191.675781 110.980469 191.925781 112.183594 C 192.175781 113.382812 193.746094 117.898438 194.367188 120.921875 C 194.988281 123.941406 196.730469 130.691406 196.730469 130.691406 C 196.730469 130.691406 193.625 134.253906 188.03125 136.242188 Z M 236.832031 155.957031 L 236.832031 152.914062 C 236.832031 152.914062 238.417969 154.066406 239.746094 153.988281 C 241.070312 153.910156 236.832031 155.957031 236.832031 155.957031 Z M 318.179688 64.800781 L 310.410156 87.144531 C 310.148438 86.839844 309.875 86.59375 309.59375 86.429688 C 308.226562 85.636719 308.152344 86.933594 308.511719 88.234375 C 308.875 89.53125 309.234375 90.757812 309.234375 90.757812 C 309.234375 90.757812 306.421875 90.539062 305.558594 92.054688 C 304.691406 93.566406 305.414062 93.785156 304.113281 94.867188 C 302.816406 95.949219 300.078125 96.742188 299.285156 99.769531 C 298.492188 102.796875 299.789062 102.21875 296.90625 105.25 C 294.019531 108.277344 289.191406 112.53125 285.585938 114.980469 C 281.980469 117.433594 277.582031 121.039062 275.777344 123.128906 C 273.976562 125.21875 265.035156 131.421875 262.367188 133.078125 C 262.367188 133.078125 259.269531 126.445312 256.816406 124.644531 C 254.363281 122.839844 251.480469 123.417969 251.480469 123.417969 C 251.480469 123.417969 249.894531 121.902344 248.238281 121.902344 C 246.578125 121.902344 242.902344 121.757812 242.035156 122.265625 C 241.171875 122.769531 241.242188 123.921875 239.726562 124.210938 C 238.214844 124.5 236.484375 123.347656 235.691406 122.984375 C 234.898438 122.625 234.25 122.984375 233.960938 123.632812 C 233.671875 124.28125 233.671875 125.363281 233.09375 125.582031 C 232.519531 125.796875 231.007812 125.746094 230.570312 125.582031 C 230.292969 125.476562 229.632812 126.375 229.632812 126.949219 C 229.632812 127.527344 229.058594 127.074219 228.121094 127.480469 C 227.183594 127.886719 227.902344 128.03125 227.328125 128.609375 C 226.75 129.1875 224.371094 129.332031 224.082031 130.628906 C 223.792969 131.925781 224.515625 133.871094 224.949219 135.890625 C 225.378906 137.910156 225.8125 140.21875 224.441406 142.164062 C 223.074219 144.109375 221.847656 145.839844 221.847656 145.839844 C 221.847656 145.839844 218.027344 138.777344 216.367188 136.324219 C 214.710938 133.871094 208.363281 127.3125 207.644531 126.011719 C 206.921875 124.714844 205.695312 119.308594 205.695312 119.308594 C 205.695312 119.308594 206.203125 113.179688 205.335938 109.574219 C 204.472656 105.96875 202.234375 103.445312 202.234375 103.445312 C 202.234375 103.445312 197.765625 91.695312 196.105469 88.015625 C 194.449219 84.339844 192.070312 78.570312 191.566406 76.121094 C 191.058594 73.667969 190.699219 69.992188 188.96875 68.691406 C 187.238281 67.394531 182.984375 66.820312 181.109375 66.457031 C 179.234375 66.097656 177.867188 65.519531 177.867188 65.519531 C 177.867188 65.519531 183.417969 52.109375 194.089844 39.203125 C 204.757812 26.296875 220.042969 12.671875 249.03125 12.957031 C 258.039062 13.046875 266.023438 15.664062 271.667969 18.078125 C 284.1875 23.429688 288.449219 31.304688 289.839844 33.292969 C 291.859375 36.175781 300.582031 49.007812 302.746094 52.324219 C 304.90625 55.644531 309.957031 62.203125 310.675781 62.421875 C 311.398438 62.636719 316.734375 63.140625 316.734375 63.140625 C 316.734375 63.140625 316.90625 63.070312 317.132812 62.929688 L 318.179688 64.296875 Z M 318.179688 64.800781 "/></g></svg>