<svg xmlns="http://www.w3.org/2000/svg" xmlns:xlink="http://www.w3.org/1999/xlink" width="512" zoomAndPan="magnify" viewBox="0 0 384 383.999986" height="512" preserveAspectRatio="xMidYMid meet" version="1.2"><defs><clipPath id="b75eee21b1"><path d="M 180.347656 133.816406 L 192.347656 133.816406 L 192.347656 138.316406 L 180.347656 138.316406 Z M 180.347656 133.816406 "/></clipPath><clipPath id="42722c7ea1"><path d="M 185 11.488281 L 250 11.488281 L 250 91 L 185 91 Z M 185 11.488281 "/></clipPath></defs><g id="6aa2e3d4de"><g clip-rule="nonzero" clip-path="url(#b75eee21b1)"><path style=" stroke:none;fill-rule:nonzero;fill:#000000;fill-opacity:1;" d="M 183.121094 137.09375 C 183.109375 137.058594 183.101562 137.027344 183.09375 136.996094 C 183.070312 136.929688 183.042969 136.859375 183.019531 136.789062 C 183.011719 136.765625 183.003906 136.742188 182.992188 136.71875 C 182.972656 136.679688 182.964844 136.636719 182.964844 136.597656 C 182.957031 136.542969 182.953125 136.492188 182.953125 136.441406 C 182.953125 136.402344 182.957031 136.359375 182.964844 136.320312 C 182.96875 136.269531 182.980469 136.214844 182.996094 136.164062 C 183.015625 136.113281 183.03125 136.0625 183.050781 136.015625 C 183.054688 136.007812 183.058594 135.996094 183.066406 135.992188 C 183.101562 135.941406 183.140625 135.894531 183.183594 135.84375 C 183.160156 135.835938 183.140625 135.824219 183.117188 135.816406 C 183.058594 135.792969 183 135.765625 182.941406 135.742188 C 182.882812 135.71875 182.835938 135.683594 182.792969 135.636719 C 182.769531 135.613281 182.742188 135.585938 182.71875 135.5625 C 182.683594 135.527344 182.644531 135.507812 182.601562 135.484375 C 182.542969 135.460938 182.480469 135.433594 182.421875 135.410156 C 182.410156 135.40625 182.394531 135.398438 182.382812 135.398438 C 182.371094 135.398438 182.359375 135.398438 182.351562 135.402344 C 182.328125 135.410156 182.308594 135.421875 182.289062 135.433594 C 182.273438 135.445312 182.257812 135.449219 182.238281 135.449219 C 182.226562 135.449219 182.214844 135.453125 182.203125 135.460938 C 182.171875 135.472656 182.144531 135.488281 182.113281 135.5 C 182.105469 135.503906 182.09375 135.507812 182.082031 135.507812 C 182.070312 135.511719 182.0625 135.503906 182.054688 135.496094 C 182.050781 135.484375 182.054688 135.476562 182.058594 135.46875 C 182.074219 135.449219 182.09375 135.4375 182.117188 135.429688 C 182.136719 135.421875 182.152344 135.414062 182.167969 135.40625 C 182.152344 135.367188 182.121094 135.34375 182.078125 135.347656 C 182.035156 135.351562 181.996094 135.359375 181.953125 135.363281 C 181.929688 135.367188 181.90625 135.363281 181.882812 135.351562 C 181.867188 135.34375 181.859375 135.332031 181.863281 135.316406 C 181.921875 135.308594 181.980469 135.308594 182.042969 135.296875 C 182.023438 135.285156 182.007812 135.277344 181.992188 135.269531 C 181.976562 135.257812 181.957031 135.25 181.941406 135.238281 C 181.925781 135.226562 181.914062 135.214844 181.902344 135.203125 C 181.890625 135.191406 181.890625 135.179688 181.898438 135.164062 C 181.917969 135.167969 181.933594 135.175781 181.949219 135.1875 C 181.996094 135.222656 182.046875 135.242188 182.097656 135.269531 C 182.113281 135.277344 182.128906 135.277344 182.144531 135.269531 C 182.160156 135.265625 182.175781 135.261719 182.195312 135.253906 C 182.183594 135.25 182.179688 135.242188 182.171875 135.238281 C 182.15625 135.230469 182.144531 135.222656 182.128906 135.21875 C 182.105469 135.207031 182.09375 135.191406 182.101562 135.164062 C 182.117188 135.167969 182.132812 135.167969 182.148438 135.175781 C 182.171875 135.179688 182.195312 135.1875 182.210938 135.203125 C 182.230469 135.21875 182.25 135.230469 182.273438 135.242188 C 182.289062 135.25 182.3125 135.25 182.332031 135.253906 C 182.367188 135.257812 182.40625 135.257812 182.441406 135.261719 C 182.453125 135.261719 182.46875 135.265625 182.480469 135.269531 C 182.566406 135.296875 182.648438 135.332031 182.730469 135.371094 C 182.804688 135.40625 182.882812 135.445312 182.960938 135.480469 C 183.019531 135.507812 183.082031 135.539062 183.144531 135.566406 C 183.214844 135.597656 183.285156 135.625 183.359375 135.652344 C 183.367188 135.65625 183.378906 135.65625 183.386719 135.65625 C 183.410156 135.660156 183.425781 135.65625 183.4375 135.632812 C 183.449219 135.609375 183.46875 135.589844 183.484375 135.574219 C 183.511719 135.539062 183.542969 135.507812 183.574219 135.476562 C 183.601562 135.445312 183.617188 135.410156 183.621094 135.371094 C 183.625 135.355469 183.625 135.335938 183.625 135.320312 C 183.628906 135.300781 183.628906 135.28125 183.632812 135.261719 C 183.636719 135.242188 183.664062 135.226562 183.6875 135.230469 C 183.703125 135.230469 183.71875 135.230469 183.730469 135.214844 C 183.730469 135.214844 183.734375 135.210938 183.734375 135.214844 C 183.765625 135.214844 183.789062 135.191406 183.816406 135.195312 C 183.820312 135.199219 183.824219 135.195312 183.828125 135.195312 C 183.835938 135.1875 183.839844 135.175781 183.847656 135.167969 C 183.863281 135.148438 183.875 135.148438 183.894531 135.160156 C 183.925781 135.183594 183.957031 135.207031 183.984375 135.226562 C 184.007812 135.242188 184.027344 135.25 184.050781 135.234375 C 184.0625 135.226562 184.070312 135.230469 184.082031 135.234375 C 184.125 135.257812 184.175781 135.277344 184.214844 135.3125 C 184.234375 135.332031 184.253906 135.359375 184.273438 135.382812 C 184.277344 135.386719 184.28125 135.394531 184.285156 135.402344 C 184.371094 135.367188 184.457031 135.332031 184.535156 135.285156 C 184.632812 135.226562 184.726562 135.171875 184.820312 135.117188 C 184.851562 135.097656 184.886719 135.082031 184.917969 135.0625 C 184.921875 135.058594 184.925781 135.058594 184.933594 135.054688 C 184.953125 135.046875 184.960938 135.050781 184.96875 135.070312 C 185.121094 134.984375 185.269531 134.898438 185.421875 134.8125 C 185.40625 134.792969 185.390625 134.777344 185.375 134.757812 C 185.410156 134.703125 185.46875 134.671875 185.527344 134.648438 C 185.589844 134.625 185.65625 134.609375 185.726562 134.601562 C 185.773438 134.59375 185.824219 134.589844 185.875 134.582031 C 185.914062 134.582031 185.957031 134.578125 185.996094 134.578125 C 186.074219 134.574219 186.152344 134.570312 186.230469 134.570312 C 186.242188 134.570312 186.246094 134.5625 186.253906 134.554688 C 186.277344 134.515625 186.304688 134.476562 186.332031 134.4375 C 186.371094 134.382812 186.417969 134.332031 186.464844 134.285156 C 186.519531 134.230469 186.578125 134.183594 186.636719 134.140625 C 186.742188 134.0625 186.859375 134 186.980469 133.949219 C 187.082031 133.90625 187.183594 133.875 187.289062 133.851562 C 187.386719 133.828125 187.488281 133.816406 187.589844 133.824219 C 187.683594 133.832031 187.777344 133.855469 187.863281 133.898438 C 187.902344 133.921875 187.945312 133.949219 187.972656 133.984375 C 188 134.011719 188.011719 134.046875 188.007812 134.085938 C 188.007812 134.125 188.015625 134.160156 188.019531 134.199219 C 188.023438 134.230469 188.023438 134.261719 188.023438 134.292969 C 188.023438 134.328125 188.007812 134.363281 187.984375 134.390625 C 187.941406 134.445312 187.886719 134.492188 187.820312 134.527344 C 187.769531 134.554688 187.710938 134.570312 187.652344 134.582031 C 187.597656 134.59375 187.539062 134.605469 187.484375 134.613281 C 187.433594 134.621094 187.382812 134.628906 187.332031 134.632812 C 187.285156 134.636719 187.242188 134.640625 187.199219 134.644531 C 187.132812 134.648438 187.070312 134.652344 187.003906 134.65625 C 186.980469 134.65625 186.960938 134.660156 186.941406 134.660156 C 186.820312 134.660156 186.703125 134.664062 186.582031 134.664062 C 186.519531 134.664062 186.453125 134.667969 186.390625 134.667969 C 186.386719 134.667969 186.382812 134.671875 186.375 134.671875 C 186.394531 134.683594 186.410156 134.691406 186.425781 134.699219 C 186.507812 134.742188 186.597656 134.769531 186.6875 134.792969 C 186.769531 134.8125 186.847656 134.832031 186.929688 134.851562 C 187 134.867188 187.074219 134.878906 187.144531 134.894531 C 187.199219 134.90625 187.253906 134.914062 187.3125 134.925781 C 187.359375 134.933594 187.410156 134.945312 187.460938 134.953125 C 187.535156 134.96875 187.613281 134.984375 187.691406 135 C 187.769531 135.015625 187.847656 135.03125 187.921875 135.050781 C 188.085938 135.089844 188.246094 135.132812 188.394531 135.199219 C 188.460938 135.226562 188.519531 135.257812 188.570312 135.304688 C 188.574219 135.304688 188.574219 135.308594 188.582031 135.308594 C 188.617188 135.289062 188.652344 135.265625 188.6875 135.242188 C 188.773438 135.183594 188.859375 135.125 188.941406 135.0625 C 189.046875 134.984375 189.152344 134.902344 189.257812 134.820312 C 189.332031 134.765625 189.410156 134.703125 189.484375 134.648438 C 189.5625 134.585938 189.640625 134.523438 189.722656 134.464844 C 189.808594 134.402344 189.894531 134.339844 189.980469 134.277344 C 190.074219 134.210938 190.167969 134.152344 190.265625 134.09375 C 190.332031 134.058594 190.402344 134.019531 190.472656 133.984375 C 190.527344 133.957031 190.585938 133.933594 190.644531 133.917969 C 190.714844 133.894531 190.789062 133.890625 190.863281 133.898438 C 190.890625 133.898438 190.921875 133.902344 190.953125 133.90625 C 191.023438 133.914062 191.085938 133.941406 191.132812 133.992188 C 191.160156 134.023438 191.183594 134.054688 191.207031 134.085938 C 191.222656 134.109375 191.238281 134.128906 191.257812 134.148438 C 191.304688 134.199219 191.335938 134.253906 191.347656 134.320312 C 191.355469 134.347656 191.351562 134.378906 191.34375 134.410156 C 191.335938 134.464844 191.320312 134.519531 191.300781 134.574219 C 191.269531 134.664062 191.21875 134.746094 191.160156 134.824219 C 191.109375 134.894531 191.050781 134.957031 190.984375 135.015625 C 190.910156 135.085938 190.824219 135.140625 190.734375 135.1875 C 190.683594 135.207031 190.636719 135.226562 190.585938 135.25 C 190.582031 135.25 190.578125 135.253906 190.570312 135.257812 C 190.597656 135.261719 190.617188 135.265625 190.640625 135.273438 C 190.675781 135.277344 190.710938 135.285156 190.746094 135.289062 C 190.761719 135.292969 190.777344 135.292969 190.789062 135.28125 C 190.8125 135.261719 190.835938 135.242188 190.863281 135.222656 C 190.917969 135.183594 190.972656 135.140625 191.027344 135.097656 C 191.089844 135.050781 191.152344 135 191.21875 134.953125 C 191.28125 134.90625 191.347656 134.863281 191.414062 134.816406 C 191.488281 134.765625 191.570312 134.71875 191.648438 134.675781 C 191.71875 134.640625 191.789062 134.605469 191.867188 134.585938 C 191.886719 134.582031 191.90625 134.578125 191.925781 134.574219 C 191.980469 134.570312 192.035156 134.570312 192.089844 134.578125 C 192.152344 134.589844 192.199219 134.617188 192.238281 134.664062 C 192.269531 134.703125 192.300781 134.742188 192.320312 134.789062 C 192.332031 134.820312 192.335938 134.851562 192.339844 134.886719 C 192.347656 134.96875 192.308594 135.035156 192.257812 135.097656 C 192.222656 135.136719 192.1875 135.175781 192.144531 135.210938 C 192.078125 135.269531 192.003906 135.316406 191.921875 135.355469 C 191.839844 135.398438 191.75 135.429688 191.660156 135.449219 C 191.585938 135.464844 191.511719 135.476562 191.4375 135.480469 C 191.367188 135.484375 191.300781 135.484375 191.234375 135.484375 C 191.191406 135.484375 191.148438 135.476562 191.109375 135.472656 C 191.054688 135.464844 191.003906 135.460938 190.949219 135.453125 C 190.898438 135.441406 190.84375 135.429688 190.789062 135.417969 C 190.785156 135.421875 190.777344 135.425781 190.773438 135.429688 C 190.710938 135.476562 190.648438 135.527344 190.585938 135.574219 C 190.515625 135.625 190.445312 135.675781 190.375 135.722656 C 190.304688 135.773438 190.230469 135.820312 190.148438 135.855469 C 190.089844 135.878906 190.03125 135.898438 189.964844 135.898438 C 189.941406 135.898438 189.917969 135.894531 189.894531 135.890625 C 189.882812 135.855469 189.886719 135.824219 189.894531 135.789062 C 189.921875 135.789062 189.945312 135.785156 189.972656 135.785156 C 190.039062 135.773438 190.097656 135.75 190.15625 135.71875 C 190.261719 135.667969 190.359375 135.601562 190.453125 135.535156 C 190.515625 135.488281 190.578125 135.441406 190.644531 135.394531 C 190.648438 135.390625 190.648438 135.386719 190.65625 135.382812 C 190.648438 135.378906 190.644531 135.378906 190.640625 135.375 C 190.578125 135.355469 190.511719 135.335938 190.449219 135.3125 C 190.425781 135.304688 190.402344 135.304688 190.378906 135.308594 C 190.308594 135.324219 190.242188 135.339844 190.171875 135.347656 C 190.101562 135.359375 190.03125 135.363281 189.960938 135.371094 C 189.832031 135.382812 189.703125 135.382812 189.574219 135.382812 C 189.550781 135.382812 189.527344 135.378906 189.507812 135.367188 C 189.472656 135.355469 189.4375 135.34375 189.40625 135.328125 C 189.371094 135.308594 189.339844 135.289062 189.320312 135.257812 C 189.296875 135.226562 189.300781 135.1875 189.328125 135.15625 C 189.34375 135.140625 189.367188 135.125 189.390625 135.113281 C 189.445312 135.09375 189.5 135.082031 189.558594 135.078125 C 189.59375 135.074219 189.628906 135.074219 189.660156 135.070312 C 189.722656 135.070312 189.789062 135.078125 189.851562 135.082031 C 189.917969 135.089844 189.984375 135.101562 190.050781 135.117188 C 190.117188 135.132812 190.183594 135.160156 190.246094 135.1875 C 190.273438 135.195312 190.304688 135.199219 190.335938 135.207031 C 190.339844 135.207031 190.347656 135.207031 190.355469 135.203125 C 190.480469 135.160156 190.597656 135.101562 190.710938 135.03125 C 190.800781 134.972656 190.886719 134.90625 190.964844 134.832031 C 191.039062 134.757812 191.109375 134.683594 191.160156 134.59375 C 191.203125 134.523438 191.230469 134.453125 191.242188 134.375 C 191.253906 134.304688 191.253906 134.238281 191.238281 134.171875 C 191.234375 134.15625 191.226562 134.140625 191.210938 134.132812 C 191.15625 134.097656 191.09375 134.070312 191.027344 134.0625 C 190.945312 134.050781 190.867188 134.058594 190.789062 134.074219 C 190.675781 134.097656 190.566406 134.136719 190.464844 134.183594 C 190.304688 134.257812 190.160156 134.34375 190.015625 134.4375 C 189.929688 134.496094 189.84375 134.554688 189.761719 134.613281 C 189.6875 134.664062 189.617188 134.71875 189.546875 134.769531 C 189.492188 134.8125 189.441406 134.851562 189.386719 134.894531 C 189.328125 134.941406 189.269531 134.988281 189.210938 135.03125 C 189.109375 135.109375 189.011719 135.183594 188.914062 135.257812 C 188.835938 135.316406 188.757812 135.367188 188.675781 135.421875 C 188.675781 135.421875 188.671875 135.425781 188.667969 135.429688 C 188.6875 135.464844 188.695312 135.5 188.695312 135.535156 C 188.691406 135.570312 188.683594 135.601562 188.671875 135.632812 C 188.652344 135.675781 188.640625 135.714844 188.628906 135.757812 C 188.628906 135.765625 188.625 135.769531 188.621094 135.777344 C 188.613281 135.808594 188.589844 135.832031 188.550781 135.84375 C 188.476562 135.863281 188.40625 135.878906 188.328125 135.871094 C 188.222656 135.863281 188.136719 135.824219 188.085938 135.734375 C 188.058594 135.6875 188.054688 135.640625 188.0625 135.589844 C 188.070312 135.550781 188.082031 135.519531 188.101562 135.484375 C 188.109375 135.472656 188.117188 135.46875 188.132812 135.46875 C 188.242188 135.464844 188.339844 135.433594 188.429688 135.390625 C 188.433594 135.386719 188.433594 135.386719 188.433594 135.382812 C 188.414062 135.371094 188.394531 135.359375 188.375 135.347656 C 188.277344 135.292969 188.171875 135.25 188.0625 135.214844 C 187.957031 135.179688 187.847656 135.148438 187.738281 135.121094 C 187.664062 135.101562 187.589844 135.085938 187.515625 135.070312 C 187.441406 135.054688 187.367188 135.039062 187.296875 135.027344 C 187.230469 135.015625 187.164062 135.003906 187.101562 134.992188 C 187.046875 134.980469 186.996094 134.972656 186.945312 134.960938 C 186.855469 134.941406 186.765625 134.925781 186.675781 134.902344 C 186.570312 134.878906 186.464844 134.851562 186.371094 134.804688 C 186.304688 134.773438 186.246094 134.738281 186.207031 134.683594 C 186.199219 134.675781 186.191406 134.675781 186.183594 134.675781 C 186.121094 134.679688 186.054688 134.683594 185.988281 134.6875 C 185.917969 134.6875 185.84375 134.699219 185.773438 134.707031 C 185.714844 134.714844 185.65625 134.726562 185.601562 134.75 C 185.578125 134.757812 185.558594 134.769531 185.535156 134.785156 C 185.402344 134.863281 185.265625 134.941406 185.132812 135.023438 C 185.039062 135.078125 184.945312 135.132812 184.855469 135.1875 C 184.851562 135.191406 184.847656 135.191406 184.84375 135.195312 C 184.859375 135.210938 184.882812 135.214844 184.902344 135.222656 C 184.929688 135.234375 184.960938 135.246094 184.988281 135.261719 C 185.019531 135.273438 185.019531 135.296875 184.992188 135.316406 C 184.972656 135.328125 184.949219 135.324219 184.929688 135.320312 C 184.898438 135.3125 184.871094 135.320312 184.84375 135.335938 C 184.8125 135.351562 184.777344 135.363281 184.746094 135.375 C 184.734375 135.378906 184.722656 135.375 184.710938 135.375 C 184.691406 135.375 184.675781 135.378906 184.660156 135.390625 C 184.621094 135.417969 184.578125 135.445312 184.539062 135.472656 C 184.480469 135.515625 184.421875 135.558594 184.359375 135.597656 C 184.355469 135.605469 184.34375 135.605469 184.335938 135.613281 C 184.332031 135.617188 184.324219 135.625 184.324219 135.632812 C 184.320312 135.660156 184.308594 135.683594 184.296875 135.707031 C 184.308594 135.726562 184.316406 135.746094 184.324219 135.765625 C 184.332031 135.789062 184.328125 135.808594 184.320312 135.832031 C 184.308594 135.863281 184.285156 135.882812 184.246094 135.890625 C 184.207031 135.898438 184.167969 135.894531 184.132812 135.871094 C 184.121094 135.863281 184.113281 135.867188 184.101562 135.867188 C 184.046875 135.878906 183.996094 135.882812 183.945312 135.863281 C 183.929688 135.859375 183.910156 135.855469 183.894531 135.847656 C 183.878906 135.84375 183.859375 135.84375 183.859375 135.820312 C 183.859375 135.816406 183.855469 135.816406 183.851562 135.8125 C 183.84375 135.804688 183.839844 135.796875 183.832031 135.789062 C 183.824219 135.792969 183.816406 135.796875 183.824219 135.804688 C 183.828125 135.816406 183.832031 135.824219 183.835938 135.835938 C 183.847656 135.878906 183.84375 135.925781 183.839844 135.96875 C 183.824219 136.070312 183.792969 136.167969 183.761719 136.265625 C 183.75 136.3125 183.734375 136.355469 183.722656 136.398438 C 183.710938 136.441406 183.707031 136.484375 183.707031 136.527344 C 183.707031 136.542969 183.710938 136.554688 183.707031 136.566406 C 183.703125 136.59375 183.714844 136.617188 183.730469 136.640625 C 183.734375 136.644531 183.738281 136.648438 183.738281 136.652344 C 183.75 136.679688 183.769531 136.6875 183.796875 136.6875 C 183.847656 136.691406 183.890625 136.710938 183.9375 136.734375 C 183.988281 136.757812 184.03125 136.792969 184.074219 136.828125 C 184.097656 136.84375 184.117188 136.863281 184.140625 136.878906 C 184.160156 136.894531 184.183594 136.898438 184.207031 136.898438 C 184.234375 136.902344 184.265625 136.90625 184.292969 136.90625 C 184.324219 136.90625 184.359375 136.902344 184.390625 136.898438 C 184.460938 136.890625 184.527344 136.878906 184.59375 136.867188 C 184.601562 136.867188 184.605469 136.867188 184.613281 136.867188 C 184.664062 136.863281 184.714844 136.859375 184.765625 136.855469 C 184.804688 136.851562 184.84375 136.851562 184.882812 136.84375 C 184.941406 136.835938 185 136.824219 185.054688 136.804688 C 185.085938 136.796875 185.105469 136.777344 185.117188 136.75 C 185.136719 136.710938 185.152344 136.671875 185.171875 136.636719 C 185.203125 136.574219 185.253906 136.523438 185.3125 136.480469 C 185.382812 136.429688 185.453125 136.378906 185.523438 136.328125 C 185.5625 136.300781 185.601562 136.273438 185.644531 136.246094 C 185.707031 136.203125 185.765625 136.15625 185.8125 136.101562 C 185.824219 136.082031 185.839844 136.066406 185.855469 136.050781 C 185.859375 136.042969 185.863281 136.03125 185.863281 136.023438 C 185.863281 136 185.859375 135.980469 185.855469 135.957031 C 185.84375 135.894531 185.886719 135.847656 185.953125 135.847656 C 186.003906 135.847656 186.050781 135.847656 186.101562 135.847656 C 186.117188 135.847656 186.132812 135.84375 186.148438 135.839844 C 186.183594 135.828125 186.214844 135.8125 186.242188 135.789062 C 186.25 135.78125 186.253906 135.773438 186.261719 135.765625 C 186.277344 135.742188 186.289062 135.71875 186.304688 135.695312 C 186.3125 135.679688 186.320312 135.664062 186.328125 135.648438 C 186.335938 135.632812 186.351562 135.617188 186.371094 135.609375 C 186.386719 135.605469 186.394531 135.605469 186.40625 135.617188 C 186.433594 135.644531 186.445312 135.679688 186.445312 135.714844 C 186.441406 135.738281 186.4375 135.757812 186.4375 135.78125 C 186.4375 135.796875 186.429688 135.808594 186.417969 135.820312 C 186.390625 135.859375 186.359375 135.894531 186.332031 135.933594 C 186.320312 135.949219 186.3125 135.960938 186.300781 135.976562 C 186.277344 136.019531 186.242188 136.054688 186.203125 136.085938 C 186.15625 136.125 186.105469 136.167969 186.058594 136.207031 C 186.011719 136.25 185.960938 136.289062 185.914062 136.332031 C 185.878906 136.363281 185.851562 136.402344 185.816406 136.433594 C 185.769531 136.472656 185.742188 136.523438 185.703125 136.570312 C 185.675781 136.601562 185.644531 136.632812 185.617188 136.664062 C 185.550781 136.742188 185.484375 136.824219 185.425781 136.910156 C 185.386719 136.96875 185.339844 137.027344 185.292969 137.085938 C 185.28125 137.105469 185.261719 137.113281 185.242188 137.121094 C 185.175781 137.132812 185.117188 137.152344 185.054688 137.175781 C 184.988281 137.195312 184.921875 137.214844 184.855469 137.226562 C 184.8125 137.234375 184.765625 137.242188 184.722656 137.25 C 184.691406 137.253906 184.660156 137.253906 184.628906 137.257812 C 184.605469 137.261719 184.578125 137.265625 184.550781 137.269531 C 184.492188 137.273438 184.433594 137.28125 184.375 137.289062 C 184.328125 137.292969 184.28125 137.300781 184.238281 137.308594 C 184.15625 137.324219 184.074219 137.34375 183.992188 137.347656 C 183.964844 137.347656 183.9375 137.34375 183.914062 137.34375 C 183.890625 137.339844 183.867188 137.34375 183.847656 137.351562 C 183.804688 137.375 183.757812 137.386719 183.710938 137.402344 C 183.675781 137.410156 183.640625 137.425781 183.609375 137.4375 C 183.566406 137.457031 183.523438 137.480469 183.484375 137.5 C 183.457031 137.511719 183.429688 137.523438 183.402344 137.535156 C 183.332031 137.5625 183.257812 137.589844 183.1875 137.613281 C 183.089844 137.648438 182.992188 137.683594 182.894531 137.714844 C 182.792969 137.746094 182.695312 137.78125 182.597656 137.820312 C 182.511719 137.855469 182.425781 137.882812 182.339844 137.910156 C 182.3125 137.921875 182.289062 137.933594 182.265625 137.945312 C 182.171875 137.992188 182.085938 138.039062 181.992188 138.082031 C 181.960938 138.09375 181.925781 138.101562 181.890625 138.113281 C 181.882812 138.113281 181.875 138.113281 181.867188 138.113281 C 181.78125 138.113281 181.695312 138.117188 181.609375 138.125 C 181.558594 138.132812 181.507812 138.132812 181.457031 138.132812 C 181.367188 138.132812 181.277344 138.144531 181.191406 138.171875 C 181.175781 138.175781 181.164062 138.179688 181.152344 138.183594 C 181.109375 138.195312 181.078125 138.21875 181.0625 138.253906 C 181.039062 138.296875 181.003906 138.3125 180.953125 138.304688 C 180.921875 138.300781 180.894531 138.289062 180.867188 138.273438 C 180.839844 138.261719 180.816406 138.25 180.789062 138.234375 C 180.765625 138.222656 180.742188 138.21875 180.714844 138.222656 C 180.640625 138.238281 180.570312 138.253906 180.5 138.273438 C 180.488281 138.273438 180.472656 138.28125 180.464844 138.292969 C 180.4375 138.316406 180.402344 138.316406 180.367188 138.316406 C 180.359375 138.3125 180.351562 138.308594 180.351562 138.300781 C 180.351562 138.285156 180.351562 138.269531 180.359375 138.257812 C 180.375 138.230469 180.390625 138.203125 180.40625 138.179688 C 180.425781 138.152344 180.453125 138.132812 180.488281 138.121094 C 180.582031 138.078125 180.679688 138.035156 180.777344 137.992188 C 180.820312 137.976562 180.863281 137.96875 180.910156 137.960938 C 180.960938 137.953125 181.011719 137.945312 181.0625 137.941406 C 181.113281 137.9375 181.160156 137.9375 181.210938 137.933594 C 181.234375 137.933594 181.257812 137.933594 181.28125 137.929688 C 181.359375 137.917969 181.429688 137.898438 181.503906 137.871094 C 181.574219 137.84375 181.644531 137.816406 181.71875 137.796875 C 181.769531 137.78125 181.820312 137.773438 181.871094 137.761719 C 181.886719 137.757812 181.902344 137.753906 181.914062 137.75 C 181.949219 137.738281 181.988281 137.730469 182.023438 137.714844 C 182.0625 137.703125 182.101562 137.683594 182.140625 137.664062 C 182.1875 137.644531 182.234375 137.625 182.28125 137.601562 C 182.308594 137.589844 182.335938 137.574219 182.363281 137.5625 C 182.375 137.554688 182.386719 137.546875 182.402344 137.542969 C 182.445312 137.535156 182.476562 137.511719 182.503906 137.484375 C 182.5625 137.421875 182.625 137.359375 182.691406 137.300781 C 182.761719 137.242188 182.847656 137.195312 182.933594 137.15625 C 182.992188 137.132812 183.050781 137.109375 183.121094 137.09375 Z M 186.289062 134.570312 C 186.300781 134.570312 186.308594 134.570312 186.3125 134.570312 C 186.347656 134.566406 186.378906 134.566406 186.410156 134.566406 C 186.484375 134.566406 186.558594 134.5625 186.632812 134.5625 C 186.707031 134.558594 186.78125 134.558594 186.859375 134.554688 C 186.902344 134.554688 186.945312 134.550781 186.988281 134.546875 C 187.039062 134.542969 187.089844 134.539062 187.140625 134.535156 C 187.210938 134.523438 187.285156 134.519531 187.355469 134.507812 C 187.441406 134.496094 187.523438 134.476562 187.601562 134.453125 C 187.703125 134.421875 187.804688 134.382812 187.886719 134.316406 C 187.929688 134.285156 187.960938 134.242188 187.980469 134.195312 C 187.984375 134.183594 187.984375 134.171875 187.980469 134.164062 C 187.960938 134.109375 187.925781 134.0625 187.878906 134.019531 C 187.832031 133.976562 187.777344 133.949219 187.714844 133.9375 C 187.660156 133.921875 187.605469 133.921875 187.546875 133.925781 C 187.484375 133.929688 187.425781 133.9375 187.363281 133.945312 C 187.253906 133.96875 187.148438 133.996094 187.042969 134.035156 C 186.953125 134.070312 186.863281 134.109375 186.777344 134.15625 C 186.644531 134.226562 186.519531 134.3125 186.414062 134.417969 C 186.371094 134.464844 186.328125 134.511719 186.289062 134.570312 Z M 190.917969 135.316406 C 190.941406 135.320312 190.964844 135.324219 190.988281 135.328125 C 191.042969 135.332031 191.097656 135.339844 191.15625 135.34375 C 191.203125 135.347656 191.25 135.351562 191.300781 135.351562 C 191.367188 135.351562 191.433594 135.351562 191.503906 135.34375 C 191.570312 135.335938 191.632812 135.324219 191.695312 135.304688 C 191.769531 135.28125 191.835938 135.25 191.902344 135.21875 C 192 135.171875 192.089844 135.113281 192.15625 135.03125 C 192.222656 134.953125 192.261719 134.863281 192.273438 134.761719 C 192.277344 134.753906 192.273438 134.746094 192.265625 134.738281 C 192.246094 134.726562 192.230469 134.714844 192.214844 134.707031 C 192.160156 134.683594 192.101562 134.6875 192.042969 134.695312 C 191.980469 134.703125 191.917969 134.722656 191.859375 134.746094 C 191.75 134.785156 191.648438 134.835938 191.550781 134.890625 C 191.445312 134.949219 191.34375 135.011719 191.246094 135.078125 C 191.167969 135.132812 191.085938 135.191406 191.003906 135.25 C 190.976562 135.269531 190.949219 135.292969 190.917969 135.316406 Z M 190.25 135.238281 C 190.214844 135.21875 190.179688 135.207031 190.148438 135.191406 C 190.113281 135.175781 190.078125 135.160156 190.035156 135.15625 C 189.976562 135.152344 189.917969 135.152344 189.859375 135.152344 C 189.828125 135.152344 189.800781 135.15625 189.769531 135.160156 C 189.710938 135.171875 189.652344 135.191406 189.597656 135.21875 C 189.570312 135.238281 189.542969 135.253906 189.519531 135.28125 C 189.507812 135.289062 189.496094 135.300781 189.5 135.320312 C 189.507812 135.320312 189.511719 135.324219 189.519531 135.328125 C 189.539062 135.328125 189.558594 135.332031 189.582031 135.332031 C 189.613281 135.332031 189.644531 135.328125 189.675781 135.328125 C 189.71875 135.324219 189.765625 135.324219 189.8125 135.320312 C 189.875 135.3125 189.9375 135.304688 190 135.292969 C 190.085938 135.28125 190.167969 135.261719 190.25 135.238281 Z M 188.164062 135.605469 C 188.167969 135.613281 188.167969 135.617188 188.171875 135.621094 C 188.210938 135.667969 188.261719 135.707031 188.324219 135.730469 C 188.375 135.75 188.425781 135.753906 188.480469 135.742188 C 188.523438 135.730469 188.5625 135.710938 188.601562 135.6875 C 188.625 135.667969 188.636719 135.652344 188.628906 135.625 C 188.617188 135.574219 188.59375 135.53125 188.558594 135.492188 C 188.515625 135.515625 188.472656 135.535156 188.429688 135.554688 C 188.351562 135.585938 188.273438 135.609375 188.191406 135.605469 C 188.183594 135.605469 188.175781 135.605469 188.164062 135.605469 Z M 188.164062 135.605469 "/></g><path style=" stroke:none;fill-rule:nonzero;fill:#366db3;fill-opacity:1;" d="M 150.839844 354.160156 C 116.179688 351.347656 82.507812 336.242188 57.882812 311.667969 C 32.871094 286.742188 17.933594 251.59375 16.257812 216.160156 C 14.4375 255.925781 29.710938 296.910156 57.882812 325 C 82.507812 349.539062 116.179688 364.644531 150.839844 367.453125 C 210.609375 372.292969 274.832031 337.027344 315.128906 286.957031 L 310.75 278.945312 C 270.285156 326.203125 208.488281 358.839844 150.839844 354.160156 "/><path style=" stroke:none;fill-rule:nonzero;fill:#366db3;fill-opacity:1;" d="M 334.902344 244.453125 L 338.367188 251.257812 C 345.675781 236.839844 350.914062 221.867188 353.640625 206.679688 C 355.246094 197.460938 355.765625 188.277344 355.246094 179.277344 C 354.980469 183.960938 354.460938 188.675781 353.640625 193.394531 C 350.527344 210.875 344.035156 228.09375 334.902344 244.453125 "/><path style=" stroke:none;fill-rule:nonzero;fill:#366db3;fill-opacity:1;" d="M 300.445312 169.554688 C 312.171875 194.3125 323.503906 219.394531 333.539062 242.703125 C 343.347656 225.65625 350.359375 207.59375 353.628906 189.28125 C 354.449219 184.574219 354.980469 179.859375 355.222656 175.199219 C 356.113281 158.371094 357.839844 124.695312 337.230469 118.265625 C 320.015625 112.886719 297.550781 122.753906 278.667969 124.890625 C 283.421875 134.347656 288.226562 144.097656 293.085938 154.195312 C 295.511719 159.214844 297.996094 164.355469 300.445312 169.554688 "/><path style=" stroke:none;fill-rule:nonzero;fill:#366db3;fill-opacity:1;" d="M 229.347656 92.652344 L 233.0625 100.496094 C 235.933594 98.140625 239.167969 96.03125 242.691406 94.367188 C 246.359375 92.628906 250.097656 91.445312 253.886719 90.734375 C 253.898438 90.734375 253.910156 90.734375 253.910156 90.734375 L 250.207031 82.890625 C 250.195312 82.890625 250.183594 82.890625 250.171875 82.890625 C 246.382812 83.605469 242.644531 84.785156 238.976562 86.523438 C 235.453125 88.1875 232.21875 90.300781 229.347656 92.652344 "/><g clip-rule="nonzero" clip-path="url(#42722c7ea1)"><path style=" stroke:none;fill-rule:nonzero;fill:#366db3;fill-opacity:1;" d="M 194.84375 20.011719 C 202.09375 26.101562 203.347656 34.753906 203.144531 43.71875 C 202.9375 52.742188 203.855469 61.332031 209.261719 68.824219 C 212.902344 73.878906 217.910156 78.101562 223.796875 80.273438 C 224.726562 80.613281 225.691406 80.890625 226.667969 81.128906 L 228.261719 90.277344 C 231.21875 87.609375 234.34375 85.414062 237.707031 83.820312 C 241.207031 82.167969 244.949219 81.117188 249.0625 80.5625 C 249.074219 80.5625 249.085938 80.5625 249.097656 80.550781 L 243.246094 73.769531 C 256.109375 55.804688 247.277344 31.507812 229.503906 19.960938 C 221.035156 14.449219 210.914062 11.40625 200.789062 11.515625 C 195.578125 11.566406 190.148438 12.457031 185.902344 15.496094 C 187.445312 14.386719 193.707031 19.058594 194.84375 20.011719 "/></g><path style=" stroke:none;fill-rule:nonzero;fill:#366db3;fill-opacity:1;" d="M 97.347656 179.339844 C 116.191406 179.339844 131.464844 194.601562 131.464844 213.445312 C 131.464844 232.28125 116.191406 247.554688 97.347656 247.554688 C 78.511719 247.554688 63.238281 232.28125 63.238281 213.445312 C 63.238281 194.601562 78.511719 179.339844 97.347656 179.339844 Z M 127.808594 72.457031 C 149.914062 72.457031 167.816406 90.371094 167.816406 112.464844 C 167.816406 134.566406 149.914062 152.46875 127.808594 152.46875 C 105.71875 152.46875 87.800781 134.566406 87.800781 112.464844 C 87.800781 90.371094 105.71875 72.457031 127.808594 72.457031 Z M 209.609375 278.269531 C 209.609375 295.234375 195.855469 308.988281 178.878906 308.988281 C 161.929688 308.988281 148.175781 295.234375 148.175781 278.269531 C 148.175781 261.308594 161.929688 247.554688 178.878906 247.554688 C 195.855469 247.554688 209.609375 261.308594 209.609375 278.269531 Z M 57.871094 307.578125 C 82.507812 332.140625 116.203125 347.246094 150.828125 350.070312 C 207.835938 354.703125 268.859375 322.789062 309.339844 276.414062 C 304.875 268.039062 300.265625 259.195312 295.597656 250.085938 C 291.035156 253.308594 285.472656 255.226562 279.453125 255.226562 C 263.972656 255.226562 251.425781 242.679688 251.425781 227.199219 C 251.425781 214.6875 259.628906 204.097656 270.960938 200.488281 C 268.738281 195.890625 266.53125 191.285156 264.335938 186.664062 C 262.078125 181.898438 259.871094 177.15625 257.699219 172.484375 L 257.121094 171.230469 C 246.457031 148.355469 219.902344 87.949219 218.792969 85.039062 C 213.121094 82.363281 208.015625 78.1875 204 72.625 C 197.160156 63.152344 196.445312 52.621094 196.664062 43.574219 C 196.664062 43.488281 196.652344 43.429688 196.664062 43.34375 C 194.710938 41.425781 192.597656 39.617188 190.234375 37.976562 C 153.738281 12.433594 101.859375 46.371094 76.726562 72.480469 C 48.640625 101.640625 25.476562 141.238281 18.285156 181.089844 C 16.4375 191.285156 15.773438 201.683594 16.269531 212.082031 C 17.945312 247.492188 32.847656 282.652344 57.871094 307.578125 "/><path style=" stroke:none;fill-rule:nonzero;fill:#366db3;fill-opacity:1;" d="M 294.582031 172.328125 C 292.132812 167.152344 289.660156 162.027344 287.234375 157.019531 C 276.148438 134 265.363281 112.65625 255.433594 93.992188 C 251.644531 94.691406 247.902344 95.886719 244.234375 97.613281 C 240.617188 99.335938 237.285156 101.496094 234.367188 103.921875 C 242.523438 123.429688 252.210938 145.339844 263.007812 168.492188 C 265.347656 173.546875 267.75 178.699219 270.210938 183.875 C 311.496094 271.042969 355.691406 350.25 362.4375 347.066406 C 369.15625 343.867188 335.882812 259.484375 294.582031 172.328125 "/></g></svg>