<svg xmlns="http://www.w3.org/2000/svg" xmlns:xlink="http://www.w3.org/1999/xlink" width="512" zoomAndPan="magnify" viewBox="0 0 384 383.999986" height="512" preserveAspectRatio="xMidYMid meet" version="1.2"><defs><clipPath id="26183e339c"><path d="M 214.878906 140.367188 L 226.878906 140.367188 L 226.878906 144.867188 L 214.878906 144.867188 Z M 214.878906 140.367188 "/></clipPath><clipPath id="df40c64cb7"><path d="M 15.34375 171 L 77 171 L 77 252 L 15.34375 252 Z M 15.34375 171 "/></clipPath></defs><g id="7ac63e8368"><g clip-rule="nonzero" clip-path="url(#26183e339c)"><path style=" stroke:none;fill-rule:nonzero;fill:#000000;fill-opacity:1;" d="M 217.648438 143.644531 C 217.640625 143.609375 217.632812 143.578125 217.621094 143.546875 C 217.597656 143.476562 217.574219 143.40625 217.550781 143.339844 C 217.542969 143.316406 217.53125 143.289062 217.523438 143.265625 C 217.503906 143.226562 217.496094 143.1875 217.492188 143.144531 C 217.488281 143.09375 217.484375 143.042969 217.484375 142.988281 C 217.484375 142.949219 217.488281 142.910156 217.492188 142.871094 C 217.5 142.816406 217.507812 142.765625 217.527344 142.714844 C 217.546875 142.664062 217.5625 142.613281 217.582031 142.5625 C 217.585938 142.554688 217.589844 142.546875 217.59375 142.539062 C 217.632812 142.492188 217.671875 142.441406 217.710938 142.394531 C 217.691406 142.382812 217.671875 142.375 217.648438 142.363281 C 217.589844 142.339844 217.53125 142.316406 217.472656 142.289062 C 217.414062 142.265625 217.367188 142.230469 217.324219 142.1875 C 217.300781 142.160156 217.273438 142.136719 217.25 142.109375 C 217.214844 142.074219 217.171875 142.054688 217.128906 142.035156 C 217.070312 142.007812 217.011719 141.984375 216.953125 141.957031 C 216.9375 141.953125 216.925781 141.949219 216.914062 141.945312 C 216.902344 141.945312 216.890625 141.945312 216.882812 141.949219 C 216.859375 141.960938 216.839844 141.972656 216.816406 141.984375 C 216.800781 141.992188 216.785156 142 216.769531 142 C 216.757812 142 216.742188 142.003906 216.734375 142.007812 C 216.703125 142.019531 216.675781 142.035156 216.644531 142.050781 C 216.636719 142.054688 216.625 142.054688 216.613281 142.058594 C 216.601562 142.058594 216.59375 142.054688 216.585938 142.042969 C 216.582031 142.035156 216.582031 142.027344 216.589844 142.019531 C 216.605469 142 216.625 141.988281 216.648438 141.976562 C 216.664062 141.972656 216.683594 141.960938 216.699219 141.957031 C 216.683594 141.914062 216.652344 141.894531 216.609375 141.898438 C 216.566406 141.902344 216.523438 141.90625 216.480469 141.910156 C 216.457031 141.914062 216.433594 141.910156 216.414062 141.902344 C 216.398438 141.894531 216.390625 141.882812 216.394531 141.863281 C 216.449219 141.859375 216.507812 141.859375 216.570312 141.847656 C 216.554688 141.835938 216.539062 141.824219 216.523438 141.816406 C 216.503906 141.808594 216.488281 141.796875 216.472656 141.785156 C 216.457031 141.777344 216.445312 141.765625 216.433594 141.75 C 216.421875 141.742188 216.421875 141.726562 216.429688 141.714844 C 216.449219 141.71875 216.464844 141.726562 216.480469 141.734375 C 216.523438 141.769531 216.578125 141.789062 216.628906 141.816406 C 216.644531 141.824219 216.660156 141.824219 216.675781 141.820312 C 216.691406 141.8125 216.707031 141.808594 216.722656 141.804688 C 216.714844 141.796875 216.710938 141.792969 216.703125 141.789062 C 216.6875 141.78125 216.671875 141.773438 216.660156 141.765625 C 216.632812 141.753906 216.625 141.738281 216.632812 141.710938 C 216.648438 141.714844 216.664062 141.71875 216.679688 141.722656 C 216.703125 141.730469 216.722656 141.738281 216.742188 141.753906 C 216.757812 141.765625 216.78125 141.78125 216.800781 141.789062 C 216.820312 141.796875 216.839844 141.800781 216.863281 141.800781 C 216.898438 141.804688 216.933594 141.804688 216.972656 141.808594 C 216.984375 141.8125 217 141.816406 217.011719 141.820312 C 217.097656 141.84375 217.179688 141.878906 217.257812 141.917969 C 217.335938 141.953125 217.414062 141.992188 217.488281 142.027344 C 217.550781 142.058594 217.613281 142.089844 217.675781 142.117188 C 217.746094 142.144531 217.816406 142.171875 217.886719 142.199219 C 217.898438 142.203125 217.90625 142.207031 217.917969 142.207031 C 217.941406 142.210938 217.957031 142.203125 217.96875 142.183594 C 217.980469 142.160156 217.996094 142.140625 218.015625 142.121094 C 218.042969 142.089844 218.074219 142.054688 218.105469 142.023438 C 218.132812 141.992188 218.148438 141.960938 218.152344 141.921875 C 218.15625 141.902344 218.15625 141.886719 218.15625 141.867188 C 218.160156 141.847656 218.160156 141.828125 218.164062 141.808594 C 218.167969 141.792969 218.195312 141.773438 218.214844 141.777344 C 218.234375 141.78125 218.25 141.777344 218.261719 141.765625 C 218.261719 141.765625 218.265625 141.761719 218.265625 141.761719 C 218.292969 141.765625 218.316406 141.738281 218.347656 141.746094 C 218.351562 141.746094 218.355469 141.746094 218.355469 141.746094 C 218.363281 141.734375 218.371094 141.726562 218.378906 141.714844 C 218.394531 141.699219 218.402344 141.695312 218.425781 141.710938 C 218.457031 141.730469 218.484375 141.753906 218.515625 141.777344 C 218.535156 141.792969 218.558594 141.796875 218.582031 141.78125 C 218.589844 141.777344 218.601562 141.777344 218.613281 141.785156 C 218.65625 141.808594 218.707031 141.828125 218.742188 141.859375 C 218.765625 141.878906 218.785156 141.90625 218.800781 141.929688 C 218.808594 141.9375 218.8125 141.941406 218.816406 141.949219 C 218.902344 141.914062 218.988281 141.878906 219.066406 141.832031 C 219.160156 141.777344 219.257812 141.71875 219.351562 141.664062 C 219.382812 141.644531 219.414062 141.628906 219.445312 141.613281 C 219.453125 141.609375 219.457031 141.605469 219.460938 141.605469 C 219.484375 141.597656 219.488281 141.597656 219.5 141.617188 C 219.652344 141.53125 219.800781 141.449219 219.953125 141.359375 C 219.9375 141.34375 219.921875 141.324219 219.90625 141.308594 C 219.941406 141.25 219.996094 141.222656 220.058594 141.199219 C 220.121094 141.171875 220.1875 141.160156 220.253906 141.148438 C 220.304688 141.144531 220.355469 141.136719 220.40625 141.132812 C 220.445312 141.128906 220.488281 141.128906 220.527344 141.125 C 220.605469 141.121094 220.683594 141.121094 220.761719 141.117188 C 220.773438 141.117188 220.777344 141.113281 220.785156 141.105469 C 220.808594 141.066406 220.835938 141.023438 220.863281 140.984375 C 220.902344 140.929688 220.949219 140.882812 220.996094 140.832031 C 221.050781 140.78125 221.105469 140.734375 221.167969 140.6875 C 221.273438 140.613281 221.390625 140.546875 221.511719 140.496094 C 221.609375 140.457031 221.714844 140.425781 221.820312 140.398438 C 221.917969 140.378906 222.019531 140.367188 222.121094 140.375 C 222.214844 140.382812 222.308594 140.402344 222.390625 140.445312 C 222.433594 140.46875 222.472656 140.496094 222.503906 140.53125 C 222.53125 140.5625 222.539062 140.597656 222.539062 140.636719 C 222.539062 140.671875 222.546875 140.710938 222.550781 140.746094 C 222.554688 140.777344 222.554688 140.8125 222.554688 140.84375 C 222.554688 140.878906 222.539062 140.910156 222.515625 140.9375 C 222.46875 140.992188 222.417969 141.042969 222.351562 141.074219 C 222.300781 141.105469 222.242188 141.121094 222.183594 141.132812 C 222.128906 141.144531 222.070312 141.15625 222.011719 141.164062 C 221.960938 141.171875 221.910156 141.175781 221.859375 141.183594 C 221.816406 141.1875 221.773438 141.191406 221.730469 141.191406 C 221.664062 141.195312 221.597656 141.203125 221.53125 141.207031 C 221.511719 141.207031 221.492188 141.207031 221.46875 141.207031 C 221.351562 141.210938 221.230469 141.210938 221.113281 141.214844 C 221.046875 141.214844 220.984375 141.214844 220.921875 141.21875 C 220.917969 141.21875 220.914062 141.21875 220.90625 141.222656 C 220.925781 141.230469 220.941406 141.242188 220.957031 141.25 C 221.039062 141.289062 221.125 141.320312 221.21875 141.339844 C 221.296875 141.363281 221.378906 141.382812 221.460938 141.398438 C 221.53125 141.414062 221.601562 141.429688 221.671875 141.441406 C 221.730469 141.453125 221.785156 141.464844 221.839844 141.476562 C 221.890625 141.484375 221.941406 141.492188 221.992188 141.503906 C 222.066406 141.515625 222.144531 141.53125 222.21875 141.546875 C 222.296875 141.5625 222.375 141.578125 222.453125 141.597656 C 222.613281 141.636719 222.773438 141.683594 222.925781 141.746094 C 222.988281 141.773438 223.050781 141.804688 223.101562 141.851562 C 223.101562 141.855469 223.105469 141.855469 223.109375 141.859375 C 223.144531 141.835938 223.183594 141.816406 223.214844 141.792969 C 223.300781 141.730469 223.386719 141.671875 223.472656 141.609375 C 223.578125 141.53125 223.683594 141.449219 223.789062 141.371094 C 223.863281 141.3125 223.9375 141.253906 224.015625 141.195312 C 224.09375 141.132812 224.171875 141.074219 224.25 141.015625 C 224.335938 140.949219 224.425781 140.886719 224.511719 140.828125 C 224.601562 140.761719 224.699219 140.699219 224.796875 140.644531 C 224.863281 140.605469 224.933594 140.570312 225.003906 140.535156 C 225.058594 140.507812 225.117188 140.484375 225.175781 140.464844 C 225.246094 140.445312 225.316406 140.4375 225.390625 140.445312 C 225.421875 140.449219 225.453125 140.449219 225.480469 140.453125 C 225.554688 140.464844 225.617188 140.492188 225.664062 140.542969 C 225.6875 140.570312 225.714844 140.601562 225.734375 140.632812 C 225.75 140.65625 225.769531 140.679688 225.789062 140.699219 C 225.835938 140.746094 225.867188 140.804688 225.878906 140.867188 C 225.886719 140.898438 225.882812 140.929688 225.875 140.960938 C 225.863281 141.015625 225.851562 141.070312 225.832031 141.125 C 225.800781 141.214844 225.75 141.296875 225.691406 141.375 C 225.640625 141.445312 225.582031 141.507812 225.515625 141.566406 C 225.441406 141.632812 225.355469 141.691406 225.261719 141.734375 C 225.214844 141.757812 225.164062 141.777344 225.117188 141.796875 C 225.113281 141.800781 225.109375 141.800781 225.097656 141.804688 C 225.125 141.8125 225.148438 141.816406 225.171875 141.820312 C 225.207031 141.828125 225.242188 141.832031 225.277344 141.839844 C 225.292969 141.84375 225.304688 141.839844 225.316406 141.832031 C 225.34375 141.8125 225.367188 141.792969 225.394531 141.773438 C 225.449219 141.730469 225.5 141.6875 225.554688 141.648438 C 225.617188 141.597656 225.683594 141.550781 225.746094 141.503906 C 225.8125 141.457031 225.878906 141.410156 225.945312 141.367188 C 226.019531 141.316406 226.097656 141.269531 226.179688 141.226562 C 226.25 141.191406 226.320312 141.152344 226.394531 141.136719 C 226.414062 141.128906 226.4375 141.125 226.457031 141.125 C 226.511719 141.121094 226.566406 141.121094 226.621094 141.128906 C 226.683594 141.136719 226.730469 141.167969 226.765625 141.210938 C 226.800781 141.253906 226.832031 141.292969 226.847656 141.339844 C 226.859375 141.371094 226.867188 141.402344 226.871094 141.433594 C 226.875 141.515625 226.839844 141.582031 226.785156 141.644531 C 226.753906 141.6875 226.714844 141.722656 226.675781 141.757812 C 226.609375 141.816406 226.535156 141.863281 226.453125 141.90625 C 226.371094 141.945312 226.28125 141.976562 226.191406 141.996094 C 226.117188 142.015625 226.042969 142.027344 225.964844 142.03125 C 225.898438 142.03125 225.832031 142.035156 225.761719 142.03125 C 225.722656 142.03125 225.679688 142.027344 225.636719 142.023438 C 225.585938 142.015625 225.53125 142.007812 225.480469 142 C 225.429688 141.992188 225.375 141.980469 225.320312 141.964844 C 225.316406 141.96875 225.308594 141.972656 225.300781 141.976562 C 225.238281 142.027344 225.179688 142.074219 225.113281 142.121094 C 225.046875 142.175781 224.976562 142.222656 224.90625 142.273438 C 224.835938 142.324219 224.757812 142.367188 224.679688 142.402344 C 224.621094 142.429688 224.558594 142.445312 224.496094 142.449219 C 224.46875 142.449219 224.445312 142.441406 224.421875 142.4375 C 224.414062 142.402344 224.417969 142.371094 224.425781 142.339844 C 224.453125 142.335938 224.476562 142.335938 224.5 142.332031 C 224.566406 142.320312 224.628906 142.296875 224.6875 142.269531 C 224.792969 142.21875 224.886719 142.152344 224.980469 142.082031 C 225.046875 142.039062 225.109375 141.988281 225.171875 141.941406 C 225.175781 141.941406 225.179688 141.9375 225.1875 141.933594 C 225.179688 141.929688 225.175781 141.925781 225.171875 141.925781 C 225.109375 141.902344 225.042969 141.886719 224.980469 141.863281 C 224.953125 141.851562 224.933594 141.855469 224.910156 141.859375 C 224.839844 141.871094 224.773438 141.886719 224.703125 141.898438 C 224.632812 141.910156 224.5625 141.914062 224.492188 141.917969 C 224.363281 141.929688 224.234375 141.929688 224.105469 141.929688 C 224.082031 141.929688 224.058594 141.925781 224.039062 141.917969 C 224.003906 141.902344 223.96875 141.890625 223.9375 141.875 C 223.902344 141.859375 223.871094 141.835938 223.847656 141.804688 C 223.828125 141.773438 223.832031 141.734375 223.855469 141.707031 C 223.875 141.6875 223.894531 141.675781 223.917969 141.664062 C 223.972656 141.640625 224.03125 141.628906 224.089844 141.625 C 224.125 141.625 224.15625 141.621094 224.191406 141.621094 C 224.253906 141.621094 224.316406 141.625 224.378906 141.632812 C 224.449219 141.640625 224.515625 141.652344 224.578125 141.664062 C 224.648438 141.679688 224.710938 141.710938 224.777344 141.734375 C 224.804688 141.746094 224.835938 141.75 224.863281 141.753906 C 224.871094 141.757812 224.878906 141.753906 224.886719 141.753906 C 225.011719 141.707031 225.128906 141.652344 225.238281 141.582031 C 225.332031 141.523438 225.417969 141.457031 225.496094 141.382812 C 225.570312 141.308594 225.640625 141.230469 225.691406 141.140625 C 225.730469 141.074219 225.761719 141 225.773438 140.921875 C 225.785156 140.855469 225.785156 140.789062 225.769531 140.71875 C 225.765625 140.703125 225.757812 140.691406 225.742188 140.679688 C 225.683594 140.644531 225.625 140.621094 225.558594 140.609375 C 225.476562 140.597656 225.398438 140.605469 225.320312 140.621094 C 225.207031 140.644531 225.097656 140.6875 224.992188 140.734375 C 224.835938 140.804688 224.6875 140.890625 224.546875 140.988281 C 224.460938 141.042969 224.375 141.101562 224.289062 141.160156 C 224.21875 141.210938 224.148438 141.265625 224.078125 141.320312 C 224.023438 141.359375 223.96875 141.402344 223.917969 141.441406 C 223.859375 141.488281 223.800781 141.535156 223.738281 141.582031 C 223.640625 141.65625 223.542969 141.734375 223.441406 141.808594 C 223.367188 141.863281 223.285156 141.917969 223.207031 141.96875 C 223.203125 141.972656 223.203125 141.976562 223.199219 141.976562 C 223.214844 142.011719 223.226562 142.046875 223.222656 142.085938 C 223.222656 142.121094 223.214844 142.152344 223.199219 142.183594 C 223.183594 142.222656 223.171875 142.265625 223.160156 142.304688 C 223.15625 142.3125 223.15625 142.320312 223.152344 142.324219 C 223.140625 142.359375 223.121094 142.378906 223.082031 142.390625 C 223.007812 142.410156 222.933594 142.425781 222.859375 142.417969 C 222.753906 142.410156 222.667969 142.375 222.617188 142.285156 C 222.589844 142.238281 222.582031 142.1875 222.59375 142.136719 C 222.601562 142.101562 222.613281 142.066406 222.632812 142.035156 C 222.640625 142.023438 222.648438 142.015625 222.664062 142.015625 C 222.769531 142.015625 222.867188 141.984375 222.960938 141.9375 C 222.960938 141.9375 222.960938 141.9375 222.964844 141.933594 C 222.945312 141.921875 222.925781 141.910156 222.90625 141.898438 C 222.808594 141.84375 222.703125 141.800781 222.59375 141.765625 C 222.488281 141.726562 222.378906 141.695312 222.269531 141.671875 C 222.195312 141.652344 222.121094 141.636719 222.046875 141.621094 C 221.972656 141.605469 221.898438 141.589844 221.824219 141.574219 C 221.761719 141.5625 221.695312 141.550781 221.628906 141.539062 C 221.578125 141.53125 221.527344 141.519531 221.476562 141.511719 C 221.386719 141.492188 221.296875 141.472656 221.207031 141.453125 C 221.101562 141.429688 220.996094 141.398438 220.898438 141.351562 C 220.835938 141.324219 220.777344 141.289062 220.738281 141.230469 C 220.730469 141.222656 220.722656 141.222656 220.714844 141.222656 C 220.648438 141.226562 220.585938 141.230469 220.519531 141.234375 C 220.445312 141.238281 220.375 141.246094 220.300781 141.257812 C 220.242188 141.265625 220.1875 141.277344 220.132812 141.296875 C 220.109375 141.304688 220.085938 141.320312 220.066406 141.332031 C 219.929688 141.414062 219.796875 141.492188 219.664062 141.570312 C 219.570312 141.625 219.476562 141.683594 219.382812 141.738281 C 219.382812 141.738281 219.378906 141.742188 219.371094 141.746094 C 219.390625 141.757812 219.410156 141.765625 219.429688 141.773438 C 219.460938 141.785156 219.492188 141.796875 219.519531 141.808594 C 219.550781 141.824219 219.550781 141.847656 219.519531 141.863281 C 219.503906 141.875 219.480469 141.875 219.460938 141.871094 C 219.429688 141.863281 219.402344 141.871094 219.371094 141.886719 C 219.34375 141.902344 219.308594 141.910156 219.273438 141.921875 C 219.265625 141.925781 219.253906 141.925781 219.242188 141.925781 C 219.222656 141.921875 219.207031 141.925781 219.191406 141.9375 C 219.148438 141.964844 219.109375 141.996094 219.070312 142.023438 C 219.011719 142.066406 218.949219 142.105469 218.890625 142.148438 C 218.882812 142.152344 218.875 142.15625 218.867188 142.160156 C 218.859375 142.167969 218.851562 142.175781 218.851562 142.179688 C 218.851562 142.207031 218.839844 142.234375 218.828125 142.257812 C 218.835938 142.277344 218.847656 142.296875 218.855469 142.316406 C 218.863281 142.335938 218.859375 142.359375 218.851562 142.378906 C 218.839844 142.410156 218.8125 142.433594 218.777344 142.441406 C 218.734375 142.449219 218.695312 142.441406 218.660156 142.421875 C 218.652344 142.414062 218.644531 142.414062 218.632812 142.417969 C 218.578125 142.429688 218.527344 142.429688 218.472656 142.414062 C 218.457031 142.40625 218.441406 142.402344 218.425781 142.398438 C 218.410156 142.390625 218.390625 142.390625 218.390625 142.371094 C 218.390625 142.367188 218.386719 142.363281 218.382812 142.359375 C 218.375 142.355469 218.367188 142.347656 218.359375 142.339844 C 218.351562 142.339844 218.347656 142.34375 218.351562 142.355469 C 218.355469 142.363281 218.363281 142.375 218.363281 142.386719 C 218.378906 142.429688 218.375 142.472656 218.367188 142.519531 C 218.355469 142.621094 218.324219 142.71875 218.292969 142.816406 C 218.28125 142.859375 218.265625 142.902344 218.253906 142.949219 C 218.242188 142.992188 218.234375 143.035156 218.238281 143.078125 C 218.238281 143.089844 218.238281 143.105469 218.238281 143.117188 C 218.234375 143.144531 218.246094 143.167969 218.261719 143.1875 C 218.261719 143.191406 218.269531 143.199219 218.269531 143.203125 C 218.28125 143.226562 218.300781 143.234375 218.328125 143.238281 C 218.375 143.242188 218.421875 143.261719 218.464844 143.28125 C 218.515625 143.308594 218.558594 143.34375 218.605469 143.375 C 218.628906 143.394531 218.648438 143.410156 218.671875 143.429688 C 218.691406 143.445312 218.714844 143.445312 218.738281 143.449219 C 218.765625 143.453125 218.792969 143.453125 218.824219 143.453125 C 218.855469 143.453125 218.890625 143.453125 218.921875 143.449219 C 218.988281 143.4375 219.058594 143.425781 219.125 143.417969 C 219.132812 143.417969 219.136719 143.417969 219.144531 143.417969 C 219.195312 143.414062 219.246094 143.410156 219.296875 143.40625 C 219.335938 143.402344 219.375 143.398438 219.410156 143.394531 C 219.472656 143.382812 219.53125 143.375 219.585938 143.355469 C 219.617188 143.34375 219.636719 143.324219 219.648438 143.296875 C 219.664062 143.261719 219.683594 143.222656 219.703125 143.183594 C 219.734375 143.121094 219.78125 143.070312 219.84375 143.03125 C 219.914062 142.980469 219.980469 142.925781 220.050781 142.875 C 220.09375 142.847656 220.132812 142.820312 220.175781 142.792969 C 220.238281 142.753906 220.296875 142.707031 220.339844 142.648438 C 220.355469 142.632812 220.371094 142.617188 220.386719 142.597656 C 220.390625 142.589844 220.394531 142.582031 220.394531 142.574219 C 220.390625 142.550781 220.390625 142.527344 220.386719 142.507812 C 220.375 142.445312 220.414062 142.398438 220.484375 142.398438 C 220.535156 142.398438 220.582031 142.398438 220.632812 142.398438 C 220.648438 142.398438 220.664062 142.394531 220.679688 142.390625 C 220.714844 142.378906 220.746094 142.359375 220.773438 142.335938 C 220.777344 142.332031 220.785156 142.324219 220.789062 142.3125 C 220.804688 142.289062 220.820312 142.265625 220.835938 142.242188 C 220.84375 142.226562 220.851562 142.214844 220.859375 142.199219 C 220.867188 142.179688 220.882812 142.167969 220.902344 142.160156 C 220.917969 142.152344 220.925781 142.152344 220.9375 142.164062 C 220.964844 142.191406 220.976562 142.226562 220.972656 142.265625 C 220.972656 142.285156 220.96875 142.308594 220.96875 142.328125 C 220.964844 142.34375 220.960938 142.359375 220.949219 142.371094 C 220.921875 142.40625 220.890625 142.445312 220.863281 142.484375 C 220.851562 142.496094 220.839844 142.511719 220.832031 142.527344 C 220.808594 142.570312 220.773438 142.601562 220.734375 142.632812 C 220.6875 142.675781 220.636719 142.714844 220.589844 142.757812 C 220.539062 142.796875 220.492188 142.839844 220.445312 142.882812 C 220.410156 142.914062 220.378906 142.949219 220.34375 142.984375 C 220.300781 143.023438 220.269531 143.074219 220.234375 143.117188 C 220.207031 143.152344 220.175781 143.183594 220.148438 143.214844 C 220.078125 143.292969 220.015625 143.371094 219.957031 143.457031 C 219.914062 143.519531 219.871094 143.578125 219.824219 143.636719 C 219.8125 143.652344 219.792969 143.664062 219.769531 143.667969 C 219.707031 143.679688 219.644531 143.703125 219.582031 143.722656 C 219.519531 143.746094 219.453125 143.761719 219.386719 143.773438 C 219.34375 143.78125 219.296875 143.789062 219.253906 143.796875 C 219.222656 143.800781 219.191406 143.804688 219.160156 143.808594 C 219.132812 143.8125 219.109375 143.8125 219.082031 143.816406 C 219.023438 143.824219 218.964844 143.828125 218.90625 143.835938 C 218.859375 143.84375 218.8125 143.851562 218.769531 143.859375 C 218.6875 143.871094 218.605469 143.890625 218.519531 143.894531 C 218.496094 143.898438 218.46875 143.894531 218.441406 143.890625 C 218.421875 143.890625 218.398438 143.890625 218.378906 143.902344 C 218.335938 143.921875 218.289062 143.9375 218.238281 143.949219 C 218.207031 143.960938 218.171875 143.972656 218.140625 143.988281 C 218.097656 144.007812 218.054688 144.03125 218.011719 144.050781 C 217.988281 144.0625 217.960938 144.070312 217.933594 144.082031 C 217.863281 144.109375 217.789062 144.136719 217.714844 144.164062 C 217.621094 144.199219 217.523438 144.234375 217.425781 144.265625 C 217.324219 144.296875 217.222656 144.332031 217.125 144.371094 C 217.042969 144.402344 216.953125 144.429688 216.867188 144.460938 C 216.84375 144.46875 216.820312 144.480469 216.792969 144.492188 C 216.703125 144.539062 216.613281 144.585938 216.523438 144.628906 C 216.492188 144.644531 216.453125 144.652344 216.421875 144.660156 C 216.414062 144.664062 216.40625 144.664062 216.398438 144.664062 C 216.3125 144.664062 216.226562 144.667969 216.140625 144.675781 C 216.089844 144.679688 216.039062 144.683594 215.988281 144.683594 C 215.894531 144.679688 215.808594 144.695312 215.71875 144.71875 C 215.707031 144.722656 215.695312 144.726562 215.683594 144.730469 C 215.640625 144.742188 215.609375 144.769531 215.589844 144.804688 C 215.570312 144.847656 215.53125 144.859375 215.480469 144.855469 C 215.449219 144.851562 215.421875 144.835938 215.394531 144.824219 C 215.371094 144.808594 215.34375 144.796875 215.320312 144.785156 C 215.296875 144.769531 215.269531 144.765625 215.242188 144.773438 C 215.171875 144.789062 215.101562 144.804688 215.03125 144.820312 C 215.015625 144.824219 215.003906 144.832031 214.996094 144.839844 C 214.964844 144.867188 214.933594 144.867188 214.898438 144.863281 C 214.886719 144.863281 214.882812 144.855469 214.882812 144.847656 C 214.882812 144.832031 214.878906 144.820312 214.890625 144.804688 C 214.90625 144.78125 214.917969 144.753906 214.9375 144.730469 C 214.957031 144.703125 214.984375 144.683594 215.015625 144.667969 C 215.113281 144.628906 215.210938 144.585938 215.308594 144.542969 C 215.347656 144.523438 215.394531 144.515625 215.441406 144.511719 C 215.492188 144.503906 215.542969 144.492188 215.59375 144.488281 C 215.640625 144.484375 215.691406 144.484375 215.738281 144.484375 C 215.765625 144.484375 215.789062 144.484375 215.8125 144.480469 C 215.890625 144.46875 215.960938 144.449219 216.03125 144.421875 C 216.105469 144.394531 216.175781 144.367188 216.25 144.34375 C 216.300781 144.328125 216.351562 144.320312 216.402344 144.308594 C 216.417969 144.304688 216.429688 144.304688 216.445312 144.296875 C 216.480469 144.289062 216.519531 144.277344 216.554688 144.265625 C 216.59375 144.25 216.632812 144.230469 216.671875 144.214844 C 216.71875 144.195312 216.765625 144.171875 216.8125 144.152344 C 216.839844 144.140625 216.867188 144.125 216.890625 144.109375 C 216.90625 144.101562 216.917969 144.09375 216.933594 144.09375 C 216.972656 144.082031 217.003906 144.0625 217.03125 144.03125 C 217.09375 143.96875 217.15625 143.910156 217.222656 143.851562 C 217.292969 143.789062 217.375 143.746094 217.464844 143.707031 C 217.523438 143.679688 217.582031 143.660156 217.648438 143.644531 Z M 220.820312 141.117188 C 220.832031 141.117188 220.835938 141.117188 220.84375 141.117188 C 220.875 141.117188 220.90625 141.117188 220.941406 141.113281 C 221.015625 141.113281 221.089844 141.113281 221.164062 141.109375 C 221.238281 141.109375 221.3125 141.105469 221.386719 141.105469 C 221.429688 141.101562 221.476562 141.101562 221.519531 141.097656 C 221.570312 141.09375 221.621094 141.089844 221.667969 141.082031 C 221.742188 141.074219 221.816406 141.066406 221.886719 141.054688 C 221.96875 141.042969 222.050781 141.023438 222.132812 141 C 222.234375 140.972656 222.332031 140.933594 222.414062 140.867188 C 222.457031 140.832031 222.492188 140.792969 222.511719 140.742188 C 222.515625 140.734375 222.515625 140.722656 222.511719 140.714844 C 222.488281 140.65625 222.453125 140.609375 222.410156 140.570312 C 222.363281 140.527344 222.308594 140.5 222.246094 140.484375 C 222.191406 140.472656 222.136719 140.46875 222.078125 140.472656 C 222.015625 140.476562 221.957031 140.484375 221.894531 140.496094 C 221.785156 140.515625 221.679688 140.546875 221.574219 140.585938 C 221.480469 140.617188 221.394531 140.65625 221.308594 140.703125 C 221.175781 140.777344 221.050781 140.863281 220.945312 140.96875 C 220.898438 141.011719 220.859375 141.0625 220.820312 141.117188 Z M 225.449219 141.867188 C 225.472656 141.871094 225.496094 141.875 225.515625 141.875 C 225.574219 141.882812 225.628906 141.886719 225.683594 141.890625 C 225.734375 141.894531 225.78125 141.898438 225.828125 141.898438 C 225.898438 141.902344 225.964844 141.898438 226.035156 141.890625 C 226.097656 141.882812 226.164062 141.871094 226.226562 141.851562 C 226.296875 141.832031 226.367188 141.800781 226.433594 141.769531 C 226.53125 141.722656 226.617188 141.664062 226.683594 141.582031 C 226.75 141.5 226.792969 141.414062 226.804688 141.3125 C 226.804688 141.300781 226.804688 141.292969 226.792969 141.289062 C 226.777344 141.277344 226.761719 141.265625 226.746094 141.257812 C 226.6875 141.234375 226.632812 141.234375 226.574219 141.242188 C 226.507812 141.253906 226.449219 141.273438 226.390625 141.292969 C 226.28125 141.332031 226.179688 141.386719 226.078125 141.441406 C 225.976562 141.496094 225.875 141.558594 225.777344 141.628906 C 225.695312 141.683594 225.617188 141.742188 225.535156 141.796875 C 225.507812 141.820312 225.480469 141.839844 225.449219 141.867188 Z M 224.78125 141.785156 C 224.746094 141.769531 224.710938 141.753906 224.679688 141.738281 C 224.644531 141.722656 224.605469 141.710938 224.566406 141.707031 C 224.507812 141.703125 224.449219 141.699219 224.386719 141.703125 C 224.359375 141.703125 224.332031 141.707031 224.300781 141.710938 C 224.238281 141.71875 224.183594 141.742188 224.128906 141.769531 C 224.097656 141.785156 224.070312 141.804688 224.050781 141.828125 C 224.039062 141.839844 224.027344 141.851562 224.03125 141.867188 C 224.035156 141.871094 224.042969 141.875 224.046875 141.875 C 224.070312 141.878906 224.089844 141.878906 224.109375 141.878906 C 224.140625 141.878906 224.171875 141.878906 224.203125 141.875 C 224.25 141.875 224.296875 141.875 224.34375 141.867188 C 224.40625 141.863281 224.46875 141.851562 224.53125 141.84375 C 224.613281 141.832031 224.695312 141.808594 224.78125 141.785156 Z M 222.691406 142.15625 C 222.695312 142.164062 222.699219 142.167969 222.703125 142.171875 C 222.742188 142.21875 222.792969 142.253906 222.855469 142.277344 C 222.90625 142.300781 222.957031 142.300781 223.007812 142.289062 C 223.054688 142.28125 223.09375 142.257812 223.128906 142.234375 C 223.15625 142.21875 223.167969 142.203125 223.160156 142.171875 C 223.144531 142.125 223.121094 142.082031 223.089844 142.042969 C 223.046875 142.0625 223.003906 142.085938 222.957031 142.105469 C 222.882812 142.136719 222.804688 142.160156 222.71875 142.15625 C 222.710938 142.15625 222.703125 142.15625 222.691406 142.15625 Z M 222.691406 142.15625 "/></g><path style=" stroke:none;fill-rule:nonzero;fill:#366db3;fill-opacity:1;" d="M 330.75 62.496094 L 336.816406 51.40625 L 347.902344 45.347656 L 336.816406 39.28125 L 330.75 28.203125 L 324.691406 39.28125 L 313.601562 45.347656 L 324.691406 51.40625 Z M 330.75 62.496094 "/><path style=" stroke:none;fill-rule:nonzero;fill:#366db3;fill-opacity:1;" d="M 79.28125 319.324219 L 75.164062 326.851562 L 67.628906 330.972656 L 75.164062 335.097656 L 79.28125 342.625 L 83.402344 335.097656 L 90.9375 330.972656 L 83.402344 326.851562 Z M 79.28125 319.324219 "/><path style=" stroke:none;fill-rule:nonzero;fill:#366db3;fill-opacity:1;" d="M 316.683594 268.808594 L 312.566406 276.34375 L 305.03125 280.464844 L 312.566406 284.585938 L 316.683594 292.121094 L 320.804688 284.585938 L 328.339844 280.464844 L 320.804688 276.34375 Z M 316.683594 268.808594 "/><path style=" stroke:none;fill-rule:nonzero;fill:#366db3;fill-opacity:1;" d="M 30.90625 66.855469 L 35.023438 59.328125 L 42.558594 55.203125 L 35.023438 51.082031 L 30.90625 43.554688 L 26.785156 51.082031 L 19.25 55.203125 L 26.785156 59.328125 Z M 30.90625 66.855469 "/><g clip-rule="nonzero" clip-path="url(#df40c64cb7)"><path style=" stroke:none;fill-rule:nonzero;fill:#366db3;fill-opacity:1;" d="M 66.300781 197.949219 C 66.640625 198.203125 67 198.425781 67.378906 198.609375 C 67.761719 198.796875 68.15625 198.941406 68.566406 199.050781 C 68.972656 199.160156 69.390625 199.226562 69.8125 199.253906 C 70.234375 199.28125 70.65625 199.269531 71.078125 199.214844 C 71.496094 199.160156 71.90625 199.066406 72.308594 198.933594 C 72.710938 198.796875 73.09375 198.625 73.464844 198.417969 C 73.832031 198.207031 74.175781 197.964844 74.496094 197.6875 C 74.820312 197.414062 75.109375 197.109375 75.371094 196.773438 C 75.632812 196.441406 75.859375 196.085938 76.054688 195.710938 C 76.246094 195.332031 76.402344 194.941406 76.515625 194.535156 C 76.632812 194.125 76.710938 193.710938 76.746094 193.289062 C 76.78125 192.867188 76.777344 192.445312 76.730469 192.023438 C 76.683594 191.605469 76.597656 191.191406 76.472656 190.789062 C 76.34375 190.382812 76.179688 189.996094 75.976562 189.621094 C 75.777344 189.25 75.539062 188.902344 75.269531 188.574219 C 75 188.25 74.703125 187.953125 74.375 187.683594 L 55.976562 173.234375 C 55.492188 172.863281 54.96875 172.566406 54.402344 172.34375 C 53.835938 172.121094 53.25 171.976562 52.644531 171.917969 C 52.035156 171.855469 51.433594 171.878906 50.835938 171.984375 C 50.234375 172.09375 49.660156 172.28125 49.113281 172.546875 C 48.566406 172.8125 48.0625 173.148438 47.609375 173.554688 C 47.15625 173.957031 46.765625 174.417969 46.4375 174.933594 C 46.109375 175.445312 45.859375 175.996094 45.6875 176.578125 C 45.511719 177.164062 45.421875 177.757812 45.410156 178.367188 L 45.410156 213.558594 C 32.355469 208.027344 15.597656 217.8125 15.992188 231.753906 C 16.625 257.089844 56.34375 258.03125 58.382812 232.835938 C 58.488281 232.382812 58.515625 231.921875 58.472656 231.460938 L 58.472656 191.796875 Z M 45.410156 231.878906 C 45.078125 240.523438 29.199219 240.414062 29.050781 231.75 C 29.214844 222.964844 45.425781 223.023438 45.410156 231.878906 Z M 45.410156 231.878906 "/></g><path style=" stroke:none;fill-rule:nonzero;fill:#366db3;fill-opacity:1;" d="M 365.457031 113.210938 L 347.066406 98.757812 C 346.582031 98.386719 346.058594 98.089844 345.492188 97.867188 C 344.925781 97.644531 344.339844 97.5 343.730469 97.441406 C 343.125 97.378906 342.523438 97.402344 341.921875 97.507812 C 341.324219 97.617188 340.75 97.800781 340.203125 98.066406 C 339.65625 98.335938 339.152344 98.671875 338.699219 99.074219 C 338.246094 99.480469 337.855469 99.941406 337.527344 100.453125 C 337.199219 100.96875 336.949219 101.515625 336.773438 102.101562 C 336.601562 102.683594 336.507812 103.28125 336.5 103.890625 L 336.5 139.082031 C 323.445312 133.550781 306.679688 143.332031 307.074219 157.273438 C 307.703125 182.558594 347.324219 183.578125 349.457031 158.441406 C 349.566406 157.980469 349.601562 157.511719 349.558594 157.039062 L 349.558594 117.324219 L 357.382812 123.476562 C 357.722656 123.734375 358.082031 123.953125 358.460938 124.140625 C 358.84375 124.324219 359.238281 124.472656 359.648438 124.578125 C 360.058594 124.6875 360.472656 124.757812 360.894531 124.785156 C 361.316406 124.8125 361.738281 124.796875 362.160156 124.742188 C 362.578125 124.6875 362.988281 124.59375 363.390625 124.460938 C 363.792969 124.328125 364.179688 124.15625 364.546875 123.945312 C 364.914062 123.734375 365.257812 123.492188 365.582031 123.21875 C 365.902344 122.941406 366.191406 122.636719 366.453125 122.304688 C 366.714844 121.96875 366.945312 121.617188 367.136719 121.238281 C 367.328125 120.863281 367.484375 120.46875 367.601562 120.0625 C 367.714844 119.65625 367.792969 119.242188 367.828125 118.820312 C 367.863281 118.394531 367.859375 117.976562 367.8125 117.554688 C 367.765625 117.132812 367.679688 116.71875 367.554688 116.316406 C 367.425781 115.910156 367.261719 115.523438 367.0625 115.152344 C 366.859375 114.78125 366.625 114.429688 366.351562 114.105469 C 366.082031 113.777344 365.785156 113.480469 365.457031 113.210938 Z M 336.5 157.375 C 336.203125 166.042969 320.285156 165.945312 320.132812 157.273438 C 320.296875 148.503906 336.484375 148.539062 336.5 157.375 Z M 336.5 157.375 "/><path style=" stroke:none;fill-rule:nonzero;fill:#366db3;fill-opacity:1;" d="M 265.363281 233.230469 C 263.070312 233.238281 260.824219 233.566406 258.625 234.21875 C 256.425781 234.871094 254.363281 235.816406 252.4375 237.0625 L 221.035156 257.15625 L 214.382812 226.722656 C 214.253906 226.078125 214.183594 225.429688 214.171875 224.777344 L 214.5 155.203125 C 214.5 154.707031 214.546875 154.21875 214.636719 153.734375 C 214.726562 153.25 214.859375 152.777344 215.039062 152.316406 C 215.214844 151.855469 215.429688 151.417969 215.683594 150.996094 C 215.941406 150.574219 216.234375 150.179688 216.558594 149.808594 C 216.886719 149.441406 217.246094 149.105469 217.632812 148.800781 C 218.023438 148.5 218.433594 148.230469 218.871094 148.003906 C 219.308594 147.773438 219.761719 147.585938 220.230469 147.4375 C 220.703125 147.292969 221.183594 147.1875 221.671875 147.128906 L 266.15625 141.765625 C 266.988281 141.65625 267.816406 141.503906 268.632812 141.304688 C 269.449219 141.101562 270.253906 140.855469 271.042969 140.566406 C 271.832031 140.277344 272.605469 139.941406 273.355469 139.5625 C 274.109375 139.1875 274.835938 138.769531 275.542969 138.308594 C 276.246094 137.851562 276.925781 137.355469 277.574219 136.820312 C 278.222656 136.285156 278.84375 135.714844 279.429688 135.109375 C 280.011719 134.507812 280.5625 133.871094 281.078125 133.207031 C 281.59375 132.539062 282.066406 131.847656 282.503906 131.128906 C 282.941406 130.40625 283.335938 129.667969 283.691406 128.902344 C 284.042969 128.140625 284.355469 127.359375 284.621094 126.558594 C 284.886719 125.761719 285.105469 124.949219 285.28125 124.128906 C 285.457031 123.304688 285.585938 122.472656 285.667969 121.636719 C 285.75 120.800781 285.785156 119.960938 285.773438 119.117188 C 285.757812 118.277344 285.699219 117.4375 285.59375 116.605469 C 285.488281 115.769531 285.335938 114.941406 285.136719 114.125 C 284.9375 113.308594 284.691406 112.503906 284.402344 111.714844 L 259.722656 45.742188 C 259.277344 44.597656 258.738281 43.5 258.105469 42.449219 C 257.472656 41.398438 256.753906 40.410156 255.949219 39.484375 C 255.144531 38.558594 254.265625 37.707031 253.316406 36.933594 C 252.363281 36.160156 251.351562 35.472656 250.28125 34.871094 C 249.210938 34.273438 248.097656 33.769531 246.941406 33.363281 C 245.78125 32.957031 244.597656 32.652344 243.390625 32.449219 C 242.179688 32.246094 240.960938 32.148438 239.734375 32.160156 C 238.507812 32.167969 237.289062 32.28125 236.082031 32.5 C 234.875 32.71875 233.695312 33.042969 232.542969 33.464844 C 231.394531 33.886719 230.285156 34.40625 229.226562 35.023438 C 228.164062 35.636719 227.164062 36.339844 226.222656 37.125 C 225.28125 37.914062 224.414062 38.777344 223.625 39.714844 C 222.832031 40.652344 222.128906 41.652344 221.511719 42.710938 C 220.890625 43.769531 220.367188 44.875 219.941406 46.023438 C 219.515625 47.175781 219.1875 48.351562 218.964844 49.558594 C 218.742188 50.765625 218.625 51.984375 218.613281 53.210938 C 217.5 57.328125 233.507812 96.984375 234.757812 101.691406 C 233.757812 101.625 199.746094 107.246094 199.945312 106.128906 L 145.707031 93.816406 C 144.527344 93.53125 143.480469 92.992188 142.558594 92.203125 C 135.984375 86.375 120.375 68.976562 117.449219 33.480469 C 111.660156 2.746094 65.46875 10.332031 70.023438 41.457031 C 74.042969 64.78125 85.476562 108.097656 116.878906 136.148438 C 125.445312 142.820312 123.175781 156.039062 123.410156 165.320312 C 123.414062 165.746094 123.460938 166.167969 123.546875 166.582031 C 123.636719 167 123.761719 167.402344 123.929688 167.796875 C 124.09375 168.1875 124.296875 168.558594 124.539062 168.910156 C 124.777344 169.261719 125.046875 169.589844 125.351562 169.886719 C 125.652344 170.1875 125.980469 170.453125 126.335938 170.6875 C 126.691406 170.921875 127.066406 171.121094 127.457031 171.28125 C 127.851562 171.445312 128.257812 171.566406 128.675781 171.648438 C 129.09375 171.730469 129.515625 171.769531 129.9375 171.769531 C 130.363281 171.769531 130.785156 171.730469 131.203125 171.648438 C 131.621094 171.566406 132.027344 171.441406 132.417969 171.28125 C 132.8125 171.121094 133.1875 170.921875 133.542969 170.6875 C 133.898438 170.453125 134.226562 170.183594 134.527344 169.886719 C 134.832031 169.585938 135.101562 169.261719 135.339844 168.910156 C 135.578125 168.558594 135.78125 168.1875 135.949219 167.796875 C 136.117188 167.402344 136.242188 167 136.328125 166.582031 C 136.417969 166.167969 136.464844 165.746094 136.46875 165.320312 L 136.46875 150.367188 C 136.449219 148.105469 136.195312 145.867188 135.707031 143.65625 C 135.21875 141.445312 134.507812 139.308594 133.570312 137.25 C 132.636719 135.1875 131.496094 133.246094 130.152344 131.421875 C 128.8125 129.597656 127.292969 127.933594 125.601562 126.429688 C 97.132812 101 86.625 60.886719 82.894531 39.230469 C 82.816406 38.550781 82.800781 37.867188 82.851562 37.179688 C 82.902344 36.496094 83.011719 35.820312 83.1875 35.15625 C 83.363281 34.496094 83.601562 33.851562 83.894531 33.234375 C 84.191406 32.613281 84.542969 32.027344 84.945312 31.472656 C 85.351562 30.917969 85.804688 30.40625 86.304688 29.933594 C 86.804688 29.464844 87.347656 29.046875 87.925781 28.675781 C 88.503906 28.308594 89.113281 27.996094 89.75 27.742188 C 90.386719 27.484375 91.042969 27.292969 91.714844 27.15625 C 92.390625 27.023438 93.070312 26.957031 93.757812 26.949219 C 94.441406 26.945312 95.125 27 95.800781 27.121094 C 96.476562 27.242188 97.132812 27.425781 97.777344 27.671875 C 98.417969 27.914062 99.03125 28.214844 99.617188 28.574219 C 100.203125 28.933594 100.75 29.34375 101.257812 29.804688 C 101.765625 30.265625 102.230469 30.769531 102.644531 31.316406 C 103.058594 31.863281 103.417969 32.445312 103.726562 33.058594 C 104.03125 33.675781 104.277344 34.3125 104.464844 34.972656 C 107.875 74.902344 126.171875 95.121094 133.90625 101.976562 C 136.46875 104.222656 139.410156 105.738281 142.722656 106.53125 C 147.492188 107.125 201.183594 121.09375 204.449219 119.226562 L 244.542969 113.480469 C 245.023438 113.40625 245.488281 113.28125 245.9375 113.109375 C 246.390625 112.933594 246.816406 112.710938 247.21875 112.441406 C 247.621094 112.171875 247.988281 111.863281 248.320312 111.511719 C 248.65625 111.160156 248.945312 110.777344 249.195312 110.363281 C 249.445312 109.949219 249.644531 109.511719 249.796875 109.054688 C 249.949219 108.59375 250.050781 108.125 250.101562 107.640625 C 250.148438 107.160156 250.144531 106.679688 250.085938 106.199219 C 250.03125 105.71875 249.921875 105.25 249.761719 104.792969 L 232.136719 55.964844 C 231.964844 55.460938 231.839844 54.949219 231.769531 54.421875 C 231.695312 53.898438 231.675781 53.371094 231.707031 52.839844 C 231.734375 52.3125 231.816406 51.789062 231.949219 51.277344 C 232.078125 50.761719 232.257812 50.265625 232.488281 49.789062 C 232.714844 49.308594 232.988281 48.855469 233.304688 48.429688 C 233.621094 48.003906 233.972656 47.613281 234.367188 47.257812 C 234.757812 46.898438 235.179688 46.585938 235.632812 46.308594 C 236.085938 46.035156 236.5625 45.804688 237.0625 45.625 C 237.558594 45.441406 238.070312 45.308594 238.59375 45.226562 C 239.117188 45.144531 239.644531 45.109375 240.171875 45.128906 C 240.703125 45.148438 241.226562 45.21875 241.742188 45.339844 C 242.257812 45.460938 242.757812 45.632812 243.242188 45.851562 C 243.726562 46.070312 244.183594 46.332031 244.613281 46.640625 C 245.046875 46.945312 245.445312 47.292969 245.808594 47.675781 C 246.175781 48.0625 246.5 48.480469 246.78125 48.925781 C 247.066406 49.375 247.304688 49.84375 247.496094 50.339844 L 272.175781 116.292969 C 272.292969 116.621094 272.394531 116.957031 272.476562 117.296875 C 272.5625 117.636719 272.625 117.980469 272.667969 118.328125 C 272.710938 118.675781 272.738281 119.023438 272.742188 119.371094 C 272.746094 119.722656 272.730469 120.070312 272.699219 120.421875 C 272.664062 120.769531 272.609375 121.113281 272.539062 121.457031 C 272.464844 121.800781 272.375 122.136719 272.261719 122.46875 C 272.152344 122.800781 272.023438 123.125 271.875 123.441406 C 271.730469 123.761719 271.566406 124.070312 271.382812 124.367188 C 271.203125 124.667969 271.003906 124.957031 270.789062 125.234375 C 270.578125 125.511719 270.347656 125.773438 270.105469 126.027344 C 269.859375 126.277344 269.605469 126.515625 269.335938 126.738281 C 269.0625 126.960938 268.78125 127.167969 268.488281 127.359375 C 268.195312 127.550781 267.894531 127.726562 267.582031 127.882812 C 267.269531 128.039062 266.945312 128.179688 266.617188 128.300781 C 266.289062 128.421875 265.957031 128.523438 265.617188 128.609375 C 265.277344 128.691406 264.933594 128.757812 264.585938 128.800781 L 220.089844 134.164062 C 218.816406 134.320312 217.570312 134.589844 216.347656 134.972656 C 215.121094 135.355469 213.941406 135.84375 212.808594 136.441406 C 211.671875 137.039062 210.601562 137.730469 209.589844 138.519531 C 208.582031 139.3125 207.648438 140.1875 206.796875 141.144531 C 205.945312 142.105469 205.1875 143.132812 204.523438 144.226562 C 203.859375 145.324219 203.296875 146.46875 202.839844 147.667969 C 202.382812 148.867188 202.035156 150.09375 201.800781 151.355469 C 201.5625 152.617188 201.445312 153.886719 201.4375 155.167969 L 201.113281 224.742188 C 200.339844 225.703125 209.929688 266.777344 210.277344 269.097656 C 210.335938 269.351562 210.410156 269.605469 210.496094 269.851562 C 210.585938 270.097656 210.6875 270.335938 210.804688 270.570312 C 210.917969 270.804688 211.050781 271.03125 211.195312 271.246094 C 211.335938 271.464844 211.492188 271.675781 211.660156 271.875 C 211.828125 272.074219 212.007812 272.265625 212.199219 272.441406 C 212.390625 272.621094 212.59375 272.785156 212.804688 272.941406 C 213.015625 273.09375 213.234375 273.238281 213.460938 273.363281 C 213.6875 273.492188 213.921875 273.605469 214.164062 273.707031 C 214.40625 273.808594 214.652344 273.894531 214.902344 273.964844 C 215.15625 274.035156 215.410156 274.089844 215.667969 274.132812 C 215.925781 274.171875 216.1875 274.195312 216.445312 274.207031 C 216.707031 274.214844 216.96875 274.210938 217.230469 274.1875 C 217.488281 274.167969 217.746094 274.128906 218.003906 274.078125 C 218.261719 274.027344 218.511719 273.957031 218.761719 273.875 C 219.007812 273.792969 219.25 273.699219 219.488281 273.585938 C 219.722656 273.476562 219.953125 273.351562 220.171875 273.210938 L 259.496094 248.054688 C 260.101562 247.683594 260.734375 247.371094 261.398438 247.121094 C 262.0625 246.871094 262.742188 246.6875 263.441406 246.570312 C 264.140625 246.449219 264.847656 246.402344 265.554688 246.417969 C 266.265625 246.4375 266.964844 246.523438 267.65625 246.679688 C 268.351562 246.835938 269.019531 247.054688 269.671875 247.339844 C 270.320312 247.625 270.933594 247.96875 271.519531 248.375 C 272.101562 248.78125 272.636719 249.238281 273.132812 249.746094 C 273.625 250.257812 274.066406 250.808594 274.453125 251.402344 C 274.839844 251.996094 275.164062 252.625 275.429688 253.28125 C 275.695312 253.941406 275.894531 254.617188 276.027344 255.316406 C 276.160156 256.011719 276.226562 256.714844 276.222656 257.421875 C 276.21875 258.132812 276.148438 258.835938 276.007812 259.53125 C 275.867188 260.226562 275.660156 260.902344 275.390625 261.558594 C 275.121094 262.210938 274.789062 262.835938 274.394531 263.425781 C 274.003906 264.019531 273.558594 264.566406 273.0625 265.070312 C 272.5625 265.574219 272.019531 266.027344 271.433594 266.425781 L 257.921875 275.308594 C 257.570312 275.546875 257.246094 275.820312 256.949219 276.121094 C 256.652344 276.425781 256.386719 276.753906 256.152344 277.105469 C 255.917969 277.460938 255.71875 277.835938 255.558594 278.226562 C 255.398438 278.621094 255.277344 279.023438 255.195312 279.441406 C 255.109375 279.855469 255.070312 280.277344 255.070312 280.703125 C 255.070312 281.125 255.109375 281.546875 255.191406 281.964844 C 255.273438 282.378906 255.394531 282.785156 255.554688 283.175781 C 255.714844 283.570312 255.910156 283.945312 256.144531 284.296875 C 256.378906 284.652344 256.644531 284.980469 256.941406 285.285156 C 257.238281 285.589844 257.5625 285.859375 257.910156 286.097656 C 258.261719 286.339844 258.632812 286.542969 259.023438 286.710938 C 259.410156 286.878906 259.8125 287.007812 260.230469 287.097656 C 260.644531 287.183594 261.0625 287.234375 261.488281 287.242188 C 261.914062 287.25 262.332031 287.214844 262.75 287.140625 C 263.167969 287.066406 263.574219 286.953125 263.972656 286.796875 C 264.367188 286.644531 264.742188 286.453125 265.101562 286.226562 L 278.613281 277.335938 C 279.675781 276.621094 280.671875 275.828125 281.605469 274.957031 C 282.539062 274.082031 283.394531 273.140625 284.179688 272.132812 C 284.964844 271.121094 285.664062 270.058594 286.277344 268.9375 C 286.890625 267.816406 287.414062 266.652344 287.84375 265.449219 C 288.273438 264.246094 288.605469 263.015625 288.839844 261.761719 C 289.074219 260.503906 289.207031 259.238281 289.238281 257.957031 C 289.273438 256.679688 289.203125 255.410156 289.035156 254.140625 C 288.863281 252.875 288.59375 251.628906 288.226562 250.40625 C 287.859375 249.183594 287.398438 247.996094 286.839844 246.84375 C 286.285156 245.695312 285.640625 244.59375 284.910156 243.546875 C 284.179688 242.496094 283.367188 241.515625 282.480469 240.59375 C 281.59375 239.675781 280.636719 238.832031 279.617188 238.0625 C 278.59375 237.296875 277.519531 236.613281 276.386719 236.015625 C 275.257812 235.421875 274.085938 234.917969 272.875 234.507812 C 271.667969 234.097656 270.429688 233.785156 269.171875 233.570312 C 267.910156 233.355469 266.640625 233.242188 265.363281 233.230469 Z M 265.363281 233.230469 "/><path style=" stroke:none;fill-rule:nonzero;fill:#366db3;fill-opacity:1;" d="M 236.050781 289.667969 L 217.46875 301.863281 C 216.976562 302.179688 216.464844 302.464844 215.9375 302.71875 C 215.410156 302.972656 214.867188 303.191406 214.3125 303.378906 C 213.757812 303.566406 213.191406 303.71875 212.617188 303.839844 C 212.042969 303.957031 211.464844 304.039062 210.878906 304.085938 C 210.296875 304.136719 209.710938 304.148438 209.125 304.121094 C 208.539062 304.097656 207.957031 304.039062 207.378906 303.941406 C 206.800781 303.847656 206.230469 303.714844 205.667969 303.550781 C 205.105469 303.386719 204.554688 303.1875 204.015625 302.953125 C 203.480469 302.722656 202.957031 302.457031 202.453125 302.160156 C 201.945312 301.863281 201.460938 301.535156 200.996094 301.179688 C 200.53125 300.824219 200.085938 300.441406 199.667969 300.03125 C 199.25 299.621094 198.859375 299.183594 198.492188 298.726562 C 198.128906 298.269531 197.792969 297.789062 197.484375 297.289062 C 197.179688 296.789062 196.902344 296.273438 196.660156 295.742188 C 196.417969 295.207031 196.207031 294.660156 196.03125 294.101562 C 195.855469 293.542969 195.710938 292.976562 195.605469 292.398438 L 187.824219 246.667969 C 187.660156 245.691406 187.417969 244.734375 187.101562 243.796875 C 186.785156 242.855469 186.390625 241.949219 185.929688 241.074219 C 185.464844 240.199219 184.933594 239.367188 184.335938 238.578125 C 183.738281 237.789062 183.082031 237.054688 182.363281 236.367188 C 181.648438 235.683594 180.882812 235.0625 180.066406 234.503906 C 179.25 233.941406 178.394531 233.449219 177.5 233.027344 C 176.601562 232.601562 175.679688 232.253906 174.726562 231.980469 C 173.777344 231.703125 172.808594 231.507812 171.828125 231.386719 C 170.65625 231.277344 169.480469 231.269531 168.308594 231.363281 C 167.136719 231.460938 165.980469 231.660156 164.839844 231.964844 C 163.703125 232.265625 162.601562 232.667969 161.535156 233.164062 C 160.46875 233.664062 159.453125 234.25 158.492188 234.929688 C 157.53125 235.609375 156.636719 236.367188 155.808594 237.207031 C 154.980469 238.042969 154.234375 238.949219 153.570312 239.921875 C 152.902344 240.890625 152.328125 241.914062 151.84375 242.988281 C 151.359375 244.058594 150.976562 245.167969 150.6875 246.308594 C 136.984375 288.898438 154.984375 328.152344 166.9375 347.761719 C 167.332031 348.414062 167.664062 349.097656 167.929688 349.816406 C 168.195312 350.535156 168.386719 351.273438 168.507812 352.027344 C 168.628906 352.78125 168.675781 353.542969 168.648438 354.308594 C 168.625 355.070312 168.523438 355.828125 168.351562 356.570312 C 168.175781 357.316406 167.933594 358.039062 167.621094 358.734375 C 167.304688 359.433594 166.929688 360.09375 166.484375 360.71875 C 166.042969 361.34375 165.546875 361.917969 164.992188 362.445312 C 164.4375 362.972656 163.839844 363.445312 163.191406 363.855469 C 162.632812 364.265625 162.042969 364.628906 161.421875 364.9375 C 160.800781 365.25 160.160156 365.503906 159.492188 365.703125 C 158.828125 365.90625 158.148438 366.046875 157.460938 366.128906 C 156.769531 366.210938 156.078125 366.234375 155.386719 366.199219 C 154.691406 366.160156 154.007812 366.066406 153.328125 365.910156 C 152.652344 365.753906 151.992188 365.542969 151.355469 365.273438 C 150.714844 365.007812 150.101562 364.683594 149.515625 364.308594 C 148.929688 363.9375 148.382812 363.515625 147.871094 363.042969 C 108.316406 309.933594 127.625 244.601562 134.503906 225.800781 C 137.777344 218.320312 136.082031 199.460938 136.46875 191.4375 C 136.460938 191.015625 136.414062 190.59375 136.324219 190.179688 C 136.238281 189.765625 136.109375 189.363281 135.941406 188.972656 C 135.773438 188.582031 135.570312 188.210938 135.332031 187.863281 C 135.09375 187.511719 134.820312 187.1875 134.519531 186.890625 C 134.21875 186.59375 133.886719 186.328125 133.535156 186.09375 C 133.179688 185.859375 132.804688 185.660156 132.414062 185.5 C 132.019531 185.339844 131.617188 185.21875 131.199219 185.136719 C 130.785156 185.054688 130.363281 185.015625 129.9375 185.015625 C 129.515625 185.015625 129.09375 185.054688 128.679688 185.136719 C 128.261719 185.21875 127.855469 185.339844 127.464844 185.5 C 127.070312 185.664062 126.699219 185.859375 126.34375 186.09375 C 125.988281 186.328125 125.660156 186.59375 125.359375 186.890625 C 125.054688 187.1875 124.785156 187.511719 124.546875 187.863281 C 124.308594 188.210938 124.105469 188.582031 123.9375 188.972656 C 123.769531 189.363281 123.640625 189.765625 123.554688 190.179688 C 123.464844 190.597656 123.417969 191.015625 123.410156 191.441406 C 123.011719 196.789062 124.449219 216.65625 122.238281 221.320312 C 114.777344 241.71875 93.828125 312.824219 137.710938 371.269531 C 138.242188 371.828125 138.800781 372.359375 139.378906 372.867188 C 139.957031 373.371094 140.558594 373.851562 141.183594 374.304688 C 141.804688 374.757812 142.449219 375.179688 143.109375 375.574219 C 143.773438 375.964844 144.449219 376.328125 145.144531 376.660156 C 145.839844 376.992188 146.546875 377.292969 147.269531 377.558594 C 147.992188 377.828125 148.726562 378.0625 149.46875 378.261719 C 150.210938 378.464844 150.960938 378.632812 151.71875 378.765625 C 152.480469 378.898438 153.242188 378.996094 154.007812 379.058594 C 154.777344 379.121094 155.542969 379.152344 156.316406 379.144531 C 157.085938 379.136719 157.851562 379.097656 158.617188 379.019531 C 159.386719 378.945312 160.144531 378.832031 160.902344 378.6875 C 161.65625 378.542969 162.40625 378.363281 163.144531 378.148438 C 163.886719 377.9375 164.613281 377.691406 165.332031 377.410156 C 166.050781 377.132812 166.753906 376.820312 167.441406 376.476562 C 168.128906 376.132812 168.800781 375.757812 169.457031 375.355469 C 170.113281 374.949219 170.75 374.515625 171.363281 374.054688 C 171.980469 373.59375 172.574219 373.101562 173.144531 372.585938 C 173.714844 372.070312 174.261719 371.53125 174.785156 370.964844 C 175.304688 370.398438 175.800781 369.808594 176.269531 369.199219 C 176.738281 368.585938 177.179688 367.957031 177.589844 367.304688 C 178 366.65625 178.382812 365.988281 178.734375 365.300781 C 179.082031 364.617188 179.402344 363.914062 179.6875 363.203125 C 179.976562 362.488281 180.230469 361.761719 180.453125 361.023438 C 180.671875 360.285156 180.859375 359.539062 181.011719 358.785156 C 181.164062 358.03125 181.285156 357.269531 181.367188 356.503906 C 181.453125 355.742188 181.5 354.972656 181.515625 354.203125 C 181.53125 353.433594 181.511719 352.664062 181.453125 351.898438 C 181.398438 351.128906 181.308594 350.363281 181.183594 349.605469 C 181.058594 348.84375 180.898438 348.09375 180.707031 347.347656 C 180.511719 346.601562 180.285156 345.867188 180.027344 345.144531 C 179.765625 344.417969 179.472656 343.707031 179.148438 343.007812 C 178.824219 342.308594 178.46875 341.628906 178.082031 340.960938 C 167.335938 323.324219 151.121094 288.191406 162.996094 250.710938 L 164.519531 247.484375 C 164.777344 246.960938 165.105469 246.488281 165.511719 246.070312 C 165.914062 245.652344 166.375 245.304688 166.886719 245.03125 C 167.398438 244.757812 167.941406 244.570312 168.515625 244.464844 C 169.089844 244.363281 169.664062 244.351562 170.242188 244.425781 C 170.816406 244.503906 171.367188 244.667969 171.894531 244.921875 C 172.417969 245.171875 172.890625 245.496094 173.316406 245.898438 C 173.738281 246.296875 174.089844 246.753906 174.367188 247.261719 C 174.648438 247.773438 174.84375 248.3125 174.949219 248.886719 L 182.738281 294.648438 C 182.871094 295.433594 183.039062 296.210938 183.242188 296.980469 C 183.445312 297.75 183.679688 298.507812 183.949219 299.257812 C 184.21875 300.007812 184.519531 300.742188 184.855469 301.464844 C 185.1875 302.1875 185.554688 302.894531 185.949219 303.582031 C 186.34375 304.273438 186.769531 304.945312 187.226562 305.597656 C 187.679688 306.25 188.160156 306.882812 188.671875 307.492188 C 189.179688 308.105469 189.71875 308.691406 190.277344 309.257812 C 190.839844 309.820312 191.425781 310.359375 192.035156 310.871094 C 192.644531 311.382812 193.273438 311.867188 193.925781 312.324219 C 194.574219 312.78125 195.246094 313.210938 195.933594 313.609375 C 196.621094 314.007812 197.328125 314.375 198.046875 314.710938 C 198.769531 315.046875 199.503906 315.351562 200.25 315.625 C 201 315.898438 201.757812 316.136719 202.527344 316.339844 C 203.292969 316.546875 204.070312 316.71875 204.855469 316.855469 C 205.636719 316.996094 206.425781 317.097656 207.21875 317.167969 C 208.011719 317.234375 208.804688 317.269531 209.601562 317.265625 C 220.4375 318.214844 234.523438 305.675781 243.21875 300.585938 C 243.566406 300.347656 243.890625 300.078125 244.1875 299.773438 C 244.484375 299.472656 244.746094 299.144531 244.980469 298.789062 C 245.214844 298.4375 245.410156 298.0625 245.570312 297.671875 C 245.730469 297.28125 245.851562 296.878906 245.933594 296.460938 C 246.015625 296.046875 246.054688 295.628906 246.054688 295.203125 C 246.054688 294.78125 246.015625 294.359375 245.933594 293.945312 C 245.851562 293.53125 245.734375 293.125 245.574219 292.734375 C 245.414062 292.34375 245.21875 291.96875 244.984375 291.617188 C 244.753906 291.261719 244.488281 290.933594 244.191406 290.632812 C 243.894531 290.328125 243.574219 290.058594 243.222656 289.816406 C 242.875 289.578125 242.507812 289.375 242.117188 289.207031 C 241.730469 289.039062 241.328125 288.910156 240.914062 288.820312 C 240.5 288.730469 240.082031 288.679688 239.660156 288.671875 C 239.238281 288.660156 238.816406 288.695312 238.398438 288.765625 C 237.984375 288.839844 237.578125 288.953125 237.183594 289.105469 C 236.785156 289.257812 236.410156 289.445312 236.050781 289.667969 Z M 236.050781 289.667969 "/><path style=" stroke:none;fill-rule:nonzero;fill:#366db3;fill-opacity:1;" d="M 175.632812 92.296875 C 176.847656 92.296875 178.058594 92.234375 179.269531 92.113281 C 180.476562 91.996094 181.675781 91.816406 182.867188 91.578125 C 184.058594 91.339844 185.234375 91.042969 186.398438 90.691406 C 187.558594 90.339844 188.699219 89.929688 189.820312 89.464844 C 190.945312 88.996094 192.039062 88.480469 193.109375 87.90625 C 194.183594 87.332031 195.222656 86.710938 196.230469 86.035156 C 197.242188 85.359375 198.214844 84.636719 199.15625 83.867188 C 200.09375 83.09375 200.992188 82.28125 201.851562 81.421875 C 202.710938 80.5625 203.523438 79.664062 204.292969 78.726562 C 205.066406 77.785156 205.789062 76.8125 206.464844 75.804688 C 207.136719 74.792969 207.761719 73.753906 208.335938 72.683594 C 208.90625 71.613281 209.425781 70.515625 209.890625 69.394531 C 210.359375 68.273438 210.765625 67.128906 211.121094 65.96875 C 211.472656 64.804688 211.769531 63.628906 212.007812 62.4375 C 212.246094 61.246094 212.421875 60.046875 212.542969 58.839844 C 212.664062 57.628906 212.722656 56.417969 212.726562 55.203125 C 210.988281 6.113281 140.269531 6.125 138.542969 55.207031 C 138.542969 56.417969 138.601562 57.632812 138.722656 58.839844 C 138.84375 60.046875 139.023438 61.246094 139.261719 62.4375 C 139.5 63.628906 139.792969 64.804688 140.148438 65.96875 C 140.5 67.128906 140.910156 68.273438 141.375 69.394531 C 141.839844 70.515625 142.359375 71.613281 142.933594 72.683594 C 143.503906 73.753906 144.128906 74.792969 144.804688 75.804688 C 145.480469 76.8125 146.203125 77.785156 146.972656 78.726562 C 147.742188 79.664062 148.558594 80.5625 149.417969 81.421875 C 150.273438 82.28125 151.175781 83.09375 152.113281 83.867188 C 153.050781 84.636719 154.027344 85.359375 155.035156 86.035156 C 156.042969 86.710938 157.085938 87.332031 158.15625 87.90625 C 159.226562 88.480469 160.324219 88.996094 161.445312 89.464844 C 162.566406 89.929688 163.707031 90.339844 164.871094 90.691406 C 166.03125 91.042969 167.207031 91.339844 168.398438 91.578125 C 169.589844 91.816406 170.789062 91.996094 172 92.113281 C 173.207031 92.234375 174.417969 92.296875 175.632812 92.296875 Z M 175.632812 31.171875 C 176.417969 31.179688 177.195312 31.222656 177.976562 31.304688 C 178.753906 31.390625 179.527344 31.511719 180.292969 31.667969 C 181.058594 31.828125 181.816406 32.023438 182.5625 32.257812 C 183.308594 32.488281 184.042969 32.757812 184.765625 33.0625 C 185.484375 33.367188 186.191406 33.703125 186.878906 34.078125 C 187.566406 34.449219 188.234375 34.855469 188.882812 35.296875 C 189.53125 35.734375 190.15625 36.203125 190.757812 36.703125 C 191.363281 37.203125 191.9375 37.730469 192.488281 38.285156 C 193.039062 38.839844 193.5625 39.421875 194.058594 40.03125 C 194.550781 40.636719 195.015625 41.265625 195.449219 41.917969 C 195.878906 42.570312 196.28125 43.242188 196.648438 43.933594 C 197.015625 44.625 197.347656 45.332031 197.644531 46.054688 C 197.941406 46.78125 198.203125 47.515625 198.429688 48.265625 C 198.65625 49.015625 198.847656 49.773438 198.996094 50.542969 C 199.148438 51.308594 199.261719 52.082031 199.339844 52.863281 C 199.417969 53.640625 199.453125 54.421875 199.453125 55.203125 C 199.453125 55.988281 199.417969 56.769531 199.339844 57.546875 C 199.261719 58.324219 199.148438 59.097656 198.996094 59.867188 C 198.84375 60.636719 198.65625 61.394531 198.429688 62.144531 C 198.203125 62.890625 197.941406 63.628906 197.644531 64.351562 C 197.347656 65.078125 197.015625 65.785156 196.648438 66.476562 C 196.28125 67.167969 195.878906 67.839844 195.449219 68.492188 C 195.015625 69.144531 194.550781 69.773438 194.058594 70.378906 C 193.5625 70.988281 193.039062 71.566406 192.488281 72.125 C 191.9375 72.679688 191.363281 73.207031 190.757812 73.707031 C 190.15625 74.207031 189.53125 74.675781 188.882812 75.113281 C 188.234375 75.550781 187.566406 75.957031 186.878906 76.332031 C 186.191406 76.703125 185.484375 77.042969 184.765625 77.347656 C 184.042969 77.652344 183.308594 77.921875 182.5625 78.152344 C 181.816406 78.386719 181.058594 78.582031 180.292969 78.738281 C 179.523438 78.898438 178.753906 79.019531 177.972656 79.101562 C 177.195312 79.1875 176.414062 79.230469 175.632812 79.238281 C 174.851562 79.230469 174.070312 79.1875 173.292969 79.101562 C 172.511719 79.019531 171.742188 78.898438 170.972656 78.738281 C 170.207031 78.582031 169.453125 78.386719 168.703125 78.152344 C 167.957031 77.921875 167.222656 77.652344 166.5 77.347656 C 165.78125 77.042969 165.074219 76.703125 164.386719 76.332031 C 163.699219 75.957031 163.03125 75.550781 162.382812 75.113281 C 161.734375 74.675781 161.109375 74.207031 160.507812 73.707031 C 159.902344 73.207031 159.328125 72.679688 158.777344 72.125 C 158.226562 71.566406 157.703125 70.988281 157.207031 70.378906 C 156.714844 69.773438 156.25 69.144531 155.816406 68.492188 C 155.386719 67.839844 154.984375 67.167969 154.617188 66.476562 C 154.25 65.785156 153.917969 65.078125 153.621094 64.351562 C 153.324219 63.628906 153.0625 62.890625 152.835938 62.144531 C 152.609375 61.394531 152.421875 60.636719 152.269531 59.867188 C 152.117188 59.097656 152.003906 58.324219 151.925781 57.546875 C 151.851562 56.769531 151.8125 55.988281 151.8125 55.203125 C 151.8125 54.421875 151.851562 53.640625 151.925781 52.863281 C 152.003906 52.082031 152.117188 51.308594 152.269531 50.542969 C 152.421875 49.773438 152.609375 49.015625 152.835938 48.265625 C 153.0625 47.515625 153.324219 46.78125 153.621094 46.054688 C 153.917969 45.332031 154.25 44.625 154.617188 43.933594 C 154.984375 43.242188 155.386719 42.570312 155.816406 41.917969 C 156.25 41.265625 156.714844 40.636719 157.207031 40.03125 C 157.703125 39.421875 158.226562 38.839844 158.777344 38.285156 C 159.328125 37.730469 159.902344 37.203125 160.507812 36.703125 C 161.109375 36.203125 161.734375 35.734375 162.382812 35.296875 C 163.03125 34.855469 163.699219 34.449219 164.386719 34.078125 C 165.074219 33.703125 165.78125 33.367188 166.5 33.0625 C 167.222656 32.757812 167.957031 32.488281 168.703125 32.257812 C 169.453125 32.023438 170.207031 31.828125 170.976562 31.667969 C 171.742188 31.511719 172.515625 31.390625 173.292969 31.304688 C 174.070312 31.222656 174.851562 31.179688 175.632812 31.171875 Z M 175.632812 31.171875 "/></g></svg>