<svg width="23" height="26" viewBox="0 0 23 26" fill="none" xmlns="http://www.w3.org/2000/svg">
<g clip-path="url(#clip0_6_12)">
<path d="M7.71875 1.21875C7.71875 0.54336 7.17539 0 6.5 0C5.82461 0 5.28125 0.54336 5.28125 1.21875V3.25H3.25C1.45742 3.25 0 4.70742 0 6.5V7.3125V9.75V22.75C0 24.5426 1.45742 26 3.25 26H19.5C21.2926 26 22.75 24.5426 22.75 22.75V9.75V7.3125V6.5C22.75 4.70742 21.2926 3.25 19.5 3.25H17.4688V1.21875C17.4688 0.54336 16.9254 0 16.25 0C15.5746 0 15.0313 0.54336 15.0313 1.21875V3.25H7.71875V1.21875ZM2.4375 9.75H6.5V12.5938H2.4375V9.75ZM2.4375 15.0313H6.5V18.2813H2.4375V15.0313ZM8.9375 15.0313H13.8125V18.2813H8.9375V15.0313ZM16.25 15.0313H20.3125V18.2813H16.25V15.0313ZM20.3125 12.5938H16.25V9.75H20.3125V12.5938ZM20.3125 20.7188V22.75C20.3125 23.1969 19.9469 23.5625 19.5 23.5625H16.25V20.7188H20.3125ZM13.8125 20.7188V23.5625H8.9375V20.7188H13.8125ZM6.5 20.7188V23.5625H3.25C2.80313 23.5625 2.4375 23.1969 2.4375 22.75V20.7188H6.5ZM13.8125 12.5938H8.9375V9.75H13.8125V12.5938Z" fill="#366DB3"/>
</g>
<defs>
<clipPath id="clip0_6_12">
<rect width="22.5189" height="25.7358" fill="white" transform="scale(1.01026)"/>
</clipPath>
</defs>
</svg>
