<svg xmlns="http://www.w3.org/2000/svg" xmlns:xlink="http://www.w3.org/1999/xlink" width="512" zoomAndPan="magnify" viewBox="0 0 384 383.999986" height="512" preserveAspectRatio="xMidYMid meet" version="1.2"><defs><clipPath id="20c5bcd8ba"><path d="M 220.578125 178.46875 L 232.578125 178.46875 L 232.578125 182.96875 L 220.578125 182.96875 Z M 220.578125 178.46875 "/></clipPath><clipPath id="9b8e16da9b"><path d="M 29.953125 7.332031 L 353.953125 7.332031 L 353.953125 376.332031 L 29.953125 376.332031 Z M 29.953125 7.332031 "/></clipPath></defs><g id="da0c255bae"><g clip-rule="nonzero" clip-path="url(#20c5bcd8ba)"><path style=" stroke:none;fill-rule:nonzero;fill:#000000;fill-opacity:1;" d="M 223.347656 181.746094 C 223.339844 181.710938 223.332031 181.679688 223.320312 181.648438 C 223.296875 181.578125 223.273438 181.511719 223.25 181.441406 C 223.238281 181.417969 223.230469 181.394531 223.21875 181.371094 C 223.203125 181.332031 223.195312 181.289062 223.191406 181.246094 C 223.1875 181.195312 223.183594 181.144531 223.183594 181.09375 C 223.183594 181.050781 223.1875 181.011719 223.191406 180.972656 C 223.199219 180.917969 223.207031 180.867188 223.226562 180.816406 C 223.242188 180.765625 223.261719 180.714844 223.28125 180.664062 C 223.28125 180.65625 223.289062 180.648438 223.292969 180.640625 C 223.332031 180.59375 223.371094 180.546875 223.410156 180.496094 C 223.390625 180.484375 223.371094 180.476562 223.347656 180.46875 C 223.289062 180.441406 223.230469 180.417969 223.171875 180.394531 C 223.113281 180.367188 223.0625 180.332031 223.023438 180.289062 C 223 180.261719 222.972656 180.238281 222.945312 180.210938 C 222.914062 180.179688 222.871094 180.15625 222.828125 180.136719 C 222.769531 180.109375 222.710938 180.085938 222.648438 180.0625 C 222.636719 180.054688 222.625 180.050781 222.613281 180.050781 C 222.601562 180.046875 222.589844 180.050781 222.582031 180.054688 C 222.558594 180.0625 222.539062 180.074219 222.515625 180.085938 C 222.5 180.09375 222.484375 180.101562 222.46875 180.101562 C 222.453125 180.101562 222.441406 180.105469 222.429688 180.109375 C 222.402344 180.125 222.375 180.140625 222.34375 180.152344 C 222.335938 180.15625 222.324219 180.160156 222.3125 180.160156 C 222.300781 180.160156 222.292969 180.15625 222.285156 180.144531 C 222.28125 180.136719 222.28125 180.128906 222.289062 180.121094 C 222.304688 180.101562 222.324219 180.089844 222.347656 180.082031 C 222.363281 180.074219 222.378906 180.066406 222.398438 180.058594 C 222.382812 180.015625 222.347656 179.996094 222.308594 180 C 222.265625 180.003906 222.222656 180.007812 222.179688 180.015625 C 222.15625 180.015625 222.132812 180.015625 222.113281 180.003906 C 222.097656 179.996094 222.089844 179.984375 222.089844 179.964844 C 222.148438 179.960938 222.207031 179.960938 222.269531 179.949219 C 222.25 179.9375 222.238281 179.929688 222.222656 179.917969 C 222.203125 179.910156 222.1875 179.898438 222.171875 179.890625 C 222.15625 179.878906 222.144531 179.867188 222.128906 179.851562 C 222.121094 179.84375 222.121094 179.828125 222.128906 179.816406 C 222.148438 179.820312 222.164062 179.828125 222.175781 179.839844 C 222.222656 179.871094 222.277344 179.894531 222.328125 179.917969 C 222.34375 179.925781 222.359375 179.929688 222.375 179.921875 C 222.386719 179.917969 222.402344 179.910156 222.421875 179.90625 C 222.414062 179.898438 222.40625 179.894531 222.402344 179.890625 C 222.386719 179.882812 222.371094 179.875 222.355469 179.867188 C 222.332031 179.859375 222.324219 179.84375 222.332031 179.816406 C 222.347656 179.816406 222.363281 179.820312 222.378906 179.824219 C 222.402344 179.832031 222.421875 179.839844 222.441406 179.855469 C 222.457031 179.871094 222.480469 179.882812 222.5 179.890625 C 222.519531 179.898438 222.539062 179.902344 222.558594 179.902344 C 222.597656 179.90625 222.632812 179.910156 222.671875 179.914062 C 222.683594 179.914062 222.695312 179.917969 222.710938 179.921875 C 222.796875 179.949219 222.878906 179.984375 222.957031 180.019531 C 223.035156 180.058594 223.109375 180.09375 223.1875 180.132812 C 223.25 180.160156 223.308594 180.191406 223.371094 180.21875 C 223.441406 180.25 223.515625 180.273438 223.585938 180.300781 C 223.597656 180.304688 223.605469 180.308594 223.617188 180.308594 C 223.640625 180.3125 223.65625 180.304688 223.667969 180.285156 C 223.679688 180.261719 223.695312 180.242188 223.714844 180.222656 C 223.742188 180.191406 223.773438 180.160156 223.800781 180.125 C 223.828125 180.097656 223.847656 180.0625 223.851562 180.023438 C 223.851562 180.003906 223.851562 179.988281 223.855469 179.96875 C 223.855469 179.949219 223.859375 179.929688 223.863281 179.914062 C 223.867188 179.894531 223.890625 179.878906 223.914062 179.878906 C 223.933594 179.882812 223.945312 179.878906 223.957031 179.867188 C 223.960938 179.867188 223.960938 179.863281 223.964844 179.863281 C 223.992188 179.867188 224.015625 179.839844 224.046875 179.847656 C 224.050781 179.847656 224.050781 179.847656 224.054688 179.847656 C 224.0625 179.835938 224.070312 179.828125 224.078125 179.820312 C 224.09375 179.800781 224.101562 179.796875 224.125 179.8125 C 224.15625 179.835938 224.183594 179.855469 224.214844 179.878906 C 224.234375 179.894531 224.257812 179.898438 224.28125 179.886719 C 224.289062 179.878906 224.300781 179.878906 224.308594 179.886719 C 224.355469 179.910156 224.402344 179.929688 224.441406 179.964844 C 224.464844 179.984375 224.480469 180.007812 224.5 180.03125 C 224.507812 180.039062 224.507812 180.046875 224.515625 180.050781 C 224.601562 180.015625 224.6875 179.980469 224.765625 179.933594 C 224.859375 179.878906 224.957031 179.824219 225.050781 179.765625 C 225.082031 179.75 225.113281 179.730469 225.144531 179.714844 C 225.152344 179.710938 225.15625 179.707031 225.160156 179.707031 C 225.183594 179.699219 225.1875 179.703125 225.199219 179.722656 C 225.351562 179.636719 225.5 179.550781 225.652344 179.464844 C 225.636719 179.445312 225.621094 179.425781 225.605469 179.410156 C 225.640625 179.351562 225.695312 179.324219 225.757812 179.300781 C 225.820312 179.273438 225.886719 179.261719 225.953125 179.253906 C 226.003906 179.246094 226.054688 179.238281 226.105469 179.234375 C 226.144531 179.230469 226.183594 179.230469 226.226562 179.226562 C 226.304688 179.226562 226.382812 179.222656 226.460938 179.21875 C 226.472656 179.21875 226.476562 179.214844 226.480469 179.207031 C 226.507812 179.167969 226.535156 179.128906 226.5625 179.089844 C 226.601562 179.035156 226.648438 178.984375 226.695312 178.933594 C 226.746094 178.882812 226.804688 178.835938 226.867188 178.789062 C 226.972656 178.714844 227.085938 178.652344 227.210938 178.601562 C 227.308594 178.558594 227.410156 178.527344 227.519531 178.503906 C 227.617188 178.480469 227.71875 178.46875 227.820312 178.476562 C 227.914062 178.484375 228.007812 178.503906 228.089844 178.550781 C 228.132812 178.570312 228.171875 178.597656 228.203125 178.636719 C 228.226562 178.664062 228.238281 178.699219 228.238281 178.738281 C 228.234375 178.777344 228.246094 178.8125 228.25 178.851562 C 228.253906 178.882812 228.253906 178.914062 228.253906 178.945312 C 228.253906 178.980469 228.238281 179.011719 228.214844 179.042969 C 228.167969 179.097656 228.117188 179.144531 228.050781 179.179688 C 228 179.207031 227.941406 179.222656 227.882812 179.234375 C 227.824219 179.246094 227.769531 179.257812 227.710938 179.265625 C 227.660156 179.273438 227.609375 179.28125 227.558594 179.285156 C 227.515625 179.289062 227.472656 179.292969 227.429688 179.296875 C 227.363281 179.300781 227.296875 179.304688 227.230469 179.308594 C 227.210938 179.308594 227.191406 179.308594 227.167969 179.308594 C 227.050781 179.3125 226.929688 179.3125 226.8125 179.316406 C 226.746094 179.316406 226.683594 179.320312 226.621094 179.320312 C 226.617188 179.320312 226.613281 179.320312 226.601562 179.324219 C 226.625 179.335938 226.636719 179.34375 226.652344 179.351562 C 226.738281 179.390625 226.824219 179.421875 226.914062 179.445312 C 226.996094 179.464844 227.078125 179.484375 227.160156 179.503906 C 227.230469 179.519531 227.300781 179.53125 227.371094 179.542969 C 227.429688 179.554688 227.484375 179.566406 227.539062 179.578125 C 227.589844 179.585938 227.640625 179.59375 227.6875 179.605469 C 227.765625 179.621094 227.84375 179.632812 227.917969 179.648438 C 227.996094 179.664062 228.074219 179.683594 228.152344 179.699219 C 228.3125 179.738281 228.472656 179.785156 228.625 179.847656 C 228.6875 179.875 228.75 179.90625 228.800781 179.953125 C 228.800781 179.957031 228.804688 179.957031 228.808594 179.960938 C 228.84375 179.9375 228.878906 179.917969 228.914062 179.894531 C 229 179.835938 229.085938 179.773438 229.171875 179.710938 C 229.277344 179.632812 229.382812 179.554688 229.488281 179.472656 C 229.5625 179.414062 229.636719 179.355469 229.714844 179.296875 C 229.792969 179.238281 229.871094 179.175781 229.949219 179.117188 C 230.035156 179.054688 230.125 178.992188 230.210938 178.929688 C 230.300781 178.863281 230.394531 178.800781 230.496094 178.746094 C 230.5625 178.707031 230.632812 178.671875 230.703125 178.636719 C 230.757812 178.609375 230.8125 178.585938 230.875 178.566406 C 230.945312 178.546875 231.015625 178.542969 231.089844 178.546875 C 231.121094 178.550781 231.152344 178.550781 231.179688 178.554688 C 231.253906 178.566406 231.316406 178.59375 231.363281 178.644531 C 231.386719 178.675781 231.414062 178.703125 231.433594 178.738281 C 231.449219 178.757812 231.46875 178.78125 231.488281 178.800781 C 231.53125 178.851562 231.566406 178.90625 231.578125 178.96875 C 231.582031 179 231.582031 179.03125 231.574219 179.0625 C 231.5625 179.117188 231.550781 179.171875 231.53125 179.226562 C 231.5 179.316406 231.449219 179.398438 231.390625 179.476562 C 231.339844 179.546875 231.28125 179.609375 231.214844 179.667969 C 231.140625 179.734375 231.054688 179.792969 230.960938 179.835938 C 230.914062 179.859375 230.863281 179.878906 230.816406 179.898438 C 230.8125 179.902344 230.804688 179.902344 230.796875 179.910156 C 230.824219 179.914062 230.847656 179.917969 230.871094 179.921875 C 230.90625 179.929688 230.941406 179.933594 230.976562 179.941406 C 230.992188 179.945312 231.003906 179.941406 231.015625 179.933594 C 231.042969 179.914062 231.066406 179.894531 231.09375 179.875 C 231.144531 179.832031 231.199219 179.792969 231.253906 179.75 C 231.316406 179.703125 231.382812 179.652344 231.445312 179.605469 C 231.511719 179.558594 231.578125 179.515625 231.644531 179.46875 C 231.71875 179.417969 231.796875 179.371094 231.878906 179.328125 C 231.949219 179.292969 232.015625 179.257812 232.09375 179.238281 C 232.113281 179.230469 232.136719 179.226562 232.15625 179.226562 C 232.210938 179.222656 232.265625 179.222656 232.320312 179.230469 C 232.382812 179.238281 232.429688 179.269531 232.464844 179.316406 C 232.496094 179.355469 232.53125 179.394531 232.546875 179.441406 C 232.558594 179.472656 232.566406 179.503906 232.570312 179.535156 C 232.574219 179.621094 232.539062 179.683594 232.484375 179.746094 C 232.449219 179.789062 232.414062 179.828125 232.375 179.863281 C 232.308594 179.917969 232.234375 179.96875 232.152344 180.007812 C 232.070312 180.046875 231.980469 180.078125 231.890625 180.101562 C 231.816406 180.117188 231.742188 180.128906 231.664062 180.132812 C 231.597656 180.132812 231.53125 180.136719 231.460938 180.136719 C 231.421875 180.132812 231.378906 180.128906 231.335938 180.125 C 231.285156 180.117188 231.230469 180.113281 231.179688 180.101562 C 231.125 180.09375 231.074219 180.082031 231.019531 180.070312 C 231.015625 180.070312 231.007812 180.074219 231 180.082031 C 230.9375 180.128906 230.875 180.179688 230.8125 180.226562 C 230.746094 180.277344 230.675781 180.328125 230.605469 180.375 C 230.535156 180.425781 230.457031 180.46875 230.378906 180.503906 C 230.320312 180.53125 230.257812 180.550781 230.191406 180.550781 C 230.167969 180.550781 230.144531 180.542969 230.121094 180.542969 C 230.113281 180.507812 230.117188 180.472656 230.125 180.441406 C 230.148438 180.4375 230.175781 180.4375 230.199219 180.433594 C 230.265625 180.425781 230.328125 180.398438 230.386719 180.371094 C 230.492188 180.320312 230.585938 180.253906 230.679688 180.1875 C 230.746094 180.140625 230.808594 180.09375 230.871094 180.046875 C 230.875 180.042969 230.878906 180.039062 230.882812 180.035156 C 230.878906 180.03125 230.875 180.027344 230.871094 180.027344 C 230.804688 180.007812 230.742188 179.988281 230.679688 179.964844 C 230.652344 179.953125 230.632812 179.957031 230.605469 179.960938 C 230.539062 179.972656 230.472656 179.992188 230.402344 180 C 230.332031 180.011719 230.261719 180.015625 230.1875 180.023438 C 230.0625 180.035156 229.933594 180.03125 229.804688 180.03125 C 229.78125 180.03125 229.757812 180.027344 229.734375 180.019531 C 229.703125 180.003906 229.667969 179.992188 229.632812 179.976562 C 229.601562 179.960938 229.570312 179.9375 229.546875 179.90625 C 229.527344 179.875 229.527344 179.835938 229.554688 179.808594 C 229.574219 179.789062 229.59375 179.777344 229.617188 179.765625 C 229.671875 179.742188 229.730469 179.730469 229.789062 179.726562 C 229.824219 179.726562 229.855469 179.722656 229.890625 179.722656 C 229.953125 179.722656 230.015625 179.726562 230.078125 179.734375 C 230.144531 179.742188 230.210938 179.753906 230.277344 179.765625 C 230.347656 179.78125 230.410156 179.8125 230.476562 179.835938 C 230.503906 179.847656 230.535156 179.851562 230.5625 179.859375 C 230.570312 179.859375 230.578125 179.855469 230.585938 179.855469 C 230.710938 179.808594 230.828125 179.753906 230.9375 179.683594 C 231.03125 179.625 231.117188 179.558594 231.191406 179.484375 C 231.269531 179.410156 231.339844 179.332031 231.390625 179.242188 C 231.429688 179.175781 231.460938 179.101562 231.472656 179.023438 C 231.484375 178.957031 231.480469 178.890625 231.46875 178.820312 C 231.464844 178.804688 231.457031 178.792969 231.441406 178.78125 C 231.382812 178.746094 231.324219 178.722656 231.257812 178.714844 C 231.175781 178.703125 231.097656 178.710938 231.019531 178.726562 C 230.902344 178.746094 230.796875 178.789062 230.691406 178.835938 C 230.535156 178.910156 230.386719 178.996094 230.246094 179.089844 C 230.15625 179.144531 230.074219 179.203125 229.988281 179.261719 C 229.917969 179.316406 229.847656 179.367188 229.777344 179.421875 C 229.722656 179.460938 229.667969 179.503906 229.617188 179.542969 C 229.554688 179.589844 229.5 179.636719 229.4375 179.683594 C 229.339844 179.761719 229.242188 179.835938 229.140625 179.910156 C 229.066406 179.964844 228.984375 180.019531 228.90625 180.074219 C 228.902344 180.074219 228.902344 180.078125 228.898438 180.082031 C 228.914062 180.113281 228.925781 180.148438 228.921875 180.1875 C 228.921875 180.222656 228.914062 180.253906 228.898438 180.285156 C 228.882812 180.324219 228.867188 180.367188 228.859375 180.410156 C 228.855469 180.414062 228.851562 180.421875 228.851562 180.425781 C 228.839844 180.460938 228.816406 180.480469 228.777344 180.492188 C 228.707031 180.515625 228.632812 180.527344 228.558594 180.523438 C 228.453125 180.515625 228.363281 180.476562 228.3125 180.386719 C 228.289062 180.339844 228.28125 180.289062 228.292969 180.238281 C 228.300781 180.203125 228.3125 180.167969 228.332031 180.136719 C 228.339844 180.125 228.347656 180.121094 228.363281 180.121094 C 228.46875 180.117188 228.566406 180.085938 228.660156 180.039062 C 228.660156 180.039062 228.660156 180.039062 228.664062 180.035156 C 228.644531 180.023438 228.625 180.011719 228.601562 180 C 228.503906 179.945312 228.402344 179.902344 228.292969 179.867188 C 228.1875 179.828125 228.078125 179.800781 227.96875 179.773438 C 227.894531 179.753906 227.820312 179.738281 227.742188 179.722656 C 227.671875 179.707031 227.597656 179.691406 227.523438 179.679688 C 227.460938 179.664062 227.394531 179.65625 227.328125 179.644531 C 227.277344 179.632812 227.226562 179.625 227.175781 179.613281 C 227.085938 179.59375 226.996094 179.574219 226.90625 179.554688 C 226.800781 179.53125 226.695312 179.5 226.597656 179.457031 C 226.535156 179.425781 226.476562 179.390625 226.433594 179.335938 C 226.429688 179.328125 226.421875 179.324219 226.414062 179.328125 C 226.347656 179.328125 226.285156 179.335938 226.21875 179.335938 C 226.144531 179.339844 226.074219 179.347656 226 179.359375 C 225.941406 179.367188 225.882812 179.378906 225.828125 179.398438 C 225.808594 179.410156 225.785156 179.421875 225.765625 179.433594 C 225.628906 179.515625 225.496094 179.59375 225.359375 179.675781 C 225.269531 179.730469 225.175781 179.785156 225.082031 179.839844 C 225.078125 179.839844 225.078125 179.84375 225.070312 179.847656 C 225.089844 179.859375 225.109375 179.867188 225.128906 179.875 C 225.160156 179.886719 225.1875 179.898438 225.21875 179.910156 C 225.25 179.925781 225.25 179.949219 225.21875 179.964844 C 225.199219 179.976562 225.179688 179.976562 225.160156 179.972656 C 225.128906 179.964844 225.101562 179.972656 225.070312 179.988281 C 225.039062 180.003906 225.007812 180.015625 224.972656 180.023438 C 224.964844 180.027344 224.953125 180.027344 224.941406 180.027344 C 224.921875 180.023438 224.90625 180.03125 224.890625 180.039062 C 224.847656 180.070312 224.808594 180.097656 224.769531 180.125 C 224.710938 180.167969 224.648438 180.207031 224.589844 180.25 C 224.582031 180.253906 224.574219 180.257812 224.566406 180.261719 C 224.558594 180.269531 224.550781 180.277344 224.550781 180.28125 C 224.550781 180.3125 224.539062 180.335938 224.527344 180.359375 C 224.535156 180.378906 224.546875 180.398438 224.550781 180.417969 C 224.558594 180.4375 224.554688 180.460938 224.550781 180.480469 C 224.539062 180.511719 224.511719 180.535156 224.476562 180.542969 C 224.433594 180.550781 224.394531 180.546875 224.359375 180.523438 C 224.351562 180.515625 224.339844 180.515625 224.328125 180.519531 C 224.277344 180.53125 224.226562 180.53125 224.171875 180.515625 C 224.15625 180.507812 224.140625 180.507812 224.121094 180.5 C 224.109375 180.496094 224.089844 180.492188 224.089844 180.472656 C 224.089844 180.46875 224.082031 180.464844 224.082031 180.464844 C 224.074219 180.457031 224.066406 180.449219 224.058594 180.441406 C 224.050781 180.441406 224.046875 180.449219 224.050781 180.457031 C 224.054688 180.46875 224.058594 180.476562 224.0625 180.488281 C 224.078125 180.53125 224.074219 180.578125 224.066406 180.621094 C 224.054688 180.722656 224.023438 180.820312 223.992188 180.917969 C 223.976562 180.960938 223.964844 181.007812 223.953125 181.050781 C 223.941406 181.09375 223.933594 181.136719 223.9375 181.179688 C 223.9375 181.191406 223.9375 181.207031 223.9375 181.21875 C 223.933594 181.246094 223.945312 181.269531 223.960938 181.292969 C 223.960938 181.296875 223.964844 181.300781 223.96875 181.304688 C 223.976562 181.328125 223.996094 181.335938 224.023438 181.339844 C 224.074219 181.34375 224.121094 181.363281 224.164062 181.382812 C 224.214844 181.410156 224.257812 181.445312 224.300781 181.476562 C 224.324219 181.496094 224.347656 181.515625 224.371094 181.53125 C 224.386719 181.546875 224.414062 181.546875 224.4375 181.550781 C 224.464844 181.554688 224.492188 181.554688 224.523438 181.554688 C 224.554688 181.554688 224.585938 181.554688 224.621094 181.550781 C 224.6875 181.539062 224.753906 181.53125 224.824219 181.519531 C 224.828125 181.519531 224.835938 181.519531 224.839844 181.519531 C 224.894531 181.515625 224.945312 181.511719 224.996094 181.507812 C 225.035156 181.503906 225.074219 181.5 225.109375 181.496094 C 225.167969 181.488281 225.226562 181.476562 225.285156 181.457031 C 225.316406 181.445312 225.335938 181.425781 225.347656 181.398438 C 225.363281 181.363281 225.382812 181.324219 225.402344 181.289062 C 225.433594 181.222656 225.480469 181.175781 225.542969 181.132812 C 225.613281 181.082031 225.679688 181.03125 225.75 180.980469 C 225.792969 180.949219 225.832031 180.921875 225.875 180.894531 C 225.9375 180.855469 225.992188 180.808594 226.039062 180.75 C 226.054688 180.734375 226.070312 180.71875 226.082031 180.699219 C 226.089844 180.695312 226.09375 180.683594 226.09375 180.675781 C 226.089844 180.652344 226.089844 180.628906 226.085938 180.609375 C 226.070312 180.546875 226.113281 180.5 226.183594 180.5 C 226.230469 180.5 226.28125 180.5 226.328125 180.5 C 226.34375 180.5 226.363281 180.496094 226.375 180.492188 C 226.414062 180.480469 226.441406 180.460938 226.46875 180.4375 C 226.476562 180.433594 226.484375 180.425781 226.488281 180.417969 C 226.503906 180.394531 226.519531 180.367188 226.535156 180.34375 C 226.542969 180.332031 226.550781 180.316406 226.558594 180.300781 C 226.566406 180.28125 226.582031 180.269531 226.601562 180.261719 C 226.613281 180.253906 226.625 180.257812 226.636719 180.265625 C 226.664062 180.296875 226.675781 180.328125 226.671875 180.367188 C 226.671875 180.390625 226.667969 180.410156 226.667969 180.433594 C 226.664062 180.449219 226.65625 180.460938 226.648438 180.472656 C 226.617188 180.507812 226.589844 180.546875 226.5625 180.585938 C 226.550781 180.597656 226.539062 180.613281 226.53125 180.628906 C 226.507812 180.671875 226.472656 180.703125 226.433594 180.738281 C 226.382812 180.777344 226.335938 180.816406 226.289062 180.859375 C 226.238281 180.898438 226.191406 180.941406 226.144531 180.984375 C 226.109375 181.015625 226.078125 181.050781 226.042969 181.085938 C 226 181.125 225.96875 181.175781 225.933594 181.21875 C 225.90625 181.253906 225.875 181.285156 225.847656 181.316406 C 225.777344 181.394531 225.714844 181.476562 225.65625 181.558594 C 225.613281 181.621094 225.566406 181.679688 225.523438 181.738281 C 225.511719 181.753906 225.492188 181.765625 225.46875 181.769531 C 225.40625 181.78125 225.34375 181.804688 225.28125 181.824219 C 225.21875 181.847656 225.152344 181.863281 225.085938 181.875 C 225.039062 181.882812 224.996094 181.894531 224.953125 181.898438 C 224.921875 181.90625 224.890625 181.90625 224.859375 181.910156 C 224.832031 181.914062 224.808594 181.917969 224.78125 181.917969 C 224.722656 181.925781 224.664062 181.929688 224.601562 181.9375 C 224.558594 181.945312 224.511719 181.953125 224.464844 181.960938 C 224.382812 181.972656 224.304688 181.992188 224.21875 181.996094 C 224.195312 182 224.167969 181.996094 224.140625 181.992188 C 224.121094 181.992188 224.097656 181.996094 224.078125 182.003906 C 224.035156 182.027344 223.984375 182.039062 223.9375 182.050781 C 223.902344 182.0625 223.871094 182.074219 223.839844 182.089844 C 223.796875 182.109375 223.753906 182.132812 223.710938 182.152344 C 223.6875 182.164062 223.660156 182.175781 223.632812 182.183594 C 223.558594 182.210938 223.488281 182.242188 223.414062 182.265625 C 223.320312 182.300781 223.222656 182.335938 223.125 182.367188 C 223.023438 182.398438 222.921875 182.433594 222.824219 182.472656 C 222.738281 182.503906 222.652344 182.53125 222.566406 182.5625 C 222.542969 182.574219 222.515625 182.585938 222.492188 182.597656 C 222.402344 182.640625 222.3125 182.6875 222.222656 182.730469 C 222.191406 182.746094 222.152344 182.753906 222.117188 182.765625 C 222.113281 182.765625 222.105469 182.765625 222.097656 182.765625 C 222.011719 182.765625 221.925781 182.769531 221.839844 182.777344 C 221.789062 182.78125 221.738281 182.785156 221.6875 182.785156 C 221.59375 182.78125 221.507812 182.796875 221.417969 182.820312 C 221.40625 182.824219 221.394531 182.832031 221.378906 182.832031 C 221.335938 182.84375 221.308594 182.871094 221.289062 182.90625 C 221.269531 182.949219 221.230469 182.964844 221.179688 182.957031 C 221.148438 182.953125 221.121094 182.9375 221.09375 182.925781 C 221.070312 182.914062 221.042969 182.898438 221.019531 182.886719 C 220.996094 182.871094 220.96875 182.867188 220.941406 182.875 C 220.871094 182.890625 220.800781 182.90625 220.730469 182.921875 C 220.714844 182.925781 220.703125 182.933594 220.691406 182.941406 C 220.664062 182.96875 220.628906 182.96875 220.597656 182.964844 C 220.585938 182.964844 220.582031 182.960938 220.582031 182.949219 C 220.582031 182.9375 220.578125 182.921875 220.585938 182.90625 C 220.605469 182.882812 220.617188 182.855469 220.636719 182.832031 C 220.65625 182.804688 220.683594 182.785156 220.714844 182.769531 C 220.8125 182.730469 220.910156 182.6875 221.003906 182.644531 C 221.046875 182.628906 221.09375 182.617188 221.140625 182.613281 C 221.191406 182.605469 221.242188 182.597656 221.292969 182.59375 C 221.339844 182.585938 221.390625 182.589844 221.4375 182.585938 C 221.460938 182.585938 221.488281 182.585938 221.511719 182.582031 C 221.585938 182.570312 221.660156 182.550781 221.730469 182.523438 C 221.804688 182.496094 221.875 182.46875 221.949219 182.445312 C 221.996094 182.429688 222.050781 182.421875 222.101562 182.410156 C 222.113281 182.410156 222.128906 182.40625 222.144531 182.402344 C 222.179688 182.390625 222.214844 182.378906 222.25 182.367188 C 222.292969 182.351562 222.332031 182.332031 222.371094 182.316406 C 222.417969 182.296875 222.464844 182.277344 222.511719 182.253906 C 222.539062 182.242188 222.5625 182.226562 222.589844 182.210938 C 222.605469 182.207031 222.617188 182.199219 222.632812 182.195312 C 222.671875 182.1875 222.703125 182.164062 222.730469 182.132812 C 222.789062 182.070312 222.851562 182.011719 222.921875 181.953125 C 222.992188 181.890625 223.074219 181.847656 223.164062 181.808594 C 223.21875 181.78125 223.28125 181.761719 223.347656 181.746094 Z M 226.519531 179.21875 C 226.53125 179.21875 226.535156 179.21875 226.542969 179.21875 C 226.574219 179.21875 226.605469 179.21875 226.640625 179.21875 C 226.714844 179.214844 226.789062 179.214844 226.859375 179.210938 C 226.9375 179.210938 227.011719 179.210938 227.085938 179.207031 C 227.128906 179.207031 227.175781 179.203125 227.21875 179.199219 C 227.269531 179.195312 227.316406 179.191406 227.367188 179.183594 C 227.441406 179.175781 227.511719 179.167969 227.585938 179.15625 C 227.667969 179.144531 227.75 179.128906 227.832031 179.105469 C 227.933594 179.074219 228.03125 179.035156 228.113281 178.96875 C 228.15625 178.933594 228.1875 178.894531 228.210938 178.84375 C 228.210938 178.835938 228.210938 178.824219 228.210938 178.816406 C 228.1875 178.761719 228.152344 178.710938 228.109375 178.671875 C 228.0625 178.628906 228.007812 178.601562 227.945312 178.585938 C 227.890625 178.574219 227.832031 178.570312 227.777344 178.574219 C 227.714844 178.582031 227.652344 178.585938 227.59375 178.597656 C 227.484375 178.617188 227.375 178.648438 227.273438 178.6875 C 227.179688 178.71875 227.09375 178.761719 227.007812 178.804688 C 226.871094 178.878906 226.75 178.964844 226.644531 179.070312 C 226.597656 179.117188 226.554688 179.164062 226.519531 179.21875 Z M 231.144531 179.96875 C 231.171875 179.972656 231.195312 179.976562 231.214844 179.980469 C 231.273438 179.984375 231.328125 179.988281 231.382812 179.996094 C 231.433594 179.996094 231.480469 180 231.527344 180 C 231.597656 180.003906 231.664062 180 231.730469 179.992188 C 231.796875 179.984375 231.863281 179.972656 231.925781 179.953125 C 231.996094 179.933594 232.0625 179.902344 232.132812 179.871094 C 232.230469 179.824219 232.316406 179.765625 232.382812 179.683594 C 232.449219 179.605469 232.492188 179.515625 232.503906 179.414062 C 232.503906 179.40625 232.503906 179.394531 232.492188 179.390625 C 232.476562 179.378906 232.460938 179.367188 232.441406 179.359375 C 232.386719 179.335938 232.328125 179.339844 232.273438 179.347656 C 232.207031 179.355469 232.148438 179.375 232.089844 179.394531 C 231.980469 179.4375 231.878906 179.488281 231.777344 179.542969 C 231.675781 179.601562 231.574219 179.664062 231.476562 179.730469 C 231.394531 179.785156 231.3125 179.84375 231.234375 179.902344 C 231.203125 179.921875 231.175781 179.945312 231.144531 179.96875 Z M 230.480469 179.886719 C 230.441406 179.871094 230.410156 179.859375 230.378906 179.84375 C 230.34375 179.824219 230.304688 179.8125 230.265625 179.808594 C 230.203125 179.804688 230.144531 179.800781 230.085938 179.804688 C 230.058594 179.804688 230.027344 179.808594 230 179.8125 C 229.9375 179.824219 229.882812 179.84375 229.828125 179.871094 C 229.796875 179.886719 229.769531 179.90625 229.746094 179.929688 C 229.738281 179.941406 229.726562 179.953125 229.726562 179.96875 C 229.734375 179.972656 229.742188 179.976562 229.746094 179.976562 C 229.769531 179.980469 229.789062 179.980469 229.808594 179.980469 C 229.839844 179.980469 229.871094 179.980469 229.902344 179.980469 C 229.949219 179.976562 229.996094 179.976562 230.042969 179.96875 C 230.105469 179.964844 230.167969 179.953125 230.230469 179.945312 C 230.3125 179.933594 230.394531 179.914062 230.480469 179.886719 Z M 228.390625 180.257812 C 228.394531 180.265625 228.398438 180.269531 228.398438 180.273438 C 228.441406 180.320312 228.492188 180.355469 228.550781 180.382812 C 228.601562 180.402344 228.65625 180.40625 228.707031 180.390625 C 228.753906 180.382812 228.792969 180.363281 228.828125 180.335938 C 228.855469 180.320312 228.867188 180.304688 228.859375 180.273438 C 228.84375 180.226562 228.820312 180.183594 228.789062 180.144531 C 228.742188 180.167969 228.703125 180.1875 228.65625 180.207031 C 228.582031 180.238281 228.503906 180.261719 228.417969 180.257812 C 228.410156 180.257812 228.402344 180.257812 228.390625 180.257812 Z M 228.390625 180.257812 "/></g><g clip-rule="nonzero" clip-path="url(#9b8e16da9b)"><path style=" stroke:none;fill-rule:nonzero;fill:#366db3;fill-opacity:1;" d="M 353.742188 361.34375 C 352.820312 357.75 352.40625 353.960938 351.183594 350.445312 C 349.882812 347.289062 345.957031 344.675781 346.832031 343.402344 C 347.039062 343.101562 347.058594 342.710938 346.914062 342.371094 C 345.914062 340.023438 344.027344 335.203125 342.152344 333.578125 C 340.804688 332.414062 339.410156 331.300781 338.601562 329.617188 C 331.648438 315.839844 325.625 301.617188 318.449219 287.957031 C 310.496094 273.597656 296.910156 263.519531 287.632812 250.054688 C 284.316406 245.691406 283.039062 240.191406 280.96875 235.195312 C 277 224.203125 272.730469 213.890625 269.859375 202.535156 C 270.523438 202.136719 271.089844 201.976562 271.664062 201.765625 C 272.582031 201.429688 273.152344 200.382812 272.921875 199.429688 C 270.785156 190.652344 267.664062 182.117188 264.546875 173.644531 C 261.453125 164 255.980469 154.871094 255.117188 144.65625 C 254.570312 128.546875 259.1875 112.390625 266.53125 98.148438 C 274.746094 98.929688 282.808594 100.160156 290.929688 101.511719 C 299.972656 102.625 309.664062 105.132812 317.992188 100.003906 C 324.75 96.394531 322.539062 88.992188 319.988281 83.339844 C 314.421875 70.796875 304.109375 58.144531 295.460938 47 C 295.460938 47 295.441406 46.613281 294.53125 47.332031 C 294.414062 47.074219 294.261719 46.816406 294.070312 46.554688 C 289.894531 41.097656 292.074219 33.835938 289.9375 27.640625 C 289.730469 26.84375 289.320312 26.058594 288.917969 25.363281 C 288.113281 24.269531 285.160156 20.027344 283.929688 20.214844 C 282.152344 21.503906 282.191406 22.667969 283.433594 24.332031 C 283.792969 24.832031 285.160156 26.378906 285.488281 26.902344 C 285.195312 26.996094 285.050781 26.988281 284.988281 26.910156 C 284.027344 25.691406 279.757812 23.617188 278.535156 25.148438 C 278.246094 25.511719 278.546875 25.761719 278.199219 25.726562 C 277.0625 25.601562 276.335938 25.660156 275.386719 26.054688 C 274.210938 26.558594 274.070312 27.875 275.101562 28.644531 C 275.574219 28.996094 276.132812 29.238281 276.652344 29.53125 C 276.597656 29.671875 276.613281 29.636719 276.5625 29.777344 C 274.324219 29.363281 271.957031 28.726562 269.769531 29.722656 C 268.558594 30.304688 268.363281 31.4375 269.359375 32.339844 C 270.066406 32.867188 270.765625 33.027344 271.652344 33.367188 C 270.78125 35.070312 269.566406 35.832031 269.507812 37.933594 C 269.476562 38.9375 269.589844 39.992188 269.5625 40.816406 C 269.550781 41.101562 269.554688 41.390625 269.574219 41.679688 C 269.574219 41.679688 270.289062 47.761719 268.066406 50.789062 C 267.886719 51.003906 267.699219 51.214844 267.507812 51.421875 C 265.578125 53.171875 253.140625 59.542969 246.539062 63.117188 C 244.714844 62.816406 243.453125 62.425781 242.101562 61.757812 C 241.707031 61.5625 240.078125 60.5625 239.746094 60.269531 C 240.09375 59.824219 237.796875 57.777344 234.5625 55.554688 C 234.261719 55.347656 233.847656 55.449219 233.679688 55.773438 L 232.128906 53.933594 C 229.4375 50.734375 228.125 46.597656 228.496094 42.433594 C 229.007812 36.679688 230.925781 30.703125 229.933594 24.988281 C 229.382812 20.84375 227.488281 15.921875 224.371094 12.878906 C 224.371094 12.878906 224.367188 12.875 224.367188 12.875 C 219.761719 7.746094 211.539062 7.6875 211.539062 7.6875 C 209.273438 7.386719 207.089844 7.539062 204.175781 8.238281 C 192.640625 10.417969 175.285156 22.988281 185.648438 29.996094 C 186.683594 30.695312 186.789062 38.558594 187.65625 39.578125 C 189.132812 41.871094 186.679688 46.710938 186.3125 49.28125 C 186.132812 50.28125 186.570312 50.710938 187.605469 50.882812 C 188.480469 51.027344 189.101562 50.792969 190.058594 50.726562 C 190.648438 50.683594 191.140625 51.15625 191.140625 51.746094 C 191.132812 53.535156 191.242188 53.757812 192.339844 54.195312 C 194.074219 55.078125 191.105469 55.910156 194.175781 57.546875 C 194.53125 57.738281 194.792969 58.21875 194.75 58.617188 C 194.453125 61.203125 195.773438 63.128906 198.53125 62.472656 C 200.84375 61.917969 203.011719 61.539062 205.214844 60.707031 C 206.507812 60.21875 207.96875 60.648438 208.78125 61.765625 C 209.800781 63.160156 210.808594 64.539062 211.804688 65.90625 C 212.453125 66.792969 212.449219 67.996094 211.792969 68.875 C 211.160156 69.726562 209.828125 71.613281 209.757812 71.75 C 207.988281 75.207031 205.34375 77.898438 202.269531 80.179688 C 202.03125 80.34375 201.792969 80.507812 201.554688 80.675781 C 198.230469 82.625 193.847656 85.09375 190.480469 86.628906 C 188.128906 87.703125 186.207031 88.527344 184.726562 89.136719 C 177.738281 88.523438 170.621094 87.359375 163.800781 88.242188 C 162.804688 88.371094 161.792969 88.25 160.859375 87.878906 L 160.003906 87.539062 C 158.601562 86.984375 157.539062 85.800781 157.144531 84.34375 C 155.988281 80.070312 156.359375 75.527344 158.84375 71.851562 C 159.453125 71.070312 160.160156 70.789062 161.128906 71.023438 C 163.914062 71.691406 166.730469 72.40625 169.601562 72.527344 C 172.199219 72.664062 172.785156 69.886719 172.515625 67.808594 C 172.46875 66.996094 172.492188 66.25 173.195312 65.875 C 173.566406 65.679688 173.738281 65.242188 173.625 64.835938 C 173.324219 63.75 172.421875 64.058594 174.222656 62.429688 C 174.664062 62.03125 174.511719 61.597656 174.210938 61.277344 C 174.210938 61.277344 174.207031 61.273438 174.207031 61.273438 C 173.222656 60.042969 173.859375 58.816406 175.769531 58.523438 C 176.824219 58.359375 177.011719 57.320312 176.648438 56.777344 C 176 55.8125 175.132812 54.726562 174.464844 53.738281 C 173.253906 51.882812 172.429688 50.726562 172.949219 48.367188 C 173.472656 45.988281 173.851562 43.554688 173.347656 41.09375 C 173.289062 40.808594 173.164062 40.5 173.203125 40.195312 C 173.304688 40.191406 174.160156 40.140625 174.296875 37.746094 C 174.847656 28.136719 168.027344 29.71875 160.242188 27.996094 C 148.5625 24.25 136.863281 26 131.753906 38.394531 C 128.460938 36.832031 124.386719 36.757812 122.136719 39.59375 C 118.640625 44.042969 118.410156 53.65625 123.976562 56.195312 C 127.828125 57.957031 128.949219 55.292969 130.164062 54.757812 C 131.3125 58.5625 133.601562 62.171875 137.6875 63.25 C 138.183594 63.421875 138.589844 63.644531 138.660156 64.183594 C 140.976562 75.640625 136.722656 86.855469 132.839844 97.472656 C 130.214844 104.128906 133.40625 112.476562 136.816406 118.355469 L 130.855469 123.90625 C 126.535156 128.503906 124.210938 136.792969 131.371094 139.675781 C 138.25 142.558594 145.039062 138.609375 147.417969 137.007812 C 150.289062 143.6875 152.769531 155.9375 149.679688 162.765625 C 146.46875 168.933594 140.230469 172.445312 135.292969 177.058594 C 129.261719 182.082031 125.625 189.613281 125.882812 197.511719 C 125.882812 202.585938 127.617188 207.492188 127.496094 212.5625 C 121.421875 242.035156 91.453125 264.777344 67.410156 280.550781 C 67.070312 280.773438 67.03125 281.261719 67.335938 281.535156 C 70.707031 284.53125 75.863281 287.898438 81.808594 289.539062 C 73.640625 299.070312 69.988281 311.730469 62.589844 321.890625 C 61.214844 323.777344 59.820312 324.730469 58.398438 325.199219 C 56.417969 325.855469 54.378906 325.570312 52.257812 325.5625 C 52.242188 325.5625 52.226562 325.5625 52.210938 325.5625 C 52.171875 325.5625 52.136719 325.5625 52.097656 325.5625 C 52.078125 325.5625 52.0625 325.5625 52.042969 325.5625 C 51.984375 325.5625 51.925781 325.5625 51.867188 325.5625 C 51.839844 325.5625 51.8125 325.5625 51.785156 325.566406 C 51.753906 325.566406 51.726562 325.566406 51.695312 325.566406 C 51.65625 325.566406 51.617188 325.570312 51.578125 325.570312 C 51.542969 325.570312 51.503906 325.574219 51.46875 325.574219 C 51.4375 325.578125 51.402344 325.578125 51.367188 325.578125 C 51.339844 325.578125 51.3125 325.582031 51.289062 325.582031 C 51.242188 325.585938 51.195312 325.585938 51.152344 325.589844 C 51.125 325.589844 51.097656 325.59375 51.070312 325.59375 C 51.027344 325.597656 50.988281 325.597656 50.949219 325.601562 C 50.925781 325.605469 50.902344 325.605469 50.875 325.609375 C 50.828125 325.613281 50.785156 325.617188 50.738281 325.621094 C 50.714844 325.621094 50.6875 325.625 50.664062 325.625 C 50.621094 325.628906 50.574219 325.636719 50.53125 325.640625 C 50.507812 325.640625 50.488281 325.644531 50.464844 325.648438 C 50.414062 325.652344 50.367188 325.660156 50.320312 325.664062 C 50.300781 325.667969 50.285156 325.667969 50.265625 325.671875 C 50.214844 325.675781 50.164062 325.683594 50.113281 325.691406 C 50.089844 325.695312 50.070312 325.699219 50.050781 325.699219 C 50 325.707031 49.953125 325.714844 49.902344 325.722656 C 49.890625 325.726562 49.878906 325.726562 49.867188 325.730469 C 49.808594 325.738281 49.75 325.75 49.691406 325.761719 C 49.671875 325.761719 49.652344 325.769531 49.632812 325.773438 C 49.582031 325.78125 49.535156 325.789062 49.484375 325.800781 C 49.472656 325.804688 49.457031 325.804688 49.445312 325.808594 C 49.386719 325.820312 49.324219 325.835938 49.265625 325.847656 C 49.246094 325.851562 49.230469 325.855469 49.210938 325.859375 C 49.160156 325.871094 49.113281 325.886719 49.0625 325.898438 C 49.046875 325.902344 49.035156 325.90625 49.019531 325.910156 C 48.960938 325.925781 48.902344 325.941406 48.839844 325.957031 C 48.835938 325.960938 48.832031 325.960938 48.828125 325.960938 C 48.773438 325.976562 48.683594 326.003906 48.628906 326.019531 C 48.617188 326.023438 48.609375 326.027344 48.59375 326.03125 C 48.535156 326.046875 48.472656 326.066406 48.414062 326.089844 C 48.398438 326.09375 48.382812 326.097656 48.367188 326.101562 C 48.320312 326.121094 48.269531 326.136719 48.21875 326.15625 C 48.203125 326.160156 48.183594 326.167969 48.167969 326.171875 C 48.105469 326.195312 48.042969 326.21875 47.980469 326.242188 C 47.964844 326.25 47.949219 326.253906 47.933594 326.261719 C 47.882812 326.28125 47.828125 326.304688 47.773438 326.328125 C 47.761719 326.332031 47.75 326.335938 47.734375 326.34375 C 47.671875 326.371094 47.613281 326.398438 47.546875 326.425781 C 47.535156 326.429688 47.523438 326.4375 47.511719 326.441406 C 47.457031 326.464844 47.402344 326.492188 47.351562 326.515625 C 47.335938 326.523438 47.316406 326.53125 47.304688 326.539062 C 47.238281 326.570312 47.175781 326.601562 47.113281 326.632812 C 47.101562 326.640625 47.089844 326.648438 47.078125 326.652344 C 47.023438 326.679688 46.96875 326.710938 46.914062 326.738281 C 46.898438 326.746094 46.882812 326.757812 46.867188 326.765625 C 46.804688 326.800781 46.738281 326.835938 46.675781 326.875 C 46.667969 326.878906 46.65625 326.886719 46.644531 326.890625 C 46.589844 326.921875 46.535156 326.957031 46.476562 326.992188 C 46.460938 327 46.445312 327.011719 46.429688 327.023438 C 46.363281 327.0625 46.300781 327.101562 46.234375 327.144531 C 46.226562 327.148438 46.21875 327.15625 46.214844 327.160156 C 46.15625 327.199219 46.097656 327.238281 46.039062 327.277344 C 46.019531 327.289062 46.003906 327.300781 45.988281 327.3125 C 45.921875 327.359375 45.855469 327.402344 45.792969 327.449219 C 45.789062 327.453125 45.78125 327.457031 45.777344 327.460938 C 45.71875 327.503906 45.65625 327.550781 45.59375 327.597656 C 45.578125 327.613281 45.5625 327.625 45.542969 327.636719 C 45.476562 327.6875 45.410156 327.742188 45.347656 327.792969 C 43.820312 328.953125 42.820312 330.566406 41.859375 332.171875 C 39.023438 337.039062 35.089844 341.054688 30.632812 344.449219 C 30.574219 344.484375 30.527344 344.519531 30.476562 344.558594 C 30.414062 344.609375 30.351562 344.660156 30.300781 344.707031 C 30.292969 344.71875 30.285156 344.726562 30.277344 344.734375 C 30.253906 344.753906 30.234375 344.773438 30.214844 344.796875 C 30.203125 344.8125 30.191406 344.824219 30.179688 344.839844 C 30.167969 344.851562 30.15625 344.867188 30.144531 344.882812 C 30.132812 344.898438 30.121094 344.917969 30.109375 344.933594 C 30.101562 344.945312 30.09375 344.957031 30.085938 344.96875 C 30.078125 344.984375 30.070312 344.996094 30.0625 345.011719 C 30.054688 345.027344 30.046875 345.039062 30.039062 345.054688 C 30.03125 345.074219 30.023438 345.089844 30.015625 345.109375 C 30.011719 345.121094 30.007812 345.128906 30.003906 345.140625 C 29.996094 345.15625 29.992188 345.175781 29.988281 345.191406 C 29.984375 345.203125 29.980469 345.214844 29.976562 345.226562 C 29.972656 345.242188 29.972656 345.257812 29.96875 345.273438 C 29.96875 345.285156 29.964844 345.300781 29.964844 345.3125 C 29.960938 345.324219 29.960938 345.339844 29.960938 345.355469 C 29.960938 345.367188 29.957031 345.382812 29.957031 345.398438 C 29.957031 345.414062 29.960938 345.433594 29.960938 345.449219 C 29.960938 345.460938 29.960938 345.472656 29.964844 345.484375 C 29.964844 345.503906 29.96875 345.527344 29.972656 345.550781 C 29.972656 345.554688 29.972656 345.5625 29.976562 345.566406 C 29.980469 345.585938 29.984375 345.605469 29.988281 345.625 C 29.992188 345.632812 29.992188 345.644531 29.996094 345.652344 C 30 345.667969 30.007812 345.683594 30.011719 345.699219 C 30.015625 345.710938 30.019531 345.726562 30.023438 345.738281 C 30.03125 345.757812 30.042969 345.777344 30.050781 345.796875 C 30.054688 345.804688 30.054688 345.8125 30.0625 345.820312 C 30.070312 345.835938 30.078125 345.855469 30.085938 345.871094 C 30.089844 345.882812 30.097656 345.894531 30.101562 345.90625 C 30.109375 345.917969 30.117188 345.929688 30.125 345.945312 C 30.132812 345.957031 30.144531 345.972656 30.152344 345.988281 C 30.160156 346.003906 30.171875 346.015625 30.179688 346.03125 C 30.191406 346.042969 30.199219 346.058594 30.207031 346.070312 C 30.222656 346.09375 30.242188 346.117188 30.257812 346.140625 C 30.261719 346.144531 30.265625 346.148438 30.265625 346.152344 C 30.28125 346.171875 30.292969 346.1875 30.308594 346.203125 C 30.316406 346.214844 30.324219 346.222656 30.332031 346.234375 C 30.34375 346.246094 30.351562 346.257812 30.363281 346.269531 C 30.375 346.285156 30.390625 346.300781 30.402344 346.316406 C 30.421875 346.339844 30.445312 346.367188 30.46875 346.390625 C 30.472656 346.394531 30.472656 346.394531 30.476562 346.398438 C 30.492188 346.417969 30.511719 346.4375 30.53125 346.457031 C 30.539062 346.464844 30.546875 346.472656 30.550781 346.480469 C 30.597656 346.527344 30.644531 346.574219 30.695312 346.621094 C 30.703125 346.628906 30.707031 346.632812 30.714844 346.640625 C 30.726562 346.652344 30.742188 346.667969 30.757812 346.679688 C 30.769531 346.695312 30.785156 346.707031 30.796875 346.71875 C 30.851562 346.773438 30.910156 346.824219 30.964844 346.875 C 30.96875 346.875 30.96875 346.875 30.96875 346.878906 C 30.996094 346.902344 31.023438 346.929688 31.054688 346.953125 C 31.054688 346.953125 31.054688 346.953125 31.054688 346.957031 C 31.113281 347.007812 31.171875 347.058594 31.230469 347.109375 C 31.539062 347.386719 32.015625 347.347656 32.277344 347.023438 C 32.628906 346.59375 33 346.183594 33.382812 345.785156 C 33.390625 345.78125 33.394531 345.773438 33.398438 345.769531 C 33.519531 345.644531 33.644531 345.523438 33.765625 345.402344 C 33.777344 345.390625 33.785156 345.382812 33.796875 345.371094 C 33.886719 345.285156 33.976562 345.195312 34.070312 345.109375 C 34.113281 345.066406 34.15625 345.027344 34.199219 344.984375 C 34.28125 344.90625 34.371094 344.828125 34.453125 344.746094 C 34.507812 344.699219 34.558594 344.652344 34.609375 344.605469 C 34.691406 344.527344 34.777344 344.453125 34.863281 344.378906 C 34.917969 344.328125 34.972656 344.277344 35.027344 344.230469 C 35.117188 344.152344 35.207031 344.074219 35.296875 343.996094 C 35.347656 343.949219 35.398438 343.90625 35.449219 343.863281 C 35.488281 343.828125 35.527344 343.792969 35.566406 343.761719 C 35.753906 343.597656 35.945312 343.4375 36.132812 343.277344 C 36.238281 343.1875 36.347656 343.097656 36.453125 343.007812 C 37.054688 342.5 37.65625 341.996094 38.25 341.476562 C 38.457031 341.296875 38.660156 341.113281 38.863281 340.929688 C 39.613281 340.308594 40.542969 339.824219 41.472656 339.511719 C 43.21875 338.921875 44.304688 339.800781 44.402344 341.675781 C 44.394531 345.796875 41.5625 349.199219 38.820312 351.984375 C 32.644531 358.738281 40.210938 366.980469 43.175781 373.40625 C 43.175781 373.40625 44.851562 375.523438 46.144531 373.441406 C 46.867188 370.378906 46.984375 367.402344 47.234375 364.308594 C 47.445312 362.078125 48.171875 360.054688 49.789062 358.429688 C 54.847656 353.035156 60.84375 348.394531 64.605469 341.914062 C 64.765625 341.609375 64.929688 341.304688 65.09375 341 C 65.144531 340.902344 65.199219 340.804688 65.25 340.707031 C 65.371094 340.488281 65.488281 340.273438 65.609375 340.054688 C 65.691406 339.910156 65.773438 339.765625 65.851562 339.621094 C 65.96875 339.414062 66.085938 339.207031 66.203125 339 C 66.304688 338.824219 66.410156 338.648438 66.511719 338.46875 C 66.558594 338.386719 66.609375 338.304688 66.65625 338.21875 C 67.039062 337.566406 67.425781 336.917969 67.824219 336.273438 C 73.292969 327.375 80.085938 319.371094 87.289062 311.792969 C 92.941406 305.769531 98.824219 300.003906 105.058594 294.601562 C 118.746094 296.582031 136.3125 297.441406 154.480469 293.839844 C 159.832031 314.875 164.945312 335.953125 169.257812 357.246094 C 169.359375 357.761719 169.84375 358.113281 170.363281 358.046875 C 171.539062 357.902344 172.644531 357.683594 173.808594 357.835938 C 171.835938 361.117188 169.148438 364.035156 165.695312 365.515625 C 162.6875 366.445312 159.421875 366.539062 156.378906 367.378906 C 154.378906 368.003906 154 370.703125 154.867188 372.394531 L 154.875 372.40625 C 155.230469 373.054688 155.910156 373.457031 156.652344 373.457031 L 176.757812 373.457031 C 177.691406 373.457031 178.617188 373.324219 179.507812 373.0625 L 180.386719 372.800781 C 180.386719 372.800781 180.390625 372.800781 180.390625 372.800781 C 185.351562 370.730469 190.371094 369.171875 195.609375 367.726562 C 195.707031 367.699219 195.808594 367.765625 195.828125 367.863281 L 196.800781 373 C 196.867188 373.347656 197.171875 373.601562 197.527344 373.597656 L 210.007812 373.523438 C 210.367188 373.523438 210.671875 373.261719 210.730469 372.90625 C 211.199219 370.015625 211.578125 367.5 211.820312 364.730469 C 212.386719 359.597656 210.699219 354.554688 209.992188 349.507812 C 211.480469 348.820312 210.613281 346.613281 208.667969 342.636719 C 203.582031 332.257812 199.957031 322.804688 196.089844 311.960938 C 192.953125 301.964844 189.714844 291.957031 187.148438 281.808594 C 192.394531 279.238281 197.089844 275.921875 202.054688 272.8125 C 201.199219 282.269531 204.796875 291.425781 209.511719 299.472656 C 214.203125 307.585938 218.914062 315.683594 223.539062 323.832031 C 225.871094 328.605469 230.492188 334.910156 227.351562 340.007812 C 226.890625 340.546875 226.429688 341.101562 226 341.703125 C 224.253906 343.757812 223.667969 346.078125 223.769531 348.464844 C 223.707031 350.398438 224.195312 352.246094 224.707031 354.0625 C 226.421875 359.921875 226.769531 366.066406 226.300781 372.203125 C 226.050781 374.03125 227.453125 373.800781 228.679688 373.632812 C 229.089844 373.578125 229.378906 373.160156 229.316406 372.710938 C 228.878906 369.609375 229.246094 365.03125 229.269531 361.746094 C 229.273438 361.355469 229.304688 360.964844 229.378906 360.582031 C 229.886719 357.96875 231.1875 356.429688 233.722656 357.792969 C 239.195312 360.417969 237.339844 368.742188 240.847656 372.828125 C 242.597656 374.582031 244.109375 374.644531 244.109375 374.644531 L 261.894531 374.644531 C 262.996094 374.644531 263.566406 373.804688 263.121094 372.796875 C 263.023438 372.578125 262.929688 372.503906 262.832031 372.429688 C 262.113281 371.871094 261.355469 371.34375 260.546875 370.925781 C 252.058594 367.308594 250.457031 365.46875 249.851562 356.195312 C 249.523438 351.375 247.703125 346.882812 246.566406 342.238281 C 245.90625 339.523438 245.277344 336.816406 243.875 334.355469 C 235.679688 321.433594 231.414062 306.75 228.375 291.878906 C 226.609375 283.394531 224.925781 274.882812 224.078125 266.25 C 223.679688 262.976562 223.804688 259.71875 224.402344 256.480469 C 224.96875 252.589844 226.804688 248.167969 223.945312 244.777344 C 221.121094 241.59375 218.210938 238.488281 215.269531 235.40625 L 226.59375 223.238281 C 227.71875 222.03125 229.640625 222.082031 230.703125 223.339844 C 264.515625 263.574219 287.503906 312.535156 313.261719 358.003906 C 313.445312 358.324219 313.820312 358.488281 314.179688 358.390625 C 315.421875 358.050781 316.074219 357.316406 317.367188 357.144531 C 317.460938 359.355469 317.097656 361.550781 316.84375 363.738281 C 316.722656 364.507812 316.265625 365.339844 315.714844 365.894531 C 311.933594 369.90625 304.929688 368.449219 303.558594 374.792969 C 303.558594 374.792969 303.554688 376.265625 306.757812 375.960938 C 309.449219 375.703125 322.789062 373.777344 327.933594 372.917969 C 329.476562 372.660156 330.917969 371.96875 332.0625 370.898438 C 334.847656 368.296875 336.949219 364.84375 339.6875 362.121094 C 339.769531 362.042969 339.90625 362.058594 339.964844 362.15625 C 340.988281 363.855469 341.957031 365.460938 342.90625 367.035156 C 343.183594 367.496094 343.757812 367.675781 344.25 367.457031 C 347.539062 365.996094 350.425781 364.109375 353.367188 362.332031 C 353.613281 362.183594 353.753906 361.675781 353.742188 361.34375 Z M 278.304688 49.117188 C 279.917969 51.386719 282.136719 52.894531 284.238281 54.644531 C 285.699219 55.867188 285.425781 55.589844 284.675781 56.707031 C 283.933594 57.808594 283.625 57.871094 284.199219 59.019531 C 286.9375 64.515625 290.589844 71.359375 293.449219 76.789062 C 293.691406 77.257812 293.769531 77.8125 293.96875 78.488281 C 287.4375 76.699219 280.746094 74.832031 274.949219 71.226562 C 271.890625 69.035156 269.101562 66.71875 265.902344 64.652344 C 265.507812 64.375 264.988281 64.148438 264.367188 63.964844 C 269.671875 59.601562 274.996094 55.234375 278.304688 49.117188 Z M 199.464844 164.894531 C 198.449219 178.972656 195.679688 193.140625 187.921875 205.171875 C 184.3125 201.4375 181.1875 197.921875 177.875 194.042969 C 176.53125 192.464844 175.414062 190.714844 175.296875 188.582031 C 175.121094 183.984375 176.601562 179.511719 178.097656 175.234375 C 181.347656 165.949219 182.863281 157.1875 184.097656 147.945312 C 184.554688 143.84375 184.386719 139.660156 184.617188 135.527344 C 184.945312 131.691406 188.417969 129.414062 190.195312 126.261719 C 190.960938 124.996094 191.464844 123.753906 191.75 122.542969 L 192.707031 123.019531 C 193.167969 123.25 193.535156 123.628906 193.753906 124.097656 L 193.757812 124.105469 C 196.027344 129.023438 197.960938 134.078125 198.871094 139.433594 C 200.128906 147.84375 200.125 156.429688 199.464844 164.894531 Z M 199.464844 164.894531 "/></g></g></svg>