<svg width="69" height="91" viewBox="0 0 69 91" fill="none" xmlns="http://www.w3.org/2000/svg">
<g clip-path="url(#clip0_55_17)">
<path d="M11.375 0C5.10098 0 0 5.10098 0 11.375V79.6251C0 85.8991 5.10098 91.0001 11.375 91.0001H56.8751C63.1491 91.0001 68.2501 85.8991 68.2501 79.6251V28.4375H45.5001C42.3542 28.4375 39.8125 25.8959 39.8125 22.75V0H11.375ZM45.5001 0V22.75H68.2501L45.5001 0ZM38.3907 41.2344V59.3811L43.9004 53.8714C45.5712 52.2007 48.2727 52.2007 49.9256 53.8714C51.5786 55.5421 51.5964 58.2436 49.9256 59.8966L37.1288 72.6935C35.4581 74.3642 32.7565 74.3642 31.1036 72.6935L18.3067 59.8966C16.636 58.2259 16.636 55.5243 18.3067 53.8714C19.9774 52.2184 22.6789 52.2007 24.3319 53.8714L29.8416 59.3811L29.8594 41.2344C29.8594 38.8706 31.7612 36.9688 34.125 36.9688C36.4889 36.9688 38.3907 38.8706 38.3907 41.2344Z" fill="#366DB3"/>
</g>
<defs>
<clipPath id="clip0_55_17">
<rect width="68.1199" height="90.8265" fill="white" transform="scale(1.00191)"/>
</clipPath>
</defs>
</svg>
