<svg width="146" height="129" viewBox="0 0 146 129" fill="none" xmlns="http://www.w3.org/2000/svg">
<g clip-path="url(#clip0_40_3)">
<path d="M78.6094 6.04687V8.69238C80.2219 8.99473 81.784 9.37266 83.1949 9.75059C86.4199 10.6072 88.3348 13.933 87.4781 17.158C86.6215 20.383 83.2957 22.2979 80.0707 21.4412C77.3244 20.7105 74.7545 20.2066 72.4617 20.1814C70.6225 20.1562 68.758 20.6098 67.5738 21.29C67.0447 21.6176 66.7928 21.8947 66.692 22.0459C66.6164 22.1719 66.5156 22.3482 66.5156 22.7514C66.5156 22.827 66.5156 22.8773 66.5156 22.9025C66.566 22.9529 66.7424 23.2049 67.3471 23.5576C68.8084 24.4395 70.9752 25.1197 74.2506 26.1023L74.4774 26.1779C77.274 27.0094 81.0029 28.1432 84.0264 30.0328C87.4781 32.1996 90.6024 35.8025 90.6779 41.3455C90.7535 47.0145 87.8057 51.1465 83.9508 53.5652C82.2627 54.5982 80.4486 55.3289 78.5842 55.7824V58.4531C78.5842 61.8041 75.8883 64.5 72.5373 64.5C69.1863 64.5 66.4904 61.8041 66.4904 58.4531V55.5809C64.0969 55.0014 61.9049 54.2455 60.0404 53.6156C59.5113 53.4393 59.0074 53.2629 58.5287 53.1117C55.3541 52.0535 53.6408 48.627 54.699 45.4523C55.7572 42.2777 59.1838 40.5645 62.3584 41.6227C63.0135 41.8494 63.6182 42.051 64.1977 42.2525C67.6242 43.4115 70.0934 44.243 72.7389 44.3437C74.7545 44.4193 76.5434 43.9406 77.5764 43.3107C78.0551 43.0084 78.2818 42.7564 78.3826 42.5801C78.4834 42.4289 78.6094 42.1266 78.5842 41.5471V41.4967C78.5842 41.2447 78.5842 40.9676 77.5764 40.3377C76.1402 39.4307 73.9734 38.7252 70.7484 37.7426L70.2697 37.5914C67.5486 36.7852 63.9709 35.7018 61.0986 33.9633C57.6973 31.9225 54.4219 28.4203 54.3967 22.8521C54.3715 17.0824 57.6469 13.1268 61.3758 10.9096C62.9883 9.95215 64.7268 9.29707 66.4652 8.84355L66.5156 6.04687C66.5156 2.6959 69.2115 0 72.5625 0C75.9135 0 78.6094 2.6959 78.6094 6.04687ZM143.16 84.7318C146.46 89.2166 145.503 95.5154 141.018 98.816L109.121 122.323C103.225 126.657 96.1201 129 88.7883 129H48.375H8.0625C3.60293 129 0 125.397 0 120.937V104.813C0 100.353 3.60293 96.75 8.0625 96.75H17.3344L28.6471 87.6797C34.3664 83.0941 41.4715 80.625 48.8033 80.625H68.5313H72.5625H88.6875C93.1471 80.625 96.75 84.2279 96.75 88.6875C96.75 93.1471 93.1471 96.75 88.6875 96.75H72.5625H68.5313C66.3141 96.75 64.5 98.5641 64.5 100.781C64.5 102.998 66.3141 104.813 68.5313 104.813H98.9168L129.076 82.5902C133.56 79.2896 139.859 80.2471 143.16 84.7318ZM48.7781 96.75H48.5514C48.627 96.75 48.7025 96.75 48.7781 96.75Z" fill="#366DB3"/>
</g>
<defs>
<clipPath id="clip0_40_3">
<rect width="145.106" height="128.983" fill="white"/>
</clipPath>
</defs>
</svg>
