<svg width="130" height="130" viewBox="0 0 130 130" fill="none" xmlns="http://www.w3.org/2000/svg">
<g clip-path="url(#clip0_40_6)">
<path d="M64.9999 12.1875C35.8261 12.1875 12.1875 35.8261 12.1875 64.9999V75.1562C12.1875 78.5331 9.47069 81.2499 6.09374 81.2499C2.71679 81.2499 0 78.5331 0 75.1562V64.9999C0 29.0976 29.0976 0 64.9999 0C100.902 0 130 29.0976 130 64.9999V101.588C130 113.928 119.996 123.932 107.631 123.932L79.6249 123.906C77.5175 127.537 73.582 130 69.0624 130H60.9374C54.2089 130 48.75 124.541 48.75 117.812C48.75 111.084 54.2089 105.625 60.9374 105.625H69.0624C73.582 105.625 77.5175 108.088 79.6249 111.719L107.656 111.744C113.267 111.744 117.812 107.199 117.812 101.588V64.9999C117.812 35.8261 94.1737 12.1875 64.9999 12.1875ZM36.5625 52.8125H40.625C45.1191 52.8125 48.75 56.4433 48.75 60.9374V89.3749C48.75 93.8691 45.1191 97.4999 40.625 97.4999H36.5625C27.5996 97.4999 20.3125 90.2128 20.3125 81.2499V69.0624C20.3125 60.0996 27.5996 52.8125 36.5625 52.8125ZM93.4374 52.8125C102.4 52.8125 109.687 60.0996 109.687 69.0624V81.2499C109.687 90.2128 102.4 97.4999 93.4374 97.4999H89.3749C84.8808 97.4999 81.2499 93.8691 81.2499 89.3749V60.9374C81.2499 56.4433 84.8808 52.8125 89.3749 52.8125H93.4374Z" fill="#366DB3"/>
</g>
<defs>
<clipPath id="clip0_40_6">
<rect width="129.849" height="129.849" fill="white" transform="scale(1.00117)"/>
</clipPath>
</defs>
</svg>
