<svg width="30" height="30" viewBox="0 0 30 30" fill="none" xmlns="http://www.w3.org/2000/svg">
<g clip-path="url(#clip0_17_26)">
<path d="M13.3769 27.4863L2.78906 17.6015C2.54296 17.373 2.30859 17.1269 2.09179 16.875H7.18944C8.51366 16.875 9.70897 16.0781 10.2187 14.8535L10.834 13.3769L13.7226 19.7929C13.9453 20.291 14.4316 20.6132 14.9765 20.6191C15.5215 20.625 16.0195 20.3261 16.2656 19.8398L18.75 14.8652L18.8496 15.0644C19.4062 16.1777 20.5429 16.8808 21.7851 16.8808H27.9082C27.6914 17.1328 27.457 17.3789 27.2109 17.6074L16.623 27.4863C16.1836 27.8964 15.6035 28.1249 15 28.1249C14.3965 28.1249 13.8164 27.8964 13.3769 27.4863ZM29.5136 14.0625H21.7793C21.6035 14.0625 21.4394 13.9629 21.3574 13.8047L19.998 11.0918C19.7578 10.6172 19.2715 10.3125 18.7383 10.3125C18.205 10.3125 17.7187 10.6113 17.4785 11.0918L15.0527 15.9433L12.0644 9.26951C11.8359 8.75974 11.3203 8.43162 10.7637 8.44334C10.207 8.45506 9.70311 8.78904 9.48631 9.31052L7.62304 13.7812C7.55272 13.957 7.37694 14.0683 7.18944 14.0683L0.937499 14.0625C0.785155 14.0625 0.64453 14.0859 0.509765 14.1269C0.175781 13.1953 0 12.1992 0 11.1855V10.8457C0 6.74998 2.95898 3.2578 6.99608 2.58397C9.66795 2.13866 12.3867 3.0117 14.2969 4.92186L15 5.62498L15.7031 4.92186C17.6133 3.0117 20.332 2.13866 23.0039 2.58397C27.041 3.2578 30 6.74998 30 10.8457V11.1855C30 12.1758 29.8359 13.1484 29.5136 14.0625Z" fill="#366DB3"/>
</g>
<defs>
<clipPath id="clip0_17_26">
<rect width="29.8868" height="29.8868" fill="white" transform="scale(1.00379)"/>
</clipPath>
</defs>
</svg>
