<svg width="49" height="130" viewBox="0 0 49 130" fill="none" xmlns="http://www.w3.org/2000/svg">
<g clip-path="url(#clip0_40_10)">
<path d="M12.1875 20.3125C12.1875 17.0802 13.4715 13.9802 15.7571 11.6946C18.0427 9.40904 21.1427 8.12501 24.375 8.12501C27.6073 8.12501 30.7073 9.40904 32.9929 11.6946C35.2785 13.9802 36.5625 17.0802 36.5625 20.3125C36.5625 23.5448 35.2785 26.6448 32.9929 28.9304C30.7073 31.216 27.6073 32.5 24.375 32.5C21.1427 32.5 18.0427 31.216 15.7571 28.9304C13.4715 26.6448 12.1875 23.5448 12.1875 20.3125ZM0 56.875C0 52.3809 3.63086 48.75 8.125 48.75H24.375C28.8691 48.75 32.5 52.3809 32.5 56.875V113.75H40.625C45.1191 113.75 48.75 117.381 48.75 121.875C48.75 126.369 45.1191 130 40.625 130H8.125C3.63086 130 0 126.369 0 121.875C0 117.381 3.63086 113.75 8.125 113.75H16.25V65H8.125C3.63086 65 0 61.3691 0 56.875Z" fill="#366DB3"/>
</g>
<defs>
<clipPath id="clip0_40_10">
<rect width="48.6932" height="129.849" fill="white" transform="scale(1.00117)"/>
</clipPath>
</defs>
</svg>
