<svg width="27" height="27" viewBox="0 0 27 27" fill="none" xmlns="http://www.w3.org/2000/svg">
<g clip-path="url(#clip0_17_73)">
<path d="M27 13.5C27 13.5475 27 13.5949 27 13.6424C26.9789 15.5672 25.2281 16.875 23.3033 16.875H18.1406C16.7432 16.875 15.6094 18.0088 15.6094 19.4062C15.6094 19.5855 15.6305 19.7596 15.6621 19.9283C15.7729 20.4662 16.0049 20.983 16.2316 21.5051C16.5533 22.2328 16.8697 22.9553 16.8697 23.7199C16.8697 25.3969 15.7307 26.9209 14.0537 26.9895C13.8691 26.9947 13.6846 27 13.4947 27C6.04336 27 0 20.9566 0 13.5C0 6.04336 6.04336 0 13.5 0C20.9566 0 27 6.04336 27 13.5ZM6.75 15.1875C6.75 14.7399 6.57221 14.3107 6.25574 13.9943C5.93927 13.6778 5.51005 13.5 5.0625 13.5C4.61495 13.5 4.18572 13.6778 3.86926 13.9943C3.55279 14.3107 3.375 14.7399 3.375 15.1875C3.375 15.6351 3.55279 16.0643 3.86926 16.3807C4.18572 16.6972 4.61495 16.875 5.0625 16.875C5.51005 16.875 5.93927 16.6972 6.25574 16.3807C6.57221 16.0643 6.75 15.6351 6.75 15.1875ZM6.75 10.125C7.19755 10.125 7.62677 9.94721 7.94324 9.63074C8.25971 9.31427 8.4375 8.88505 8.4375 8.4375C8.4375 7.98995 8.25971 7.56072 7.94324 7.24426C7.62677 6.92779 7.19755 6.75 6.75 6.75C6.30245 6.75 5.87322 6.92779 5.55676 7.24426C5.24029 7.56072 5.0625 7.98995 5.0625 8.4375C5.0625 8.88505 5.24029 9.31427 5.55676 9.63074C5.87322 9.94721 6.30245 10.125 6.75 10.125ZM15.1875 5.0625C15.1875 4.61495 15.0097 4.18572 14.6932 3.86926C14.3768 3.55279 13.9476 3.375 13.5 3.375C13.0524 3.375 12.6232 3.55279 12.3068 3.86926C11.9903 4.18572 11.8125 4.61495 11.8125 5.0625C11.8125 5.51005 11.9903 5.93927 12.3068 6.25574C12.6232 6.57221 13.0524 6.75 13.5 6.75C13.9476 6.75 14.3768 6.57221 14.6932 6.25574C15.0097 5.93927 15.1875 5.51005 15.1875 5.0625ZM20.25 10.125C20.6976 10.125 21.1268 9.94721 21.4432 9.63074C21.7597 9.31427 21.9375 8.88505 21.9375 8.4375C21.9375 7.98995 21.7597 7.56072 21.4432 7.24426C21.1268 6.92779 20.6976 6.75 20.25 6.75C19.8024 6.75 19.3732 6.92779 19.0568 7.24426C18.7403 7.56072 18.5625 7.98995 18.5625 8.4375C18.5625 8.88505 18.7403 9.31427 19.0568 9.63074C19.3732 9.94721 19.8024 10.125 20.25 10.125Z" fill="#366DB3"/>
</g>
<defs>
<clipPath id="clip0_17_73">
<rect width="26.566" height="26.566" fill="white" transform="scale(1.01634)"/>
</clipPath>
</defs>
</svg>
