<svg xmlns="http://www.w3.org/2000/svg" xmlns:xlink="http://www.w3.org/1999/xlink" width="512" zoomAndPan="magnify" viewBox="0 0 384 383.999986" height="512" preserveAspectRatio="xMidYMid meet" version="1.2"><defs><clipPath id="f1194a01cf"><path d="M 214.878906 140.367188 L 226.878906 140.367188 L 226.878906 144.867188 L 214.878906 144.867188 Z M 214.878906 140.367188 "/></clipPath><clipPath id="c6157e8baa"><path d="M 3.304688 295 L 380.554688 295 L 380.554688 373 L 3.304688 373 Z M 3.304688 295 "/></clipPath></defs><g id="404e042363"><g clip-rule="nonzero" clip-path="url(#f1194a01cf)"><path style=" stroke:none;fill-rule:nonzero;fill:#000000;fill-opacity:1;" d="M 217.648438 143.644531 C 217.640625 143.609375 217.632812 143.578125 217.621094 143.546875 C 217.597656 143.476562 217.574219 143.40625 217.550781 143.339844 C 217.542969 143.316406 217.53125 143.289062 217.523438 143.265625 C 217.503906 143.226562 217.496094 143.1875 217.492188 143.144531 C 217.488281 143.09375 217.484375 143.042969 217.484375 142.988281 C 217.484375 142.949219 217.488281 142.910156 217.492188 142.871094 C 217.5 142.816406 217.507812 142.765625 217.527344 142.714844 C 217.546875 142.664062 217.5625 142.613281 217.582031 142.5625 C 217.585938 142.554688 217.589844 142.546875 217.59375 142.539062 C 217.632812 142.492188 217.671875 142.441406 217.710938 142.394531 C 217.691406 142.382812 217.671875 142.375 217.648438 142.363281 C 217.589844 142.339844 217.53125 142.316406 217.472656 142.289062 C 217.414062 142.265625 217.367188 142.230469 217.324219 142.1875 C 217.300781 142.160156 217.273438 142.136719 217.25 142.109375 C 217.214844 142.074219 217.171875 142.054688 217.128906 142.035156 C 217.070312 142.007812 217.011719 141.984375 216.953125 141.957031 C 216.9375 141.953125 216.925781 141.949219 216.914062 141.945312 C 216.902344 141.945312 216.890625 141.945312 216.882812 141.949219 C 216.859375 141.960938 216.839844 141.972656 216.816406 141.984375 C 216.800781 141.992188 216.785156 142 216.769531 142 C 216.757812 142 216.742188 142.003906 216.734375 142.007812 C 216.703125 142.019531 216.675781 142.035156 216.644531 142.050781 C 216.636719 142.054688 216.625 142.054688 216.613281 142.058594 C 216.601562 142.058594 216.59375 142.054688 216.585938 142.042969 C 216.582031 142.035156 216.582031 142.027344 216.589844 142.019531 C 216.605469 142 216.625 141.988281 216.648438 141.976562 C 216.664062 141.972656 216.683594 141.960938 216.699219 141.957031 C 216.683594 141.914062 216.652344 141.894531 216.609375 141.898438 C 216.566406 141.902344 216.523438 141.90625 216.480469 141.910156 C 216.457031 141.914062 216.433594 141.910156 216.414062 141.902344 C 216.398438 141.894531 216.390625 141.882812 216.394531 141.863281 C 216.449219 141.859375 216.507812 141.859375 216.570312 141.847656 C 216.554688 141.835938 216.539062 141.824219 216.523438 141.816406 C 216.503906 141.808594 216.488281 141.796875 216.472656 141.785156 C 216.457031 141.777344 216.445312 141.765625 216.433594 141.75 C 216.421875 141.742188 216.421875 141.726562 216.429688 141.714844 C 216.449219 141.71875 216.464844 141.726562 216.480469 141.734375 C 216.523438 141.769531 216.578125 141.789062 216.628906 141.816406 C 216.644531 141.824219 216.660156 141.824219 216.675781 141.820312 C 216.691406 141.8125 216.707031 141.808594 216.722656 141.804688 C 216.714844 141.796875 216.710938 141.792969 216.703125 141.789062 C 216.6875 141.78125 216.671875 141.773438 216.660156 141.765625 C 216.632812 141.753906 216.625 141.738281 216.632812 141.710938 C 216.648438 141.714844 216.664062 141.71875 216.679688 141.722656 C 216.703125 141.730469 216.722656 141.738281 216.742188 141.753906 C 216.757812 141.765625 216.78125 141.78125 216.800781 141.789062 C 216.820312 141.796875 216.839844 141.800781 216.863281 141.800781 C 216.898438 141.804688 216.933594 141.804688 216.972656 141.808594 C 216.984375 141.8125 217 141.816406 217.011719 141.820312 C 217.097656 141.84375 217.179688 141.878906 217.257812 141.917969 C 217.335938 141.953125 217.414062 141.992188 217.488281 142.027344 C 217.550781 142.058594 217.613281 142.089844 217.675781 142.117188 C 217.746094 142.144531 217.816406 142.171875 217.886719 142.199219 C 217.898438 142.203125 217.90625 142.207031 217.917969 142.207031 C 217.941406 142.210938 217.957031 142.203125 217.96875 142.183594 C 217.980469 142.160156 217.996094 142.140625 218.015625 142.121094 C 218.042969 142.089844 218.074219 142.054688 218.105469 142.023438 C 218.132812 141.992188 218.148438 141.960938 218.152344 141.921875 C 218.15625 141.902344 218.15625 141.886719 218.15625 141.867188 C 218.160156 141.847656 218.160156 141.828125 218.164062 141.808594 C 218.167969 141.792969 218.195312 141.773438 218.214844 141.777344 C 218.234375 141.78125 218.25 141.777344 218.261719 141.765625 C 218.261719 141.765625 218.265625 141.761719 218.265625 141.761719 C 218.292969 141.765625 218.316406 141.738281 218.347656 141.746094 C 218.351562 141.746094 218.355469 141.746094 218.355469 141.746094 C 218.363281 141.734375 218.371094 141.726562 218.378906 141.714844 C 218.394531 141.699219 218.402344 141.695312 218.425781 141.710938 C 218.457031 141.730469 218.484375 141.753906 218.515625 141.777344 C 218.535156 141.792969 218.558594 141.796875 218.582031 141.78125 C 218.589844 141.777344 218.601562 141.777344 218.613281 141.785156 C 218.65625 141.808594 218.707031 141.828125 218.742188 141.859375 C 218.765625 141.878906 218.785156 141.90625 218.800781 141.929688 C 218.808594 141.9375 218.8125 141.941406 218.816406 141.949219 C 218.902344 141.914062 218.988281 141.878906 219.066406 141.832031 C 219.160156 141.777344 219.257812 141.71875 219.351562 141.664062 C 219.382812 141.644531 219.414062 141.628906 219.445312 141.613281 C 219.453125 141.609375 219.457031 141.605469 219.460938 141.605469 C 219.484375 141.597656 219.488281 141.597656 219.5 141.617188 C 219.652344 141.53125 219.800781 141.449219 219.953125 141.359375 C 219.9375 141.34375 219.921875 141.324219 219.90625 141.308594 C 219.941406 141.25 219.996094 141.222656 220.058594 141.199219 C 220.121094 141.171875 220.1875 141.160156 220.253906 141.148438 C 220.304688 141.144531 220.355469 141.136719 220.40625 141.132812 C 220.445312 141.128906 220.488281 141.128906 220.527344 141.125 C 220.605469 141.121094 220.683594 141.121094 220.761719 141.117188 C 220.773438 141.117188 220.777344 141.113281 220.785156 141.105469 C 220.808594 141.066406 220.835938 141.023438 220.863281 140.984375 C 220.902344 140.929688 220.949219 140.882812 220.996094 140.832031 C 221.050781 140.78125 221.105469 140.734375 221.167969 140.6875 C 221.273438 140.613281 221.390625 140.546875 221.511719 140.496094 C 221.609375 140.457031 221.714844 140.425781 221.820312 140.398438 C 221.917969 140.378906 222.019531 140.367188 222.121094 140.375 C 222.214844 140.382812 222.308594 140.402344 222.390625 140.445312 C 222.433594 140.46875 222.472656 140.496094 222.503906 140.53125 C 222.53125 140.5625 222.539062 140.597656 222.539062 140.636719 C 222.539062 140.671875 222.546875 140.710938 222.550781 140.746094 C 222.554688 140.777344 222.554688 140.8125 222.554688 140.84375 C 222.554688 140.878906 222.539062 140.910156 222.515625 140.9375 C 222.46875 140.992188 222.417969 141.042969 222.351562 141.074219 C 222.300781 141.105469 222.242188 141.121094 222.183594 141.132812 C 222.128906 141.144531 222.070312 141.15625 222.011719 141.164062 C 221.960938 141.171875 221.910156 141.175781 221.859375 141.183594 C 221.816406 141.1875 221.773438 141.191406 221.730469 141.191406 C 221.664062 141.195312 221.597656 141.203125 221.53125 141.207031 C 221.511719 141.207031 221.492188 141.207031 221.46875 141.207031 C 221.351562 141.210938 221.230469 141.210938 221.113281 141.214844 C 221.046875 141.214844 220.984375 141.214844 220.921875 141.21875 C 220.917969 141.21875 220.914062 141.21875 220.90625 141.222656 C 220.925781 141.230469 220.941406 141.242188 220.957031 141.25 C 221.039062 141.289062 221.125 141.320312 221.21875 141.339844 C 221.296875 141.363281 221.378906 141.382812 221.460938 141.398438 C 221.53125 141.414062 221.601562 141.429688 221.671875 141.441406 C 221.730469 141.453125 221.785156 141.464844 221.839844 141.476562 C 221.890625 141.484375 221.941406 141.492188 221.992188 141.503906 C 222.066406 141.515625 222.144531 141.53125 222.21875 141.546875 C 222.296875 141.5625 222.375 141.578125 222.453125 141.597656 C 222.613281 141.636719 222.773438 141.683594 222.925781 141.746094 C 222.988281 141.773438 223.050781 141.804688 223.101562 141.851562 C 223.101562 141.855469 223.105469 141.855469 223.109375 141.859375 C 223.144531 141.835938 223.183594 141.816406 223.214844 141.792969 C 223.300781 141.730469 223.386719 141.671875 223.472656 141.609375 C 223.578125 141.53125 223.683594 141.449219 223.789062 141.371094 C 223.863281 141.3125 223.9375 141.253906 224.015625 141.195312 C 224.09375 141.132812 224.171875 141.074219 224.25 141.015625 C 224.335938 140.949219 224.425781 140.886719 224.511719 140.828125 C 224.601562 140.761719 224.699219 140.699219 224.796875 140.644531 C 224.863281 140.605469 224.933594 140.570312 225.003906 140.535156 C 225.058594 140.507812 225.117188 140.484375 225.175781 140.464844 C 225.246094 140.445312 225.316406 140.4375 225.390625 140.445312 C 225.421875 140.449219 225.453125 140.449219 225.480469 140.453125 C 225.554688 140.464844 225.617188 140.492188 225.664062 140.542969 C 225.6875 140.570312 225.714844 140.601562 225.734375 140.632812 C 225.75 140.65625 225.769531 140.679688 225.789062 140.699219 C 225.835938 140.746094 225.867188 140.804688 225.878906 140.867188 C 225.886719 140.898438 225.882812 140.929688 225.875 140.960938 C 225.863281 141.015625 225.851562 141.070312 225.832031 141.125 C 225.800781 141.214844 225.75 141.296875 225.691406 141.375 C 225.640625 141.445312 225.582031 141.507812 225.515625 141.566406 C 225.441406 141.632812 225.355469 141.691406 225.261719 141.734375 C 225.214844 141.757812 225.164062 141.777344 225.117188 141.796875 C 225.113281 141.800781 225.109375 141.800781 225.097656 141.804688 C 225.125 141.8125 225.148438 141.816406 225.171875 141.820312 C 225.207031 141.828125 225.242188 141.832031 225.277344 141.839844 C 225.292969 141.84375 225.304688 141.839844 225.316406 141.832031 C 225.34375 141.8125 225.367188 141.792969 225.394531 141.773438 C 225.449219 141.730469 225.5 141.6875 225.554688 141.648438 C 225.617188 141.597656 225.683594 141.550781 225.746094 141.503906 C 225.8125 141.457031 225.878906 141.410156 225.945312 141.367188 C 226.019531 141.316406 226.097656 141.269531 226.179688 141.226562 C 226.25 141.191406 226.320312 141.152344 226.394531 141.136719 C 226.414062 141.128906 226.4375 141.125 226.457031 141.125 C 226.511719 141.121094 226.566406 141.121094 226.621094 141.128906 C 226.683594 141.136719 226.730469 141.167969 226.765625 141.210938 C 226.800781 141.253906 226.832031 141.292969 226.847656 141.339844 C 226.859375 141.371094 226.867188 141.402344 226.871094 141.433594 C 226.875 141.515625 226.839844 141.582031 226.785156 141.644531 C 226.753906 141.6875 226.714844 141.722656 226.675781 141.757812 C 226.609375 141.816406 226.535156 141.863281 226.453125 141.90625 C 226.371094 141.945312 226.28125 141.976562 226.191406 141.996094 C 226.117188 142.015625 226.042969 142.027344 225.964844 142.03125 C 225.898438 142.03125 225.832031 142.035156 225.761719 142.03125 C 225.722656 142.03125 225.679688 142.027344 225.636719 142.023438 C 225.585938 142.015625 225.53125 142.007812 225.480469 142 C 225.429688 141.992188 225.375 141.980469 225.320312 141.964844 C 225.316406 141.96875 225.308594 141.972656 225.300781 141.976562 C 225.238281 142.027344 225.179688 142.074219 225.113281 142.121094 C 225.046875 142.175781 224.976562 142.222656 224.90625 142.273438 C 224.835938 142.324219 224.757812 142.367188 224.679688 142.402344 C 224.621094 142.429688 224.558594 142.445312 224.496094 142.449219 C 224.46875 142.449219 224.445312 142.441406 224.421875 142.4375 C 224.414062 142.402344 224.417969 142.371094 224.425781 142.339844 C 224.453125 142.335938 224.476562 142.335938 224.5 142.332031 C 224.566406 142.320312 224.628906 142.296875 224.6875 142.269531 C 224.792969 142.21875 224.886719 142.152344 224.980469 142.082031 C 225.046875 142.039062 225.109375 141.988281 225.171875 141.941406 C 225.175781 141.941406 225.179688 141.9375 225.1875 141.933594 C 225.179688 141.929688 225.175781 141.925781 225.171875 141.925781 C 225.109375 141.902344 225.042969 141.886719 224.980469 141.863281 C 224.953125 141.851562 224.933594 141.855469 224.910156 141.859375 C 224.839844 141.871094 224.773438 141.886719 224.703125 141.898438 C 224.632812 141.910156 224.5625 141.914062 224.492188 141.917969 C 224.363281 141.929688 224.234375 141.929688 224.105469 141.929688 C 224.082031 141.929688 224.058594 141.925781 224.039062 141.917969 C 224.003906 141.902344 223.96875 141.890625 223.9375 141.875 C 223.902344 141.859375 223.871094 141.835938 223.847656 141.804688 C 223.828125 141.773438 223.832031 141.734375 223.855469 141.707031 C 223.875 141.6875 223.894531 141.675781 223.917969 141.664062 C 223.972656 141.640625 224.03125 141.628906 224.089844 141.625 C 224.125 141.625 224.15625 141.621094 224.191406 141.621094 C 224.253906 141.621094 224.316406 141.625 224.378906 141.632812 C 224.449219 141.640625 224.515625 141.652344 224.578125 141.664062 C 224.648438 141.679688 224.710938 141.710938 224.777344 141.734375 C 224.804688 141.746094 224.835938 141.75 224.863281 141.753906 C 224.871094 141.757812 224.878906 141.753906 224.886719 141.753906 C 225.011719 141.707031 225.128906 141.652344 225.238281 141.582031 C 225.332031 141.523438 225.417969 141.457031 225.496094 141.382812 C 225.570312 141.308594 225.640625 141.230469 225.691406 141.140625 C 225.730469 141.074219 225.761719 141 225.773438 140.921875 C 225.785156 140.855469 225.785156 140.789062 225.769531 140.71875 C 225.765625 140.703125 225.757812 140.691406 225.742188 140.679688 C 225.683594 140.644531 225.625 140.621094 225.558594 140.609375 C 225.476562 140.597656 225.398438 140.605469 225.320312 140.621094 C 225.207031 140.644531 225.097656 140.6875 224.992188 140.734375 C 224.835938 140.804688 224.6875 140.890625 224.546875 140.988281 C 224.460938 141.042969 224.375 141.101562 224.289062 141.160156 C 224.21875 141.210938 224.148438 141.265625 224.078125 141.320312 C 224.023438 141.359375 223.96875 141.402344 223.917969 141.441406 C 223.859375 141.488281 223.800781 141.535156 223.738281 141.582031 C 223.640625 141.65625 223.542969 141.734375 223.441406 141.808594 C 223.367188 141.863281 223.285156 141.917969 223.207031 141.96875 C 223.203125 141.972656 223.203125 141.976562 223.199219 141.976562 C 223.214844 142.011719 223.226562 142.046875 223.222656 142.085938 C 223.222656 142.121094 223.214844 142.152344 223.199219 142.183594 C 223.183594 142.222656 223.171875 142.265625 223.160156 142.304688 C 223.15625 142.3125 223.15625 142.320312 223.152344 142.324219 C 223.140625 142.359375 223.121094 142.378906 223.082031 142.390625 C 223.007812 142.410156 222.933594 142.425781 222.859375 142.417969 C 222.753906 142.410156 222.667969 142.375 222.617188 142.285156 C 222.589844 142.238281 222.582031 142.1875 222.59375 142.136719 C 222.601562 142.101562 222.613281 142.066406 222.632812 142.035156 C 222.640625 142.023438 222.648438 142.015625 222.664062 142.015625 C 222.769531 142.015625 222.867188 141.984375 222.960938 141.9375 C 222.960938 141.9375 222.960938 141.9375 222.964844 141.933594 C 222.945312 141.921875 222.925781 141.910156 222.90625 141.898438 C 222.808594 141.84375 222.703125 141.800781 222.59375 141.765625 C 222.488281 141.726562 222.378906 141.695312 222.269531 141.671875 C 222.195312 141.652344 222.121094 141.636719 222.046875 141.621094 C 221.972656 141.605469 221.898438 141.589844 221.824219 141.574219 C 221.761719 141.5625 221.695312 141.550781 221.628906 141.539062 C 221.578125 141.53125 221.527344 141.519531 221.476562 141.511719 C 221.386719 141.492188 221.296875 141.472656 221.207031 141.453125 C 221.101562 141.429688 220.996094 141.398438 220.898438 141.351562 C 220.835938 141.324219 220.777344 141.289062 220.738281 141.230469 C 220.730469 141.222656 220.722656 141.222656 220.714844 141.222656 C 220.648438 141.226562 220.585938 141.230469 220.519531 141.234375 C 220.445312 141.238281 220.375 141.246094 220.300781 141.257812 C 220.242188 141.265625 220.1875 141.277344 220.132812 141.296875 C 220.109375 141.304688 220.085938 141.320312 220.066406 141.332031 C 219.929688 141.414062 219.796875 141.492188 219.664062 141.570312 C 219.570312 141.625 219.476562 141.683594 219.382812 141.738281 C 219.382812 141.738281 219.378906 141.742188 219.371094 141.746094 C 219.390625 141.757812 219.410156 141.765625 219.429688 141.773438 C 219.460938 141.785156 219.492188 141.796875 219.519531 141.808594 C 219.550781 141.824219 219.550781 141.847656 219.519531 141.863281 C 219.503906 141.875 219.480469 141.875 219.460938 141.871094 C 219.429688 141.863281 219.402344 141.871094 219.371094 141.886719 C 219.34375 141.902344 219.308594 141.910156 219.273438 141.921875 C 219.265625 141.925781 219.253906 141.925781 219.242188 141.925781 C 219.222656 141.921875 219.207031 141.925781 219.191406 141.9375 C 219.148438 141.964844 219.109375 141.996094 219.070312 142.023438 C 219.011719 142.066406 218.949219 142.105469 218.890625 142.148438 C 218.882812 142.152344 218.875 142.15625 218.867188 142.160156 C 218.859375 142.167969 218.851562 142.175781 218.851562 142.179688 C 218.851562 142.207031 218.839844 142.234375 218.828125 142.257812 C 218.835938 142.277344 218.847656 142.296875 218.855469 142.316406 C 218.863281 142.335938 218.859375 142.359375 218.851562 142.378906 C 218.839844 142.410156 218.8125 142.433594 218.777344 142.441406 C 218.734375 142.449219 218.695312 142.441406 218.660156 142.421875 C 218.652344 142.414062 218.644531 142.414062 218.632812 142.417969 C 218.578125 142.429688 218.527344 142.429688 218.472656 142.414062 C 218.457031 142.40625 218.441406 142.402344 218.425781 142.398438 C 218.410156 142.390625 218.390625 142.390625 218.390625 142.371094 C 218.390625 142.367188 218.386719 142.363281 218.382812 142.359375 C 218.375 142.355469 218.367188 142.347656 218.359375 142.339844 C 218.351562 142.339844 218.347656 142.34375 218.351562 142.355469 C 218.355469 142.363281 218.363281 142.375 218.363281 142.386719 C 218.378906 142.429688 218.375 142.472656 218.367188 142.519531 C 218.355469 142.621094 218.324219 142.71875 218.292969 142.816406 C 218.28125 142.859375 218.265625 142.902344 218.253906 142.949219 C 218.242188 142.992188 218.234375 143.035156 218.238281 143.078125 C 218.238281 143.089844 218.238281 143.105469 218.238281 143.117188 C 218.234375 143.144531 218.246094 143.167969 218.261719 143.1875 C 218.261719 143.191406 218.269531 143.199219 218.269531 143.203125 C 218.28125 143.226562 218.300781 143.234375 218.328125 143.238281 C 218.375 143.242188 218.421875 143.261719 218.464844 143.28125 C 218.515625 143.308594 218.558594 143.34375 218.605469 143.375 C 218.628906 143.394531 218.648438 143.410156 218.671875 143.429688 C 218.691406 143.445312 218.714844 143.445312 218.738281 143.449219 C 218.765625 143.453125 218.792969 143.453125 218.824219 143.453125 C 218.855469 143.453125 218.890625 143.453125 218.921875 143.449219 C 218.988281 143.4375 219.058594 143.425781 219.125 143.417969 C 219.132812 143.417969 219.136719 143.417969 219.144531 143.417969 C 219.195312 143.414062 219.246094 143.410156 219.296875 143.40625 C 219.335938 143.402344 219.375 143.398438 219.410156 143.394531 C 219.472656 143.382812 219.53125 143.375 219.585938 143.355469 C 219.617188 143.34375 219.636719 143.324219 219.648438 143.296875 C 219.664062 143.261719 219.683594 143.222656 219.703125 143.183594 C 219.734375 143.121094 219.78125 143.070312 219.84375 143.03125 C 219.914062 142.980469 219.980469 142.925781 220.050781 142.875 C 220.09375 142.847656 220.132812 142.820312 220.175781 142.792969 C 220.238281 142.753906 220.296875 142.707031 220.339844 142.648438 C 220.355469 142.632812 220.371094 142.617188 220.386719 142.597656 C 220.390625 142.589844 220.394531 142.582031 220.394531 142.574219 C 220.390625 142.550781 220.390625 142.527344 220.386719 142.507812 C 220.375 142.445312 220.414062 142.398438 220.484375 142.398438 C 220.535156 142.398438 220.582031 142.398438 220.632812 142.398438 C 220.648438 142.398438 220.664062 142.394531 220.679688 142.390625 C 220.714844 142.378906 220.746094 142.359375 220.773438 142.335938 C 220.777344 142.332031 220.785156 142.324219 220.789062 142.3125 C 220.804688 142.289062 220.820312 142.265625 220.835938 142.242188 C 220.84375 142.226562 220.851562 142.214844 220.859375 142.199219 C 220.867188 142.179688 220.882812 142.167969 220.902344 142.160156 C 220.917969 142.152344 220.925781 142.152344 220.9375 142.164062 C 220.964844 142.191406 220.976562 142.226562 220.972656 142.265625 C 220.972656 142.285156 220.96875 142.308594 220.96875 142.328125 C 220.964844 142.34375 220.960938 142.359375 220.949219 142.371094 C 220.921875 142.40625 220.890625 142.445312 220.863281 142.484375 C 220.851562 142.496094 220.839844 142.511719 220.832031 142.527344 C 220.808594 142.570312 220.773438 142.601562 220.734375 142.632812 C 220.6875 142.675781 220.636719 142.714844 220.589844 142.757812 C 220.539062 142.796875 220.492188 142.839844 220.445312 142.882812 C 220.410156 142.914062 220.378906 142.949219 220.34375 142.984375 C 220.300781 143.023438 220.269531 143.074219 220.234375 143.117188 C 220.207031 143.152344 220.175781 143.183594 220.148438 143.214844 C 220.078125 143.292969 220.015625 143.371094 219.957031 143.457031 C 219.914062 143.519531 219.871094 143.578125 219.824219 143.636719 C 219.8125 143.652344 219.792969 143.664062 219.769531 143.667969 C 219.707031 143.679688 219.644531 143.703125 219.582031 143.722656 C 219.519531 143.746094 219.453125 143.761719 219.386719 143.773438 C 219.34375 143.78125 219.296875 143.789062 219.253906 143.796875 C 219.222656 143.800781 219.191406 143.804688 219.160156 143.808594 C 219.132812 143.8125 219.109375 143.8125 219.082031 143.816406 C 219.023438 143.824219 218.964844 143.828125 218.90625 143.835938 C 218.859375 143.84375 218.8125 143.851562 218.769531 143.859375 C 218.6875 143.871094 218.605469 143.890625 218.519531 143.894531 C 218.496094 143.898438 218.46875 143.894531 218.441406 143.890625 C 218.421875 143.890625 218.398438 143.890625 218.378906 143.902344 C 218.335938 143.921875 218.289062 143.9375 218.238281 143.949219 C 218.207031 143.960938 218.171875 143.972656 218.140625 143.988281 C 218.097656 144.007812 218.054688 144.03125 218.011719 144.050781 C 217.988281 144.0625 217.960938 144.070312 217.933594 144.082031 C 217.863281 144.109375 217.789062 144.136719 217.714844 144.164062 C 217.621094 144.199219 217.523438 144.234375 217.425781 144.265625 C 217.324219 144.296875 217.222656 144.332031 217.125 144.371094 C 217.042969 144.402344 216.953125 144.429688 216.867188 144.460938 C 216.84375 144.46875 216.820312 144.480469 216.792969 144.492188 C 216.703125 144.539062 216.613281 144.585938 216.523438 144.628906 C 216.492188 144.644531 216.453125 144.652344 216.421875 144.660156 C 216.414062 144.664062 216.40625 144.664062 216.398438 144.664062 C 216.3125 144.664062 216.226562 144.667969 216.140625 144.675781 C 216.089844 144.679688 216.039062 144.683594 215.988281 144.683594 C 215.894531 144.679688 215.808594 144.695312 215.71875 144.71875 C 215.707031 144.722656 215.695312 144.726562 215.683594 144.730469 C 215.640625 144.742188 215.609375 144.769531 215.589844 144.804688 C 215.570312 144.847656 215.53125 144.859375 215.480469 144.855469 C 215.449219 144.851562 215.421875 144.835938 215.394531 144.824219 C 215.371094 144.808594 215.34375 144.796875 215.320312 144.785156 C 215.296875 144.769531 215.269531 144.765625 215.242188 144.773438 C 215.171875 144.789062 215.101562 144.804688 215.03125 144.820312 C 215.015625 144.824219 215.003906 144.832031 214.996094 144.839844 C 214.964844 144.867188 214.933594 144.867188 214.898438 144.863281 C 214.886719 144.863281 214.882812 144.855469 214.882812 144.847656 C 214.882812 144.832031 214.878906 144.820312 214.890625 144.804688 C 214.90625 144.78125 214.917969 144.753906 214.9375 144.730469 C 214.957031 144.703125 214.984375 144.683594 215.015625 144.667969 C 215.113281 144.628906 215.210938 144.585938 215.308594 144.542969 C 215.347656 144.523438 215.394531 144.515625 215.441406 144.511719 C 215.492188 144.503906 215.542969 144.492188 215.59375 144.488281 C 215.640625 144.484375 215.691406 144.484375 215.738281 144.484375 C 215.765625 144.484375 215.789062 144.484375 215.8125 144.480469 C 215.890625 144.46875 215.960938 144.449219 216.03125 144.421875 C 216.105469 144.394531 216.175781 144.367188 216.25 144.34375 C 216.300781 144.328125 216.351562 144.320312 216.402344 144.308594 C 216.417969 144.304688 216.429688 144.304688 216.445312 144.296875 C 216.480469 144.289062 216.519531 144.277344 216.554688 144.265625 C 216.59375 144.25 216.632812 144.230469 216.671875 144.214844 C 216.71875 144.195312 216.765625 144.171875 216.8125 144.152344 C 216.839844 144.140625 216.867188 144.125 216.890625 144.109375 C 216.90625 144.101562 216.917969 144.09375 216.933594 144.09375 C 216.972656 144.082031 217.003906 144.0625 217.03125 144.03125 C 217.09375 143.96875 217.15625 143.910156 217.222656 143.851562 C 217.292969 143.789062 217.375 143.746094 217.464844 143.707031 C 217.523438 143.679688 217.582031 143.660156 217.648438 143.644531 Z M 220.820312 141.117188 C 220.832031 141.117188 220.835938 141.117188 220.84375 141.117188 C 220.875 141.117188 220.90625 141.117188 220.941406 141.113281 C 221.015625 141.113281 221.089844 141.113281 221.164062 141.109375 C 221.238281 141.109375 221.3125 141.105469 221.386719 141.105469 C 221.429688 141.101562 221.476562 141.101562 221.519531 141.097656 C 221.570312 141.09375 221.621094 141.089844 221.667969 141.082031 C 221.742188 141.074219 221.816406 141.066406 221.886719 141.054688 C 221.96875 141.042969 222.050781 141.023438 222.132812 141 C 222.234375 140.972656 222.332031 140.933594 222.414062 140.867188 C 222.457031 140.832031 222.492188 140.792969 222.511719 140.742188 C 222.515625 140.734375 222.515625 140.722656 222.511719 140.714844 C 222.488281 140.65625 222.453125 140.609375 222.410156 140.570312 C 222.363281 140.527344 222.308594 140.5 222.246094 140.484375 C 222.191406 140.472656 222.136719 140.46875 222.078125 140.472656 C 222.015625 140.476562 221.957031 140.484375 221.894531 140.496094 C 221.785156 140.515625 221.679688 140.546875 221.574219 140.585938 C 221.480469 140.617188 221.394531 140.65625 221.308594 140.703125 C 221.175781 140.777344 221.050781 140.863281 220.945312 140.96875 C 220.898438 141.011719 220.859375 141.0625 220.820312 141.117188 Z M 225.449219 141.867188 C 225.472656 141.871094 225.496094 141.875 225.515625 141.875 C 225.574219 141.882812 225.628906 141.886719 225.683594 141.890625 C 225.734375 141.894531 225.78125 141.898438 225.828125 141.898438 C 225.898438 141.902344 225.964844 141.898438 226.035156 141.890625 C 226.097656 141.882812 226.164062 141.871094 226.226562 141.851562 C 226.296875 141.832031 226.367188 141.800781 226.433594 141.769531 C 226.53125 141.722656 226.617188 141.664062 226.683594 141.582031 C 226.75 141.5 226.792969 141.414062 226.804688 141.3125 C 226.804688 141.300781 226.804688 141.292969 226.792969 141.289062 C 226.777344 141.277344 226.761719 141.265625 226.746094 141.257812 C 226.6875 141.234375 226.632812 141.234375 226.574219 141.242188 C 226.507812 141.253906 226.449219 141.273438 226.390625 141.292969 C 226.28125 141.332031 226.179688 141.386719 226.078125 141.441406 C 225.976562 141.496094 225.875 141.558594 225.777344 141.628906 C 225.695312 141.683594 225.617188 141.742188 225.535156 141.796875 C 225.507812 141.820312 225.480469 141.839844 225.449219 141.867188 Z M 224.78125 141.785156 C 224.746094 141.769531 224.710938 141.753906 224.679688 141.738281 C 224.644531 141.722656 224.605469 141.710938 224.566406 141.707031 C 224.507812 141.703125 224.449219 141.699219 224.386719 141.703125 C 224.359375 141.703125 224.332031 141.707031 224.300781 141.710938 C 224.238281 141.71875 224.183594 141.742188 224.128906 141.769531 C 224.097656 141.785156 224.070312 141.804688 224.050781 141.828125 C 224.039062 141.839844 224.027344 141.851562 224.03125 141.867188 C 224.035156 141.871094 224.042969 141.875 224.046875 141.875 C 224.070312 141.878906 224.089844 141.878906 224.109375 141.878906 C 224.140625 141.878906 224.171875 141.878906 224.203125 141.875 C 224.25 141.875 224.296875 141.875 224.34375 141.867188 C 224.40625 141.863281 224.46875 141.851562 224.53125 141.84375 C 224.613281 141.832031 224.695312 141.808594 224.78125 141.785156 Z M 222.691406 142.15625 C 222.695312 142.164062 222.699219 142.167969 222.703125 142.171875 C 222.742188 142.21875 222.792969 142.253906 222.855469 142.277344 C 222.90625 142.300781 222.957031 142.300781 223.007812 142.289062 C 223.054688 142.28125 223.09375 142.257812 223.128906 142.234375 C 223.15625 142.21875 223.167969 142.203125 223.160156 142.171875 C 223.144531 142.125 223.121094 142.082031 223.089844 142.042969 C 223.046875 142.0625 223.003906 142.085938 222.957031 142.105469 C 222.882812 142.136719 222.804688 142.160156 222.71875 142.15625 C 222.710938 142.15625 222.703125 142.15625 222.691406 142.15625 Z M 222.691406 142.15625 "/></g><path style=" stroke:none;fill-rule:nonzero;fill:#366db3;fill-opacity:1;" d="M 192.011719 141.839844 C 207.632812 141.839844 221.785156 135.503906 232.027344 125.261719 C 242.269531 115.019531 248.601562 100.867188 248.601562 85.246094 C 248.601562 69.621094 242.269531 55.472656 232.027344 45.230469 C 221.785156 34.988281 207.636719 28.65625 192.011719 28.65625 C 176.378906 28.65625 162.234375 34.988281 151.992188 45.230469 C 141.753906 55.46875 135.417969 69.617188 135.417969 85.246094 C 135.417969 100.871094 141.753906 115.023438 151.992188 125.265625 C 162.234375 135.507812 176.378906 141.839844 192.011719 141.839844 Z M 244.507812 137.746094 C 231.070312 151.183594 212.507812 159.496094 192.011719 159.496094 C 171.507812 159.496094 152.945312 151.1875 139.507812 137.75 C 126.074219 124.308594 117.761719 105.75 117.761719 85.246094 C 117.761719 64.746094 126.074219 46.183594 139.507812 32.746094 C 152.945312 19.3125 171.507812 11 192.011719 11 C 212.507812 11 231.074219 19.3125 244.507812 32.75 C 257.945312 46.1875 266.257812 64.75 266.257812 85.246094 C 266.257812 105.742188 257.945312 124.304688 244.507812 137.746094 "/><path style=" stroke:none;fill-rule:nonzero;fill:#366db3;fill-opacity:1;" d="M 245.386719 174.351562 C 238.5625 179.507812 231.078125 183.605469 223.148438 186.539062 C 213.628906 190.0625 203.488281 191.914062 193.125 191.914062 C 182.753906 191.914062 172.558594 190.035156 162.949219 186.464844 C 154.917969 183.480469 147.355469 179.316406 140.503906 174.085938 C 127.625 178.886719 116.675781 187.265625 108.730469 197.890625 C 99.988281 209.582031 94.894531 224 94.894531 239.355469 L 94.894531 267.003906 L 175.140625 267.003906 L 175.140625 284.660156 L 77.242188 284.660156 L 77.242188 239.355469 C 77.242188 220.085938 83.621094 202.007812 94.589844 187.335938 C 105.613281 172.601562 121.277344 161.3125 139.761719 155.746094 L 144.347656 154.363281 L 148 157.5 C 154.320312 162.9375 161.457031 167.144531 169.089844 169.984375 C 176.628906 172.785156 184.746094 174.257812 193.125 174.257812 C 201.425781 174.257812 209.511719 172.785156 217.078125 169.984375 C 224.707031 167.164062 231.816406 163 238.085938 157.640625 L 241.972656 154.320312 L 246.777344 156.054688 C 266.53125 163.175781 281.003906 173.457031 290.875 187.324219 C 300.710938 201.144531 305.757812 218.214844 306.703125 238.984375 L 306.703125 239.363281 L 306.726562 275.832031 L 306.730469 284.660156 L 209.765625 284.660156 L 209.765625 267.003906 L 289.132812 267.003906 L 289.117188 239.746094 C 288.328125 222.425781 284.3125 208.46875 276.53125 197.535156 C 269.527344 187.691406 259.285156 180.054688 245.386719 174.351562 "/><g clip-rule="nonzero" clip-path="url(#c6157e8baa)"><path style=" stroke:none;fill-rule:nonzero;fill:#366db3;fill-opacity:1;" d="M 362.984375 313.09375 L 21.015625 313.09375 L 21.015625 355.28125 L 362.984375 355.28125 Z M 12.1875 295.441406 L 380.636719 295.441406 L 380.636719 372.9375 L 3.359375 372.9375 L 3.359375 295.441406 L 12.1875 295.441406 "/></g><path style=" stroke:none;fill-rule:evenodd;fill:#366db3;fill-opacity:1;" d="M 186.136719 245.554688 C 182.777344 243.5 180.511719 240.027344 180.183594 236 L 178.820312 219.203125 C 178.261719 212.324219 183.402344 206.230469 190.285156 205.675781 C 197.183594 205.113281 203.257812 210.277344 203.820312 217.171875 L 205.183594 233.964844 C 205.574219 238.792969 203.09375 243.269531 199.023438 245.652344 L 198.460938 295.640625 L 185.496094 295.640625 L 186.136719 245.554688 "/></g></svg>