<svg xmlns="http://www.w3.org/2000/svg" xmlns:xlink="http://www.w3.org/1999/xlink" width="512" zoomAndPan="magnify" viewBox="0 0 384 383.999986" height="512" preserveAspectRatio="xMidYMid meet" version="1.2"><defs><clipPath id="7b4ae318ef"><path d="M 5.222656 107.78125 L 378.722656 107.78125 L 378.722656 276.53125 L 5.222656 276.53125 Z M 5.222656 107.78125 "/></clipPath></defs><g id="857196dd86"><g clip-rule="nonzero" clip-path="url(#7b4ae318ef)"><path style=" stroke:none;fill-rule:nonzero;fill:#366db3;fill-opacity:1;" d="M 372.414062 161.914062 L 360.386719 161.914062 L 360.386719 143.871094 C 360.386719 140.546875 357.695312 137.855469 354.371094 137.855469 L 324.296875 137.855469 L 324.296875 113.796875 C 324.296875 110.472656 321.605469 107.78125 318.285156 107.78125 L 270.164062 107.78125 C 266.84375 107.78125 264.152344 110.472656 264.152344 113.796875 L 264.152344 167.929688 L 119.796875 167.929688 L 119.796875 113.796875 C 119.796875 110.472656 117.105469 107.78125 113.78125 107.78125 L 65.664062 107.78125 C 62.339844 107.78125 59.648438 110.472656 59.648438 113.796875 L 59.648438 137.855469 L 29.578125 137.855469 C 26.253906 137.855469 23.5625 140.546875 23.5625 143.871094 L 23.5625 163.417969 L 11.53125 163.417969 C 8.207031 163.417969 5.515625 166.109375 5.515625 169.433594 L 5.515625 216.046875 C 5.515625 219.371094 8.207031 222.0625 11.53125 222.0625 L 23.5625 222.0625 L 23.5625 240.105469 C 23.5625 243.429688 26.253906 246.121094 29.578125 246.121094 L 59.648438 246.121094 L 59.648438 270.179688 C 59.648438 273.5 62.339844 276.195312 65.664062 276.195312 L 113.78125 276.195312 C 117.105469 276.195312 119.796875 273.5 119.796875 270.179688 L 119.796875 216.046875 L 264.152344 216.046875 L 264.152344 270.179688 C 264.152344 273.5 266.84375 276.195312 270.164062 276.195312 L 318.285156 276.195312 C 321.605469 276.195312 324.296875 273.5 324.296875 270.179688 L 324.296875 246.121094 L 354.371094 246.121094 C 357.695312 246.121094 360.386719 243.429688 360.386719 240.105469 L 360.386719 220.558594 L 372.414062 220.558594 C 375.738281 220.558594 378.429688 217.867188 378.429688 214.542969 L 378.429688 167.929688 C 378.429688 164.605469 375.738281 161.914062 372.414062 161.914062 Z M 23.5625 210.03125 L 17.546875 210.03125 L 17.546875 175.445312 L 23.5625 175.445312 Z M 59.648438 234.089844 L 35.589844 234.089844 L 35.589844 149.882812 L 59.648438 149.882812 Z M 107.769531 264.164062 L 71.679688 264.164062 L 71.679688 119.808594 L 107.769531 119.808594 Z M 264.152344 204.015625 L 119.796875 204.015625 L 119.796875 179.957031 L 264.152344 179.957031 Z M 312.269531 264.164062 L 276.179688 264.164062 L 276.179688 119.808594 L 312.269531 119.808594 Z M 348.355469 234.089844 L 324.296875 234.089844 L 324.296875 149.882812 L 348.355469 149.882812 Z M 366.402344 208.527344 L 360.386719 208.527344 L 360.386719 173.941406 L 366.402344 173.941406 Z M 366.402344 208.527344 "/></g></g></svg>