<svg xmlns="http://www.w3.org/2000/svg" xmlns:xlink="http://www.w3.org/1999/xlink" width="512" zoomAndPan="magnify" viewBox="0 0 384 383.999986" height="512" preserveAspectRatio="xMidYMid meet" version="1.0"><defs><clipPath id="c4dc0d8d47"><path d="M 218.457031 160.878906 L 222.925781 160.878906 L 222.925781 166.789062 L 218.457031 166.789062 Z M 218.457031 160.878906 " clip-rule="nonzero"/></clipPath><clipPath id="1efc283832"><path d="M 225.675781 131.667969 L 240.519531 131.667969 L 240.519531 148.9375 L 225.675781 148.9375 Z M 225.675781 131.667969 " clip-rule="nonzero"/></clipPath><clipPath id="549f0016e9"><path d="M 233 136 L 240.589844 136 L 240.589844 149 L 233 149 Z M 233 136 " clip-rule="nonzero"/></clipPath><clipPath id="c92dfbe564"><path d="M 232 132 L 240.589844 132 L 240.589844 137 L 232 137 Z M 232 132 " clip-rule="nonzero"/></clipPath><clipPath id="9bad842f4c"><path d="M 231 132 L 240.589844 132 L 240.589844 138 L 231 138 Z M 231 132 " clip-rule="nonzero"/></clipPath><clipPath id="198556d167"><path d="M 230 133 L 240.589844 133 L 240.589844 139 L 230 139 Z M 230 133 " clip-rule="nonzero"/></clipPath><clipPath id="d865a9e3af"><path d="M 233 131.636719 L 240 131.636719 L 240 136 L 233 136 Z M 233 131.636719 " clip-rule="nonzero"/></clipPath><clipPath id="6e14b13fa0"><path d="M 227 160 L 233 160 L 233 166.886719 L 227 166.886719 Z M 227 160 " clip-rule="nonzero"/></clipPath><clipPath id="ba4f366890"><path d="M 207.589844 132 L 223 132 L 223 150 L 207.589844 150 Z M 207.589844 132 " clip-rule="nonzero"/></clipPath><clipPath id="a1869ddf9e"><path d="M 207.589844 138 L 215 138 L 215 149 L 207.589844 149 Z M 207.589844 138 " clip-rule="nonzero"/></clipPath><clipPath id="df29850e4b"><path d="M 207.589844 133 L 217 133 L 217 140 L 207.589844 140 Z M 207.589844 133 " clip-rule="nonzero"/></clipPath><clipPath id="534df4e76a"><path d="M 207.589844 134 L 217 134 L 217 141 L 207.589844 141 Z M 207.589844 134 " clip-rule="nonzero"/></clipPath><clipPath id="2b177baa7c"><path d="M 207.589844 134 L 218 134 L 218 142 L 207.589844 142 Z M 207.589844 134 " clip-rule="nonzero"/></clipPath><clipPath id="2fa7c41e4b"><path d="M 48 4 L 380.339844 4 L 380.339844 334 L 48 334 Z M 48 4 " clip-rule="nonzero"/></clipPath></defs><path fill="#ffffff" d="M 222 162.242188 L 221.265625 161.855469 L 228.71875 147.730469 L 229.453125 148.121094 L 222 162.242188 " fill-opacity="1" fill-rule="nonzero"/><g clip-path="url(#c4dc0d8d47)"><path fill="#ffffff" d="M 219.847656 166.726562 L 218.78125 166.164062 C 218.519531 166.023438 218.417969 165.699219 218.554688 165.4375 L 220.796875 161.1875 C 220.9375 160.925781 221.261719 160.824219 221.523438 160.964844 L 222.589844 161.527344 C 222.855469 161.664062 222.953125 161.992188 222.816406 162.253906 L 220.574219 166.5 C 220.433594 166.765625 220.109375 166.863281 219.847656 166.726562 " fill-opacity="1" fill-rule="nonzero"/></g><g clip-path="url(#1efc283832)"><path fill="#ffffff" d="M 229.265625 147.585938 C 226.289062 146.011719 225.59375 141.457031 227.71875 137.433594 C 228.757812 135.464844 230.304688 133.921875 232.078125 133.085938 C 233.8125 132.265625 235.550781 132.230469 236.972656 132.980469 C 239.949219 134.554688 240.644531 139.105469 238.519531 143.132812 C 236.394531 147.160156 232.246094 149.15625 229.265625 147.585938 Z M 237.335938 132.296875 C 235.691406 131.429688 233.707031 131.460938 231.746094 132.386719 C 229.824219 133.292969 228.152344 134.957031 227.035156 137.074219 C 224.710938 141.476562 225.550781 146.496094 228.90625 148.269531 C 232.261719 150.039062 236.878906 147.898438 239.203125 143.492188 C 241.527344 139.089844 240.6875 134.066406 237.335938 132.296875 " fill-opacity="1" fill-rule="nonzero"/></g><path fill="#ffffff" d="M 226.019531 143.09375 L 231.519531 132.667969 C 231.429688 132.71875 231.335938 132.769531 231.246094 132.820312 L 225.96875 142.820312 C 225.988281 142.914062 226.003906 143.003906 226.019531 143.09375 " fill-opacity="1" fill-rule="nonzero"/><path fill="#ffffff" d="M 232.472656 132.699219 C 232.433594 132.699219 232.394531 132.695312 232.359375 132.6875 L 226.199219 144.355469 C 226.214844 144.449219 226.230469 144.546875 226.246094 144.640625 L 232.546875 132.695312 C 232.523438 132.699219 232.5 132.699219 232.472656 132.699219 " fill-opacity="1" fill-rule="nonzero"/><path fill="#ffffff" d="M 233.617188 132.214844 C 233.558594 132.234375 233.5 132.253906 233.441406 132.269531 L 226.421875 145.570312 C 226.429688 145.578125 226.433594 145.582031 226.4375 145.589844 C 226.472656 145.632812 226.503906 145.675781 226.539062 145.71875 L 233.675781 132.191406 C 233.65625 132.199219 233.636719 132.207031 233.617188 132.214844 " fill-opacity="1" fill-rule="nonzero"/><path fill="#ffffff" d="M 234.503906 132.230469 C 234.492188 132.226562 234.480469 132.21875 234.46875 132.214844 L 227.015625 146.335938 C 227.054688 146.386719 227.09375 146.433594 227.132812 146.484375 L 234.628906 132.273438 C 234.589844 132.261719 234.546875 132.246094 234.503906 132.230469 " fill-opacity="1" fill-rule="nonzero"/><path fill="#ffffff" d="M 227.851562 147.339844 L 235.703125 132.460938 L 235.550781 132.378906 L 227.730469 147.203125 C 227.769531 147.246094 227.8125 147.292969 227.851562 147.339844 " fill-opacity="1" fill-rule="nonzero"/><path fill="#ffffff" d="M 228.621094 147.46875 L 228.46875 147.386719 L 236.359375 132.433594 L 236.511719 132.515625 L 228.621094 147.46875 " fill-opacity="1" fill-rule="nonzero"/><path fill="#ffffff" d="M 229.441406 147.898438 L 229.289062 147.820312 L 237.179688 132.867188 L 237.332031 132.945312 L 229.441406 147.898438 " fill-opacity="1" fill-rule="nonzero"/><path fill="#ffffff" d="M 230.109375 148.613281 L 237.996094 133.671875 L 237.84375 133.589844 L 229.953125 148.542969 L 230.046875 148.59375 C 230.070312 148.597656 230.089844 148.605469 230.109375 148.613281 " fill-opacity="1" fill-rule="nonzero"/><path fill="#ffffff" d="M 231.019531 148.707031 L 238.746094 134.066406 L 238.59375 133.984375 L 230.824219 148.707031 C 230.890625 148.707031 230.953125 148.707031 231.019531 148.707031 " fill-opacity="1" fill-rule="nonzero"/><path fill="#ffffff" d="M 231.886719 148.757812 L 239.414062 134.488281 C 239.394531 134.457031 239.375 134.421875 239.355469 134.386719 L 239.292969 134.355469 L 231.707031 148.722656 C 231.765625 148.734375 231.824219 148.746094 231.886719 148.757812 " fill-opacity="1" fill-rule="nonzero"/><path fill="#ffffff" d="M 232.847656 148.628906 L 239.835938 135.382812 C 239.8125 135.332031 239.792969 135.277344 239.769531 135.226562 C 239.761719 135.210938 239.757812 135.195312 239.75 135.179688 L 232.585938 148.753906 C 232.671875 148.71875 232.757812 148.667969 232.847656 148.628906 " fill-opacity="1" fill-rule="nonzero"/><g clip-path="url(#549f0016e9)"><path fill="#ffffff" d="M 240.234375 136.597656 C 240.230469 136.574219 240.222656 136.550781 240.21875 136.527344 C 240.203125 136.46875 240.1875 136.410156 240.171875 136.355469 L 233.855469 148.324219 C 233.941406 148.28125 234.03125 148.238281 234.117188 148.191406 L 240.234375 136.597656 " fill-opacity="1" fill-rule="nonzero"/></g><path fill="#ffffff" d="M 239.703125 139.726562 C 239.699219 139.589844 239.707031 139.453125 239.722656 139.316406 L 235.449219 147.414062 C 235.554688 147.34375 235.65625 147.273438 235.757812 147.199219 L 239.703125 139.726562 " fill-opacity="1" fill-rule="nonzero"/><g clip-path="url(#c92dfbe564)"><path fill="#ffffff" d="M 232.90625 132.519531 C 232.875 132.554688 232.839844 132.585938 232.796875 132.613281 L 240.148438 136.277344 C 240.125 136.199219 240.101562 136.125 240.078125 136.050781 L 232.929688 132.484375 C 232.921875 132.496094 232.914062 132.507812 232.90625 132.519531 " fill-opacity="1" fill-rule="nonzero"/></g><g clip-path="url(#9bad842f4c)"><path fill="#ffffff" d="M 240.335938 137.398438 C 240.339844 137.335938 240.339844 137.269531 240.335938 137.207031 L 231.382812 132.742188 C 231.324219 132.777344 231.265625 132.8125 231.203125 132.847656 L 240.335938 137.398438 " fill-opacity="1" fill-rule="nonzero"/></g><g clip-path="url(#198556d167)"><path fill="#ffffff" d="M 240.0625 138.292969 C 240.085938 138.238281 240.109375 138.1875 240.132812 138.136719 L 230.429688 133.296875 C 230.375 133.332031 230.316406 133.367188 230.257812 133.402344 L 240.0625 138.292969 " fill-opacity="1" fill-rule="nonzero"/></g><path fill="#ffffff" d="M 229.6875 133.929688 L 239.792969 138.964844 C 239.804688 138.921875 239.820312 138.878906 239.835938 138.832031 C 239.839844 138.824219 239.84375 138.8125 239.847656 138.800781 L 229.734375 133.757812 C 229.710938 133.816406 229.695312 133.871094 229.6875 133.929688 " fill-opacity="1" fill-rule="nonzero"/><path fill="#ffffff" d="M 229.207031 134.660156 C 229.167969 134.699219 229.132812 134.738281 229.101562 134.78125 C 229.101562 134.785156 229.097656 134.789062 229.097656 134.789062 L 239.730469 140.089844 C 239.726562 140.074219 239.726562 140.054688 239.722656 140.039062 C 239.71875 139.988281 239.714844 139.9375 239.710938 139.890625 L 229.207031 134.65625 C 229.207031 134.65625 229.207031 134.65625 229.207031 134.660156 " fill-opacity="1" fill-rule="nonzero"/><path fill="#ffffff" d="M 228.644531 135.394531 L 239.765625 140.9375 C 239.769531 140.875 239.773438 140.8125 239.773438 140.75 L 228.777344 135.269531 C 228.738281 135.316406 228.695312 135.355469 228.644531 135.394531 " fill-opacity="1" fill-rule="nonzero"/><path fill="#ffffff" d="M 228.132812 136.171875 L 239.554688 141.867188 C 239.574219 141.8125 239.59375 141.757812 239.609375 141.703125 L 228.238281 136.035156 C 228.207031 136.082031 228.171875 136.128906 228.132812 136.171875 " fill-opacity="1" fill-rule="nonzero"/><path fill="#ffffff" d="M 227.765625 137.003906 C 227.765625 137.011719 227.761719 137.015625 227.757812 137.019531 L 239.207031 142.726562 C 239.230469 142.675781 239.253906 142.625 239.277344 142.570312 L 227.820312 136.859375 C 227.804688 136.910156 227.789062 136.957031 227.765625 137.003906 " fill-opacity="1" fill-rule="nonzero"/><path fill="#ffffff" d="M 227.3125 137.558594 C 227.273438 137.601562 227.230469 137.640625 227.191406 137.683594 L 238.832031 143.488281 C 238.859375 143.4375 238.886719 143.386719 238.910156 143.335938 L 227.320312 137.554688 C 227.316406 137.558594 227.316406 137.558594 227.3125 137.558594 " fill-opacity="1" fill-rule="nonzero"/><path fill="#ffffff" d="M 226.800781 138.179688 C 226.773438 138.230469 226.746094 138.28125 226.722656 138.332031 L 238.449219 144.179688 C 238.480469 144.128906 238.507812 144.078125 238.535156 144.03125 L 226.800781 138.179688 " fill-opacity="1" fill-rule="nonzero"/><path fill="#ffffff" d="M 226.503906 138.914062 C 226.488281 138.96875 226.472656 139.027344 226.457031 139.082031 L 238.042969 144.859375 C 238.074219 144.808594 238.101562 144.761719 238.132812 144.710938 L 226.503906 138.914062 " fill-opacity="1" fill-rule="nonzero"/><path fill="#ffffff" d="M 226.296875 139.847656 C 226.289062 139.902344 226.277344 139.960938 226.265625 140.019531 L 237.679688 145.710938 C 237.71875 145.667969 237.753906 145.621094 237.792969 145.574219 L 226.296875 139.847656 " fill-opacity="1" fill-rule="nonzero"/><path fill="#ffffff" d="M 226.058594 140.824219 C 226.039062 140.878906 226.023438 140.933594 226.003906 140.988281 L 236.777344 146.359375 C 236.820312 146.316406 236.863281 146.273438 236.910156 146.234375 L 226.058594 140.824219 " fill-opacity="1" fill-rule="nonzero"/><path fill="#ffffff" d="M 225.832031 141.644531 C 225.828125 141.6875 225.828125 141.734375 225.828125 141.777344 C 225.828125 141.796875 225.828125 141.816406 225.828125 141.835938 L 236.085938 146.949219 C 236.136719 146.910156 236.1875 146.871094 236.234375 146.832031 L 225.832031 141.644531 " fill-opacity="1" fill-rule="nonzero"/><path fill="#ffffff" d="M 225.949219 142.734375 C 225.964844 142.804688 225.980469 142.875 225.992188 142.945312 L 235.238281 147.554688 C 235.292969 147.519531 235.347656 147.484375 235.402344 147.445312 L 225.949219 142.734375 " fill-opacity="1" fill-rule="nonzero"/><path fill="#ffffff" d="M 226.117188 143.84375 C 226.125 143.914062 226.136719 143.984375 226.148438 144.054688 L 234.277344 148.105469 C 234.339844 148.074219 234.402344 148.039062 234.464844 148.007812 L 226.117188 143.84375 " fill-opacity="1" fill-rule="nonzero"/><g clip-path="url(#d865a9e3af)"><path fill="#ffffff" d="M 239.761719 135.210938 C 239.726562 135.125 239.6875 135.042969 239.652344 134.960938 L 233.523438 131.90625 C 233.429688 131.921875 233.335938 131.9375 233.238281 131.957031 L 239.761719 135.210938 " fill-opacity="1" fill-rule="nonzero"/></g><path fill="#ffffff" d="M 227.0625 145.125 C 227.097656 145.210938 227.136719 145.292969 227.175781 145.375 L 232.496094 148.027344 C 232.585938 148.011719 232.675781 147.992188 232.769531 147.972656 L 227.0625 145.125 " fill-opacity="1" fill-rule="nonzero"/><path fill="#ffffff" d="M 229.011719 161.746094 L 228.3125 162.199219 L 219.644531 148.789062 L 220.339844 148.335938 L 229.011719 161.746094 " fill-opacity="1" fill-rule="nonzero"/><g clip-path="url(#6e14b13fa0)"><path fill="#ffffff" d="M 231.867188 165.820312 L 230.851562 166.472656 C 230.601562 166.636719 230.269531 166.5625 230.109375 166.3125 L 227.5 162.28125 C 227.339844 162.03125 227.414062 161.699219 227.660156 161.535156 L 228.675781 160.882812 C 228.921875 160.722656 229.257812 160.792969 229.417969 161.042969 L 232.027344 165.074219 C 232.1875 165.324219 232.113281 165.65625 231.867188 165.820312 " fill-opacity="1" fill-rule="nonzero"/></g><g clip-path="url(#ba4f366890)"><path fill="#ffffff" d="M 219.78125 148.238281 C 216.953125 150.066406 212.644531 148.441406 210.171875 144.621094 C 208.964844 142.75 208.375 140.644531 208.511719 138.691406 C 208.648438 136.78125 209.464844 135.246094 210.820312 134.371094 C 213.644531 132.542969 217.957031 134.167969 220.429688 137.988281 C 222.898438 141.8125 222.609375 146.410156 219.78125 148.238281 Z M 210.398438 133.722656 C 208.839844 134.730469 207.894531 136.476562 207.742188 138.636719 C 207.59375 140.757812 208.226562 143.03125 209.523438 145.039062 C 212.226562 149.21875 217.015625 150.945312 220.203125 148.886719 C 223.386719 146.828125 223.78125 141.75 221.078125 137.570312 C 218.375 133.390625 213.585938 131.664062 210.398438 133.722656 " fill-opacity="1" fill-rule="nonzero"/></g><g clip-path="url(#a1869ddf9e)"><path fill="#ffffff" d="M 214.277344 148.875 L 207.875 138.972656 C 207.875 139.078125 207.875 139.183594 207.875 139.285156 L 214.015625 148.78125 C 214.101562 148.808594 214.191406 148.839844 214.277344 148.875 " fill-opacity="1" fill-rule="nonzero"/></g><path fill="#ffffff" d="M 208.371094 138.15625 C 208.351562 138.191406 208.328125 138.222656 208.304688 138.253906 L 215.464844 149.332031 C 215.558594 149.363281 215.648438 149.398438 215.734375 149.433594 L 208.40625 138.089844 C 208.394531 138.113281 208.382812 138.136719 208.371094 138.15625 " fill-opacity="1" fill-rule="nonzero"/><path fill="#ffffff" d="M 208.507812 136.921875 C 208.496094 136.984375 208.484375 137.042969 208.46875 137.101562 L 216.632812 149.734375 C 216.640625 149.730469 216.648438 149.730469 216.660156 149.726562 C 216.710938 149.722656 216.765625 149.710938 216.820312 149.707031 L 208.515625 136.859375 C 208.511719 136.878906 208.507812 136.902344 208.507812 136.921875 " fill-opacity="1" fill-rule="nonzero"/><path fill="#ffffff" d="M 208.953125 136.15625 C 208.945312 136.164062 208.933594 136.171875 208.925781 136.179688 L 217.59375 149.589844 C 217.652344 149.582031 217.714844 149.570312 217.777344 149.558594 L 209.054688 136.066406 C 209.023438 136.097656 208.988281 136.128906 208.953125 136.15625 " fill-opacity="1" fill-rule="nonzero"/><path fill="#ffffff" d="M 218.875 149.351562 L 209.742188 135.222656 L 209.597656 135.316406 L 218.695312 149.390625 C 218.757812 149.378906 218.816406 149.363281 218.875 149.351562 " fill-opacity="1" fill-rule="nonzero"/><path fill="#ffffff" d="M 219.363281 148.742188 L 219.21875 148.835938 L 210.042969 134.636719 L 210.1875 134.542969 L 219.363281 148.742188 " fill-opacity="1" fill-rule="nonzero"/><path fill="#ffffff" d="M 220.140625 148.238281 L 219.996094 148.332031 L 210.820312 134.132812 L 210.964844 134.042969 L 220.140625 148.238281 " fill-opacity="1" fill-rule="nonzero"/><path fill="#ffffff" d="M 221.09375 148.003906 L 211.917969 133.816406 L 211.773438 133.910156 L 220.953125 148.105469 L 221.042969 148.050781 C 221.058594 148.035156 221.078125 148.019531 221.09375 148.003906 " fill-opacity="1" fill-rule="nonzero"/><path fill="#ffffff" d="M 221.617188 147.261719 L 212.628906 133.355469 L 212.484375 133.449219 L 221.523438 147.429688 C 221.554688 147.375 221.585938 147.316406 221.617188 147.261719 " fill-opacity="1" fill-rule="nonzero"/><path fill="#ffffff" d="M 222.085938 146.527344 L 213.328125 132.980469 C 213.289062 132.980469 213.25 132.980469 213.210938 132.980469 L 213.148438 133.019531 L 221.96875 146.667969 C 222.007812 146.621094 222.046875 146.574219 222.085938 146.527344 " fill-opacity="1" fill-rule="nonzero"/><path fill="#ffffff" d="M 222.441406 145.625 L 214.3125 133.050781 C 214.257812 133.042969 214.203125 133.035156 214.144531 133.03125 C 214.128906 133.027344 214.109375 133.027344 214.09375 133.027344 L 222.425781 145.917969 C 222.4375 145.820312 222.4375 145.722656 222.441406 145.625 " fill-opacity="1" fill-rule="nonzero"/><path fill="#ffffff" d="M 215.570312 133.296875 C 215.546875 133.289062 215.523438 133.28125 215.5 133.277344 C 215.441406 133.261719 215.382812 133.246094 215.324219 133.234375 L 222.671875 144.597656 C 222.675781 144.5 222.683594 144.402344 222.683594 144.304688 L 215.570312 133.296875 " fill-opacity="1" fill-rule="nonzero"/><path fill="#ffffff" d="M 218.035156 135.292969 C 217.914062 135.226562 217.796875 135.15625 217.691406 135.074219 L 222.660156 142.761719 C 222.648438 142.636719 222.636719 142.511719 222.621094 142.390625 L 218.035156 135.292969 " fill-opacity="1" fill-rule="nonzero"/><path fill="#ffffff" d="M 208.421875 137.691406 C 208.441406 137.734375 208.449219 137.78125 208.453125 137.832031 L 215.246094 133.214844 C 215.167969 133.195312 215.089844 133.179688 215.011719 133.164062 L 208.40625 137.65625 C 208.410156 137.667969 208.417969 137.679688 208.421875 137.691406 " fill-opacity="1" fill-rule="nonzero"/><g clip-path="url(#df29850e4b)"><path fill="#ffffff" d="M 216.316406 133.597656 C 216.261719 133.5625 216.207031 133.535156 216.148438 133.503906 L 207.875 139.128906 C 207.875 139.199219 207.875 139.265625 207.875 139.335938 L 216.316406 133.597656 " fill-opacity="1" fill-rule="nonzero"/></g><g clip-path="url(#534df4e76a)"><path fill="#ffffff" d="M 216.960938 134.273438 C 216.929688 134.226562 216.894531 134.183594 216.859375 134.136719 L 207.890625 140.230469 C 207.894531 140.296875 207.898438 140.367188 207.902344 140.433594 L 216.960938 134.273438 " fill-opacity="1" fill-rule="nonzero"/></g><g clip-path="url(#2b177baa7c)"><path fill="#ffffff" d="M 208.078125 141.1875 L 217.417969 134.839844 C 217.386719 134.808594 217.351562 134.773438 217.324219 134.738281 C 217.316406 134.730469 217.308594 134.722656 217.300781 134.710938 L 207.953125 141.0625 C 207.992188 141.109375 208.035156 141.152344 208.078125 141.1875 " fill-opacity="1" fill-rule="nonzero"/></g><path fill="#ffffff" d="M 208.480469 141.964844 C 208.496094 142.015625 208.515625 142.066406 208.535156 142.117188 C 208.539062 142.121094 208.539062 142.121094 208.542969 142.125 L 218.367188 135.445312 C 218.351562 135.441406 218.335938 135.433594 218.316406 135.425781 C 218.273438 135.40625 218.226562 135.386719 218.183594 135.367188 L 208.476562 141.960938 C 208.476562 141.964844 208.480469 141.964844 208.480469 141.964844 " fill-opacity="1" fill-rule="nonzero"/><path fill="#ffffff" d="M 208.847656 142.8125 L 219.121094 135.828125 C 219.070312 135.792969 219.015625 135.761719 218.960938 135.730469 L 208.800781 142.636719 C 208.824219 142.695312 208.839844 142.753906 208.847656 142.8125 " fill-opacity="1" fill-rule="nonzero"/><path fill="#ffffff" d="M 209.273438 143.644531 L 219.832031 136.46875 C 219.792969 136.425781 219.753906 136.382812 219.714844 136.339844 L 209.207031 143.480469 C 209.234375 143.53125 209.253906 143.585938 209.273438 143.644531 " fill-opacity="1" fill-rule="nonzero"/><path fill="#ffffff" d="M 209.820312 144.367188 C 209.824219 144.375 209.828125 144.378906 209.832031 144.382812 L 220.410156 137.191406 C 220.375 137.148438 220.34375 137.101562 220.308594 137.054688 L 209.71875 144.253906 C 209.757812 144.289062 209.792969 144.328125 209.820312 144.367188 " fill-opacity="1" fill-rule="nonzero"/><path fill="#ffffff" d="M 210.085938 145.035156 C 210.101562 145.089844 210.117188 145.148438 210.132812 145.203125 L 220.890625 137.890625 C 220.859375 137.84375 220.828125 137.792969 220.796875 137.746094 L 210.082031 145.027344 C 210.082031 145.03125 210.082031 145.03125 210.085938 145.035156 " fill-opacity="1" fill-rule="nonzero"/><path fill="#ffffff" d="M 210.375 145.785156 C 210.402344 145.835938 210.433594 145.882812 210.464844 145.929688 L 221.304688 138.5625 C 221.277344 138.511719 221.246094 138.464844 221.21875 138.414062 L 210.375 145.785156 " fill-opacity="1" fill-rule="nonzero"/><path fill="#ffffff" d="M 210.867188 146.402344 C 210.910156 146.445312 210.949219 146.488281 210.992188 146.527344 L 221.699219 139.25 C 221.671875 139.199219 221.644531 139.148438 221.617188 139.097656 L 210.867188 146.402344 " fill-opacity="1" fill-rule="nonzero"/><path fill="#ffffff" d="M 211.582031 147.039062 C 211.625 147.078125 211.671875 147.117188 211.714844 147.15625 L 222.265625 139.984375 C 222.246094 139.929688 222.222656 139.875 222.203125 139.820312 L 211.582031 147.039062 " fill-opacity="1" fill-rule="nonzero"/><path fill="#ffffff" d="M 212.316406 147.726562 C 212.355469 147.769531 212.394531 147.8125 212.433594 147.855469 L 222.386719 141.089844 C 222.371094 141.03125 222.359375 140.972656 222.34375 140.914062 L 212.316406 147.726562 " fill-opacity="1" fill-rule="nonzero"/><path fill="#ffffff" d="M 212.921875 148.328125 C 212.957031 148.351562 212.996094 148.375 213.035156 148.394531 C 213.050781 148.40625 213.066406 148.414062 213.085938 148.421875 L 222.566406 141.980469 C 222.558594 141.917969 222.546875 141.855469 222.535156 141.792969 L 212.921875 148.328125 " fill-opacity="1" fill-rule="nonzero"/><path fill="#ffffff" d="M 213.925781 148.757812 C 213.996094 148.777344 214.066406 148.800781 214.136719 148.824219 L 222.679688 143.015625 C 222.675781 142.949219 222.667969 142.886719 222.664062 142.820312 L 213.925781 148.757812 " fill-opacity="1" fill-rule="nonzero"/><path fill="#ffffff" d="M 214.980469 149.15625 C 215.046875 149.179688 215.113281 149.203125 215.179688 149.230469 L 222.691406 144.121094 C 222.691406 144.054688 222.695312 143.984375 222.695312 143.914062 L 214.980469 149.15625 " fill-opacity="1" fill-rule="nonzero"/><path fill="#ffffff" d="M 214.125 133.027344 C 214.035156 133.019531 213.945312 133.011719 213.855469 133.003906 L 208.195312 136.851562 C 208.160156 136.941406 208.128906 137.035156 208.097656 137.125 L 214.125 133.027344 " fill-opacity="1" fill-rule="nonzero"/><path fill="#ffffff" d="M 216.558594 148.957031 C 216.648438 148.96875 216.742188 148.976562 216.832031 148.980469 L 221.746094 145.636719 C 221.777344 145.550781 221.804688 145.460938 221.832031 145.375 L 216.558594 148.957031 " fill-opacity="1" fill-rule="nonzero"/><g clip-path="url(#2fa7c41e4b)"><path fill="#366db3" d="M 320.285156 179.089844 L 331.167969 127.773438 L 289.960938 127.773438 L 293.847656 88.898438 L 254.972656 92.785156 L 254.972656 51.578125 L 203.660156 62.460938 L 195.882812 4.925781 L 142.234375 25.144531 L 90.921875 184.53125 C 90.144531 186.085938 90.921875 186.863281 90.921875 188.417969 C 89.367188 191.527344 83.921875 200.082031 77.703125 213.300781 C 76.148438 215.632812 75.371094 217.964844 73.816406 220.296875 C 69.929688 227.292969 65.261719 235.847656 61.375 243.621094 C 59.820312 246.730469 59.042969 248.285156 58.265625 249.839844 C 55.15625 256.0625 52.046875 262.28125 48.15625 268.5 C 48.933594 268.5 49.710938 269.277344 50.492188 269.277344 C 52.046875 270.058594 53.601562 270.835938 55.15625 271.613281 C 58.265625 265.390625 62.152344 259.949219 65.261719 253.730469 C 70.707031 256.839844 76.925781 260.726562 83.144531 265.390625 C 78.480469 270.835938 74.59375 276.277344 70.707031 281.71875 C 73.039062 283.273438 74.59375 284.828125 76.925781 286.382812 C 80.8125 280.941406 85.476562 275.5 90.144531 270.058594 C 93.253906 273.167969 97.140625 276.277344 100.25 279.386719 C 95.585938 284.828125 90.144531 289.496094 85.476562 294.160156 C 87.03125 295.714844 88.589844 297.269531 90.921875 299.601562 C 95.585938 294.9375 101.027344 290.273438 105.691406 284.828125 C 108.804688 287.9375 111.914062 291.828125 115.023438 294.9375 C 109.582031 299.601562 104.136719 303.488281 98.695312 308.15625 C 100.25 309.710938 101.804688 312.042969 103.359375 313.597656 C 108.804688 309.710938 114.246094 305.042969 119.6875 300.378906 C 124.351562 305.820312 128.242188 312.042969 132.128906 317.484375 C 125.910156 321.371094 119.6875 324.480469 113.46875 327.59375 C 114.246094 329.148438 115.023438 329.925781 115.800781 331.480469 C 116.578125 332.257812 116.578125 333.035156 117.355469 333.8125 C 131.351562 326.039062 147.679688 317.484375 164.007812 308.15625 C 164.007812 308.15625 164.785156 308.15625 164.785156 308.15625 C 174.890625 302.710938 185.777344 296.492188 196.660156 291.050781 C 198.214844 291.050781 198.992188 291.050781 200.546875 291.050781 L 359.9375 239.734375 L 380.152344 186.085938 Z M 204.4375 204.746094 L 164.785156 251.398438 C 164.007812 252.175781 163.230469 253.730469 163.230469 255.285156 C 157.007812 259.949219 151.566406 264.613281 146.125 269.277344 C 142.234375 264.613281 138.347656 259.949219 133.683594 255.285156 C 138.347656 250.617188 143.789062 245.175781 148.457031 240.511719 C 149.234375 240.511719 150.789062 240.511719 152.34375 239.734375 Z M 128.242188 249.0625 C 123.574219 245.175781 118.910156 240.511719 114.246094 236.625 C 118.910156 231.179688 123.574219 224.960938 128.242188 219.519531 C 129.019531 219.519531 130.574219 219.519531 132.128906 217.964844 L 178.777344 178.3125 L 144.570312 231.179688 C 143.789062 231.960938 143.789062 233.515625 143.789062 235.070312 C 138.347656 239.734375 133.683594 244.398438 128.242188 249.0625 Z M 97.917969 193.859375 C 98.695312 193.859375 100.25 193.082031 101.027344 192.304688 L 181.886719 95.894531 L 122.796875 210.964844 C 122.019531 212.519531 122.019531 213.300781 122.019531 214.855469 C 117.355469 221.074219 112.691406 226.515625 108.027344 232.738281 C 100.25 226.515625 92.476562 221.851562 84.699219 217.964844 C 89.367188 209.410156 93.253906 201.636719 97.917969 193.859375 Z M 87.8125 259.171875 C 81.589844 254.507812 75.371094 249.839844 69.152344 246.730469 C 73.039062 239.734375 76.925781 232.738281 80.8125 224.960938 C 88.589844 228.847656 95.585938 233.515625 103.359375 238.957031 C 97.917969 245.953125 92.476562 252.175781 87.8125 259.171875 Z M 93.253906 263.835938 C 98.695312 257.617188 104.136719 250.617188 109.582031 243.621094 C 114.246094 247.507812 118.132812 251.398438 122.796875 255.285156 C 116.578125 261.503906 110.359375 267.722656 104.136719 273.945312 C 101.027344 270.058594 97.140625 266.945312 93.253906 263.835938 Z M 109.582031 279.386719 C 115.800781 273.167969 122.019531 266.945312 128.242188 260.726562 C 132.128906 264.613281 136.015625 269.277344 139.902344 273.945312 C 132.90625 279.386719 125.910156 284.828125 119.6875 290.273438 C 116.578125 286.382812 113.46875 282.496094 109.582031 279.386719 Z M 137.570312 314.375 C 133.683594 308.15625 129.796875 301.933594 124.351562 295.714844 C 131.351562 290.273438 137.570312 285.605469 144.570312 279.386719 C 150.789062 287.160156 155.453125 294.9375 158.5625 301.933594 C 151.566406 306.597656 144.570312 310.488281 137.570312 314.375 Z M 191.21875 282.496094 C 190.441406 283.273438 189.664062 284.828125 189.664062 285.605469 C 181.886719 290.273438 174.113281 294.160156 166.339844 298.824219 C 162.449219 291.050781 157.007812 283.273438 151.566406 275.5 C 157.785156 270.835938 163.230469 266.167969 169.449219 261.503906 C 171.003906 261.503906 171.78125 261.503906 173.335938 260.726562 L 288.40625 201.636719 Z M 191.21875 282.496094 " fill-opacity="1" fill-rule="nonzero"/></g><path fill="#366db3" d="M 42.714844 282.496094 C 39.605469 280.941406 34.941406 280.941406 31.832031 284.050781 C 24.054688 293.382812 6.171875 303.488281 4.617188 327.59375 C 3.839844 340.808594 8.503906 354.027344 18.613281 364.914062 C 37.273438 383.574219 66.816406 383.574219 85.476562 364.914062 C 86.253906 364.136719 100.25 350.140625 98.695312 351.695312 C 101.804688 348.585938 101.804688 344.695312 100.25 340.808594 C 84.699219 314.375 64.484375 294.9375 42.714844 282.496094 Z M 42.714844 282.496094 " fill-opacity="1" fill-rule="nonzero"/></svg>