<svg width="25" height="25" viewBox="0 0 25 25" fill="none" xmlns="http://www.w3.org/2000/svg">
<g clip-path="url(#clip0_17_71)">
<path d="M20.3123 14.0622C17.8661 14.0622 15.742 15.4684 14.7167 17.5192L3.36416 6.16672L3.39345 6.13742L6.32801 3.20286C10.6005 -1.06958 17.5243 -1.06958 21.7967 3.20286C25.0731 6.47922 25.8348 11.3229 24.0818 15.3268C23.0369 14.5309 21.7283 14.0622 20.3123 14.0622ZM2.40713 7.41671L14.1649 19.1745C14.0965 19.5407 14.0624 19.9215 14.0624 20.3122C14.0624 21.445 14.3651 22.5045 14.8875 23.4225C14.7411 23.4323 14.5897 23.4372 14.4383 23.4372H14.3065C12.6512 23.4372 11.0594 22.778 9.88757 21.6061L9.40905 21.1276C8.76941 20.4879 7.71961 20.5221 7.12391 21.2106L4.30654 24.4625C4.02333 24.7897 3.61318 24.985 3.18349 24.9996C2.75381 25.0143 2.32901 24.8483 2.02139 24.5407L0.458896 22.9782C0.15128 22.6706 -0.0147352 22.2506 -8.68577e-05 21.8209C0.0145615 21.3913 0.209873 20.9811 0.53702 20.6979L3.78896 17.8805C4.47255 17.2848 4.51161 16.235 3.87197 15.5954L3.39345 15.1169C2.22158 13.9401 1.56241 12.3483 1.56241 10.6931V10.5612C1.56241 9.44795 1.86026 8.36886 2.40713 7.42159V7.41671ZM20.3123 15.6247C21.5555 15.6247 22.7478 16.1185 23.6269 16.9976C24.506 17.8767 24.9998 19.069 24.9998 20.3122C24.9998 21.5554 24.506 22.7476 23.6269 23.6267C22.7478 24.5058 21.5555 24.9996 20.3123 24.9996C19.0691 24.9996 17.8769 24.5058 16.9978 23.6267C16.1187 22.7476 15.6249 21.5554 15.6249 20.3122C15.6249 19.069 16.1187 17.8767 16.9978 16.9976C17.8769 16.1185 19.0691 15.6247 20.3123 15.6247Z" fill="#366DB3"/>
</g>
<defs>
<clipPath id="clip0_17_71">
<rect width="24.9057" height="24.9057" fill="white" transform="scale(1.00378)"/>
</clipPath>
</defs>
</svg>
