<svg width="48" height="48" viewBox="0 0 48 48" fill="none" xmlns="http://www.w3.org/2000/svg">
<g clip-path="url(#clip0_62_34)">
<path d="M39.0002 27.0001C34.3033 27.0001 30.2252 29.7001 28.2565 33.6376L6.4596 11.8407L6.51585 11.7845L12.1502 6.15011C20.3533 -2.05301 33.6471 -2.05301 41.8502 6.15011C48.1408 12.4407 49.6033 21.7407 46.2377 29.4282C44.2315 27.9001 41.719 27.0001 39.0002 27.0001ZM4.6221 14.2407L27.1971 36.8157C27.0658 37.5188 27.0002 38.2501 27.0002 39.0001C27.0002 41.1751 27.5815 43.2095 28.5846 44.972C28.3033 44.9907 28.0127 45.0001 27.7221 45.0001H27.469C24.2908 45.0001 21.2346 43.7345 18.9846 41.4845L18.0658 40.5657C16.8377 39.3376 14.8221 39.4032 13.6783 40.7251L8.26897 46.9688C7.72522 47.597 6.93773 47.972 6.11273 48.0001C5.28773 48.0282 4.4721 47.7095 3.88148 47.1188L0.88148 44.1188C0.290855 43.5282 -0.0278944 42.722 0.000230606 41.897C0.0283556 41.072 0.403355 40.2845 1.03148 39.7407L7.27523 34.3313C8.58772 33.1876 8.66272 31.172 7.4346 29.9438L6.51585 29.0251C4.26585 26.7657 3.00023 23.7095 3.00023 20.5314V20.2782C3.00023 18.1407 3.5721 16.0689 4.6221 14.2501V14.2407ZM39.0002 30.0001C41.3872 30.0001 43.6763 30.9483 45.3642 32.6361C47.052 34.324 48.0002 36.6131 48.0002 39.0001C48.0002 41.387 47.052 43.6762 45.3642 45.364C43.6763 47.0519 41.3872 48.0001 39.0002 48.0001C36.6133 48.0001 34.3241 47.0519 32.6362 45.364C30.9484 43.6762 30.0002 41.387 30.0002 39.0001C30.0002 36.6131 30.9484 34.324 32.6362 32.6361C34.3241 30.9483 36.6133 30.0001 39.0002 30.0001Z" fill="#366DB3"/>
</g>
<defs>
<clipPath id="clip0_62_34">
<rect width="47.3571" height="47.3571" fill="white" transform="scale(1.01357)"/>
</clipPath>
</defs>
</svg>
