<svg width="30" height="24" viewBox="0 0 30 24" fill="none" xmlns="http://www.w3.org/2000/svg">
<g clip-path="url(#clip0_7_38)">
<path d="M4.49999 5.99999C4.49999 4.4087 5.13213 2.88257 6.25735 1.75736C7.38257 0.63214 8.90869 0 10.5 0C12.0913 0 13.6174 0.63214 14.7426 1.75736C15.8678 2.88257 16.5 4.4087 16.5 5.99999C16.5 7.59129 15.8678 9.11741 14.7426 10.2426C13.6174 11.3678 12.0913 12 10.5 12C8.90869 12 7.38257 11.3678 6.25735 10.2426C5.13213 9.11741 4.49999 7.59129 4.49999 5.99999ZM0 22.6078C0 17.9906 3.74062 14.25 8.3578 14.25H12.6422C17.2594 14.25 21 17.9906 21 22.6078C21 23.3765 20.3765 24 19.6078 24H1.39219C0.623437 24 0 23.3765 0 22.6078ZM28.5609 24H22.1015C22.3547 23.5593 22.5047 23.0484 22.5047 22.5V22.125C22.5047 19.2797 21.2343 16.725 19.2328 15.0094C19.3453 15.0047 19.4531 15 19.5656 15H22.4437C26.6156 15 30 18.3844 30 22.5609C30 23.3578 29.3531 24 28.5609 24ZM20.25 12C18.7969 12 17.4844 11.4094 16.5328 10.4578C17.4562 9.21093 18 7.66874 18 5.99999C18 4.74374 17.6906 3.55781 17.1422 2.51718C18.014 1.87969 19.0875 1.5 20.25 1.5C23.1515 1.5 25.5 3.84843 25.5 6.74999C25.5 9.65155 23.1515 12 20.25 12Z" fill="#366DB3"/>
</g>
<defs>
<clipPath id="clip0_7_38">
<rect width="29.0566" height="23.2453" fill="white" transform="scale(1.03247)"/>
</clipPath>
</defs>
</svg>
